<svg width="119" height="26" viewBox="0 0 119 26" fill="none" xmlns="http://www.w3.org/2000/svg">
<path d="M112.081 0.459095H105.444L99.805 22.0961L98.076 17.9961C100.102 16.4961 101.29 13.9441 101.29 10.3811V9.7151C101.29 3.7421 97.902 0.459095 93.046 0.459095H84.908V5.4391C84.3103 3.80428 83.2119 2.39978 81.7693 1.42566C80.3268 0.451549 78.6136 -0.0424959 76.8739 0.0139072C75.1341 0.0703103 73.4565 0.674285 72.0801 1.73979C70.7037 2.8053 69.6986 4.278 69.208 5.9481C68.7377 4.30199 67.7241 2.86354 66.3321 1.86687C64.9402 0.870214 63.2519 0.374032 61.542 0.459095H53.368V4.6521C52.7498 3.22627 51.716 2.02005 50.4015 1.19101C49.087 0.361972 47.553 -0.0513309 46 0.00509543C41.18 0.00509543 37.826 2.9391 37.826 7.5151C37.826 12.3351 41.284 13.8721 44.218 14.9551C46.349 15.7551 48.2 16.3551 48.2 17.7841C48.2 19.2511 46.942 19.5311 46 19.5311C44.987 19.5311 43.729 19.1111 43.729 17.0861H38.317L34.055 0.459095H27.418L22.218 20.4261V0.459095H16.031V6.1431C15.5899 4.44833 14.5778 2.95753 13.1655 1.9221C11.7532 0.88667 10.027 0.369956 8.278 0.459095H0V25.1201H8.278C10.0144 25.2229 11.7331 24.7245 13.1451 23.7088C14.5572 22.693 15.5763 21.222 16.031 19.5431V25.1201H27.209L28.152 20.9631H33.217L34.16 25.1201H40.377L39.868 23.1351C40.6768 23.9263 41.6365 24.5468 42.6899 24.9598C43.7433 25.3728 44.869 25.5698 46 25.5391C49.318 25.5391 51.981 24.1551 53.369 21.8131V25.1201H59.586V19.8451H61.542C63.078 19.9353 64.6047 19.5522 65.9161 18.7475C67.2275 17.9428 68.2606 16.7553 68.876 15.3451V17.0161C68.876 22.0161 72.265 25.5041 77.155 25.5041C78.8605 25.5655 80.5396 25.07 81.9386 24.0925C83.3375 23.115 84.3802 21.7087 84.909 20.0861V25.1201H91.126V19.4951H92.453L94.339 25.1191H105.239L106.182 20.9621H111.247L112.19 25.1191H118.4L112.081 0.459095ZM53.368 13.8591C52.158 12.0051 50.093 11.1331 48.2 10.4491C45.964 9.6491 43.974 9.1221 43.974 7.5151C43.974 6.2571 45.022 5.8381 46 5.8381C46.908 5.8381 47.956 6.2921 47.956 8.1781H53.369L53.368 13.8591ZM114.717 23.8961C114.491 23.8943 114.272 23.8232 114.088 23.6923C113.904 23.5614 113.765 23.377 113.689 23.1643C113.613 22.9516 113.605 22.7208 113.665 22.5033C113.725 22.2857 113.851 22.0919 114.025 21.9481L113.552 20.5871C113.421 20.1181 113.006 19.6361 112.587 19.6361H109.658C109.422 19.6539 109.186 19.6235 108.962 19.5468C108.739 19.4701 108.533 19.3488 108.358 19.1901C108.242 19.0674 108.152 18.9225 108.093 18.764C108.034 18.6056 108.008 18.4369 108.016 18.2681C108.049 17.1241 109.199 16.8441 109.801 16.8581H110.334C111.059 16.8581 111.9 16.8581 112.268 16.3971C112.393 16.1797 112.469 15.9377 112.49 15.6878C112.512 15.438 112.478 15.1866 112.392 14.9511L110.332 5.9781C110.032 4.6491 109.325 4.4781 108.743 4.4781C108.313 4.50146 107.903 4.66851 107.58 4.95247C107.256 5.23643 107.037 5.62085 106.958 6.0441L102.428 23.7221C102.41 23.7905 102.371 23.8511 102.315 23.8943C102.259 23.9376 102.191 23.9611 102.12 23.9611H99.751C98.8626 23.962 97.9936 23.7012 97.2526 23.2112C96.5115 22.7213 95.9311 22.0239 95.584 21.2061L94.168 17.8791C94.0221 17.5362 93.7786 17.2438 93.4678 17.0383C93.157 16.8328 92.7926 16.7231 92.42 16.7231H89.11C89.0256 16.7228 88.9447 16.6891 88.8851 16.6293C88.8255 16.5695 88.792 16.4885 88.792 16.4041V4.6731C88.7919 4.59178 88.8229 4.51351 88.8787 4.45437C88.9345 4.39522 89.0108 4.3597 89.092 4.3551C93.039 4.1401 94.706 4.8881 94.775 4.9201C98.124 6.6201 97.244 11.2901 97.205 11.4881C96.861 12.7781 97.062 13.2681 97.168 13.3501C97.2495 13.391 97.339 13.4132 97.4302 13.4153C97.5213 13.4174 97.6117 13.3992 97.695 13.3621C98.0293 13.119 98.2656 12.7643 98.361 12.3621C98.833 10.6701 98.8357 8.88155 98.369 7.1881C98.0359 5.92072 97.2903 4.80031 96.2499 4.00361C95.2094 3.20691 93.9334 2.77925 92.623 2.7881H87.089V14.2761C87.1482 14.8198 87.0882 15.3699 86.913 15.888C86.7379 16.4061 86.4519 16.8798 86.075 17.2761C85.8724 17.4459 85.6376 17.5731 85.3847 17.6501C85.1317 17.7271 84.8659 17.7522 84.603 17.7241C84.2556 17.7363 83.9097 17.6723 83.5896 17.5367C83.2695 17.4011 82.9829 17.1971 82.75 16.9391C82.0772 15.9462 81.7906 14.7416 81.944 13.5521C82.029 11.3209 81.9956 9.08676 81.844 6.8591C81.7153 6.26319 81.4673 5.69951 81.1149 5.20199C80.7626 4.70446 80.3132 4.2834 79.7938 3.96415C79.2744 3.6449 78.6958 3.43406 78.0928 3.34435C77.4898 3.25463 76.8748 3.28788 76.285 3.4421C73.35 3.9811 73.259 8.2251 73.259 8.2671C72.788 17.5421 73.575 18.8741 73.665 18.9931C73.7073 19.023 73.7417 19.0628 73.765 19.1091C73.9558 19.5488 74.2363 19.9438 74.5886 20.2688C74.941 20.5937 75.3573 20.8415 75.811 20.9961C77.1212 21.2741 78.4874 21.0819 79.67 20.4531C79.9255 20.3052 80.2112 20.2171 80.5056 20.1953C80.8 20.1735 81.0955 20.2185 81.37 20.3271C81.5383 20.4159 81.6866 20.5385 81.8054 20.6872C81.9243 20.8358 82.0113 21.0074 82.061 21.1911C82.1586 21.519 82.1382 21.8707 82.0034 22.1851C81.8686 22.4996 81.6278 22.7568 81.323 22.9121C80.0881 23.626 78.6874 24.0029 77.261 24.0051C76.1581 24.0159 75.0661 23.7862 74.061 23.3321C69.954 21.3371 70.244 15.2931 70.261 15.0321L70.147 11.2621C70.047 10.6151 69.835 10.1681 69.555 10.0411C69.4634 10.0108 69.3663 10.0008 69.2704 10.0119C69.1746 10.0229 69.0823 10.0547 69 10.1051C68.9817 10.1167 68.9623 10.1265 68.942 10.1341C68.594 10.2691 68.281 11.2671 68.178 11.9001C67.301 17.6271 63.202 18.1651 63.161 18.1701H61.594C61.2729 18.1582 60.9682 18.0253 60.741 17.7981C60.5138 17.5709 60.3809 17.2662 60.369 16.9451C60.3438 16.6311 60.4239 16.3176 60.5966 16.0541C60.7694 15.7906 61.0249 15.5922 61.323 15.4901L62.839 15.3121C66.216 14.3941 65.495 8.3781 65.487 8.3181C65.025 4.2181 61.736 3.8271 61.596 3.8121H57.856V20.4581C57.856 21.5581 57.368 22.2181 56.551 22.2181C56.3615 22.2259 56.1725 22.1934 55.9965 22.1227C55.8205 22.052 55.6615 21.9448 55.53 21.8081C55.2203 21.4208 55.0637 20.9333 55.09 20.4381L55.19 8.4781C55.1882 7.95539 54.9797 7.45462 54.6101 7.08501C54.2405 6.7154 53.7397 6.50694 53.217 6.5051C51.7331 6.498 50.3088 5.92047 49.239 4.8921C48.3694 3.98597 47.2358 3.3777 46 3.1541C45.0349 3.02551 44.0541 3.21342 43.2048 3.68961C42.3556 4.16581 41.6837 4.9046 41.29 5.7951C39.99 10.1131 44.59 11.7101 44.781 11.7761C51.081 13.9141 51.501 17.1231 51.516 17.2591C51.6255 17.8679 51.6044 18.493 51.4543 19.0931C51.3041 19.6932 51.0283 20.2546 50.645 20.7401C49.5203 21.8968 48.0093 22.5991 46.4 22.7131C45.2606 22.8055 44.1142 22.6656 43.0304 22.3019C41.9467 21.9382 40.948 21.3582 40.095 20.5971C39.8787 20.3809 39.6092 20.2256 39.3137 20.1469C39.0182 20.0683 38.7071 20.069 38.412 20.1491C37.477 20.5491 37.053 22.3121 36.969 22.9601C36.9595 23.0341 36.9242 23.1025 36.8693 23.1531C36.8145 23.2037 36.7436 23.2335 36.669 23.2371C36.5944 23.2434 36.52 23.2223 36.4599 23.1778C36.3997 23.1332 36.3578 23.0683 36.342 22.9951L32.1 5.7151C31.759 4.3151 31.314 3.8691 31.08 3.7311C30.9883 3.66633 30.8751 3.63947 30.764 3.6561C30.7267 3.66693 30.6879 3.67199 30.649 3.6711C29.959 3.6391 29.455 4.9711 29.336 5.4491L27.096 14.7731C26.9889 15.0657 26.9462 15.378 26.9707 15.6886C26.9952 15.9992 27.0864 16.3009 27.238 16.5731C27.4339 16.7465 27.6654 16.8748 27.9163 16.949C28.1672 17.0231 28.4313 17.0412 28.69 17.0021H29.368C29.8488 16.9673 30.3258 17.1096 30.709 17.4021C30.8177 17.5115 30.9037 17.6413 30.9619 17.7841C31.0201 17.9269 31.0494 18.0798 31.0481 18.234C31.0468 18.3882 31.0149 18.5406 30.9543 18.6824C30.8937 18.8242 30.8056 18.9526 30.695 19.0601C30.3162 19.3365 29.8464 19.4585 29.381 19.4011H26.669C26.4489 19.4026 26.2343 19.4702 26.053 19.595C25.8717 19.7197 25.732 19.8961 25.652 20.1011L25.634 20.1591C24.853 22.6051 23.469 23.7591 21.834 23.3181C20.199 22.8771 19.866 21.0601 19.911 20.1591V4.4421C19.911 3.3421 19.159 3.2781 19.074 3.2751C18.9224 3.26453 18.7702 3.28576 18.6273 3.33742C18.4844 3.38908 18.3538 3.47004 18.244 3.5751C18.0527 3.81476 17.955 4.11576 17.969 4.4221V15.0861C17.9942 15.4286 17.9473 15.7726 17.8314 16.0959C17.7155 16.4192 17.5331 16.7146 17.296 16.9631C16.9282 17.2952 16.4464 17.4726 15.951 17.4581C15.6654 17.4318 15.3879 17.3485 15.135 17.2133C14.8821 17.078 14.6588 16.8935 14.4784 16.6705C14.2979 16.4476 14.164 16.1907 14.0844 15.9152C14.0048 15.6396 13.9812 15.3509 14.015 15.0661V12.3241C14.1453 10.4011 13.9767 8.46944 13.515 6.5981C13.1884 5.4798 12.5007 4.50113 11.5593 3.81493C10.6178 3.12873 9.47558 2.77363 8.311 2.8051H2V21.8821C1.98948 22.2142 2.09366 22.5398 2.295 22.8041C2.35986 22.8678 2.4373 22.9172 2.52237 22.9492C2.60743 22.9813 2.69825 22.9952 2.789 22.9901C2.91813 22.9987 3.04764 22.9805 3.16945 22.9368C3.29126 22.8931 3.40277 22.8248 3.497 22.7361C3.6972 22.4978 3.80821 22.1973 3.811 21.8861V4.9051C3.811 4.82066 3.84447 4.73968 3.90408 4.67988C3.96369 4.62009 4.04457 4.58636 4.129 4.5861H8.231C9.13668 4.54344 10.0273 4.82923 10.7391 5.39089C11.4509 5.95255 11.9359 6.75232 12.105 7.6431C12.3506 9.31184 12.4447 10.9994 12.386 12.6851V17.7381C12.3121 18.7808 11.8904 19.7685 11.1883 20.5429C10.4862 21.3173 9.54447 21.8336 8.514 22.0091C8.48993 22.2719 8.37216 22.5174 8.18217 22.7006C7.99218 22.8838 7.74265 22.9926 7.47911 23.0071C7.21557 23.0216 6.95559 22.9409 6.74662 22.7797C6.53765 22.6185 6.39362 22.3875 6.34082 22.1288C6.28802 21.8702 6.32996 21.6013 6.459 21.371C6.58803 21.1408 6.79556 20.9646 7.0437 20.8746C7.29184 20.7847 7.56405 20.787 7.81066 20.881C8.05726 20.9751 8.26182 21.1547 8.387 21.3871C9.28113 21.2517 10.1021 20.8148 10.7138 20.1487C11.3255 19.4826 11.6911 18.6275 11.75 17.7251V12.6851C11.75 8.5221 11.523 7.8951 11.513 7.8711C11.487 7.8341 11.496 7.8381 11.486 7.7951C11.3591 7.04334 10.9587 6.36504 10.3619 5.89063C9.76513 5.41621 9.01401 5.17917 8.253 5.2251H4.445V21.8821C4.44339 22.3608 4.26823 22.8227 3.952 23.1821C3.79875 23.3327 3.61616 23.4502 3.41557 23.5273C3.21498 23.6044 3.00068 23.6394 2.786 23.6301C2.60952 23.6358 2.43377 23.6048 2.26989 23.5391C2.10601 23.4733 1.95758 23.3742 1.834 23.2481C1.51807 22.8612 1.35037 22.3744 1.361 21.8751V2.4901C1.36087 2.44825 1.369 2.40679 1.38492 2.36809C1.40084 2.3294 1.42424 2.29422 1.45379 2.26459C1.48333 2.23495 1.51843 2.21144 1.55708 2.1954C1.59572 2.17935 1.63716 2.1711 1.679 2.1711H8.3C8.333 2.1711 12.859 2.0451 14.125 6.4071C14.6159 8.34131 14.7948 10.3415 14.655 12.3321V15.0661C14.655 15.9381 15.11 16.8221 15.977 16.8221C16.3058 16.8296 16.6251 16.7116 16.87 16.4921C17.0393 16.3018 17.1678 16.0789 17.2478 15.8371C17.3277 15.5954 17.3574 15.3398 17.335 15.0861V4.4421C17.3131 3.96887 17.4702 3.50474 17.775 3.1421C17.9452 2.97038 18.1501 2.83696 18.376 2.75074C18.6019 2.66452 18.8436 2.62748 19.085 2.6421C19.302 2.65722 19.5136 2.71672 19.7067 2.81691C19.8998 2.9171 20.0703 3.05585 20.2076 3.22457C20.345 3.3933 20.4462 3.58841 20.5051 3.79783C20.564 4.00725 20.5793 4.22653 20.55 4.4421V20.1731C20.55 20.2731 20.47 22.2891 22.002 22.7011C23.724 23.1621 24.635 21.1851 25.025 19.9631L25.055 19.8711C25.1804 19.545 25.4012 19.2644 25.6886 19.0658C25.976 18.8672 26.3167 18.76 26.666 18.7581H29.414C29.7116 18.8003 30.0144 18.7359 30.269 18.5761C30.3577 18.4784 30.4069 18.3511 30.4069 18.2191C30.4069 18.0871 30.3577 17.9598 30.269 17.8621C30.0085 17.687 29.6956 17.6069 29.383 17.6351H28.7C28.3464 17.6822 27.9868 17.6474 27.6488 17.5333C27.3109 17.4192 27.0037 17.2289 26.751 16.9771C26.5292 16.6331 26.3891 16.2429 26.3416 15.8364C26.2941 15.4299 26.3404 15.0179 26.477 14.6321L28.72 5.2951C28.779 5.0571 29.32 3.0311 30.62 3.0311H30.636C30.8833 2.9841 31.1392 3.02664 31.358 3.1511C31.7354 3.44127 32.0508 3.80413 32.2855 4.21823C32.5203 4.63233 32.6698 5.08928 32.725 5.5621L36.658 21.5721C36.7619 21.1525 36.9495 20.7581 37.2095 20.4127C37.4694 20.0674 37.7965 19.778 38.171 19.5621C38.5675 19.4321 38.9918 19.4121 39.3988 19.5042C39.8057 19.5963 40.1801 19.7971 40.482 20.0851C41.2753 20.8014 42.2069 21.3477 43.2194 21.6901C44.2319 22.0325 45.3038 22.1639 46.369 22.0761C47.8007 21.9652 49.1458 21.3467 50.162 20.3321C50.4883 19.9118 50.7219 19.4272 50.8474 18.9101C50.9729 18.393 50.9874 17.8552 50.89 17.3321C50.89 17.2981 50.455 14.3701 44.584 12.3771C44.532 12.3601 39.208 10.5221 40.697 5.5771C41.1501 4.55798 41.918 3.71096 42.8879 3.16039C43.8578 2.60982 44.9787 2.3847 46.086 2.5181C47.4726 2.75298 48.7456 3.43125 49.714 4.4511C50.6576 5.35345 51.9114 5.85953 53.217 5.8651C53.9106 5.86589 54.5755 6.14176 55.0659 6.63218C55.5563 7.1226 55.8322 7.78753 55.833 8.4811L55.728 20.4611C55.7066 20.7877 55.802 21.1113 55.997 21.3741C56.0695 21.4461 56.1565 21.5018 56.2522 21.5377C56.3478 21.5735 56.45 21.5887 56.552 21.5821C57.105 21.5821 57.22 20.9711 57.22 20.4581V3.5051C57.2199 3.46317 57.228 3.42163 57.244 3.38286C57.26 3.3441 57.2835 3.30888 57.3131 3.27923C57.3428 3.24959 57.378 3.22609 57.4168 3.21011C57.4555 3.19412 57.4971 3.18596 57.539 3.1861H61.63C62.8483 3.38191 63.9613 3.99337 64.7799 4.91665C65.5986 5.83993 66.0724 7.0181 66.121 8.2511C66.155 8.5161 66.921 14.8731 62.961 15.9451L61.441 16.1241C61.2917 16.2005 61.1698 16.3214 61.0923 16.4701C61.0147 16.6188 60.9852 16.7879 61.008 16.9541C61.0167 17.1144 61.0868 17.2652 61.2037 17.3753C61.3207 17.4853 61.4754 17.5461 61.636 17.5451H63.127C63.238 17.5291 66.751 17.0451 67.552 11.8111C67.604 11.4901 67.9 9.90009 68.689 9.5611C68.8583 9.4614 69.0481 9.40182 69.244 9.38691C69.4399 9.372 69.6366 9.40217 69.819 9.4751C70.319 9.7001 70.64 10.2871 70.781 11.2191L70.898 15.0551C70.898 15.1411 70.618 20.9601 74.347 22.7721C75.4178 23.2239 76.5787 23.4214 77.7386 23.3488C78.8986 23.2763 80.0259 22.9358 81.032 22.3541C81.2102 22.2636 81.3498 22.1118 81.425 21.9266C81.5001 21.7413 81.5058 21.5352 81.441 21.3461C81.4139 21.2517 81.3679 21.1638 81.3059 21.0876C81.2438 21.0115 81.167 20.9487 81.08 20.9031C80.8941 20.8448 80.6979 20.8261 80.5043 20.8483C80.3107 20.8706 80.1239 20.9332 79.956 21.0321C78.6291 21.7412 77.091 21.9478 75.624 21.6141C75.097 21.4394 74.6118 21.1577 74.1988 20.7867C73.7859 20.4157 73.454 19.9634 73.224 19.4581C72.517 18.7341 72.299 14.7071 72.624 8.2581C72.624 8.0741 72.724 3.4581 76.154 2.8301C76.186 2.8221 81.13 1.6731 82.469 6.7461C82.6392 9.02834 82.6756 11.3186 82.578 13.6051C82.4457 14.6257 82.6754 15.6603 83.227 16.5291C83.4034 16.7221 83.6206 16.8734 83.8627 16.9719C84.1049 17.0705 84.366 17.114 84.627 17.0991C84.6453 17.0972 84.6637 17.0972 84.682 17.0991C84.8601 17.1174 85.0401 17.0991 85.2109 17.0453C85.3817 16.9915 85.5396 16.9033 85.675 16.7861C85.9704 16.4458 86.192 16.0479 86.3257 15.6176C86.4595 15.1873 86.5025 14.7339 86.452 14.2861V2.4751C86.4519 2.43325 86.46 2.39179 86.4759 2.3531C86.4918 2.3144 86.5152 2.27922 86.5448 2.24959C86.5743 2.21995 86.6094 2.19644 86.6481 2.1804C86.6867 2.16435 86.7281 2.1561 86.77 2.1561H92.613C94.061 2.14532 95.4717 2.61565 96.6235 3.49327C97.7753 4.37089 98.6031 5.60612 98.977 7.0051C99.4888 8.80984 99.4888 10.7213 98.977 12.5261C98.837 13.1098 98.4755 13.6161 97.969 13.9381C97.7966 14.0165 97.6087 14.0552 97.4194 14.0512C97.23 14.0472 97.044 14.0007 96.875 13.9151C96.729 13.8471 96.035 13.4091 96.585 11.3451C96.585 11.3221 97.405 6.9721 94.498 5.4941C92.8616 4.97643 91.1362 4.80046 89.429 4.9771V16.0911H92.422C92.9194 16.0907 93.406 16.2368 93.8209 16.5112C94.2358 16.7856 94.5607 17.1762 94.755 17.6341L96.171 20.9611C96.4693 21.6639 96.9679 22.2634 97.6048 22.6845C98.2417 23.1056 98.9885 23.3298 99.752 23.3291H101.875L106.34 5.9051C106.445 5.33845 106.741 4.82494 107.179 4.45024C107.617 4.07554 108.17 3.8623 108.746 3.8461C109.299 3.83604 109.834 4.03661 110.245 4.4071C110.655 4.77759 110.909 5.29026 110.955 5.8411L113.015 14.8141C113.129 15.1418 113.166 15.4913 113.123 15.8355C113.08 16.1798 112.958 16.5095 112.767 16.7991C112.445 17.0826 112.065 17.2922 111.654 17.4132C111.242 17.5341 110.809 17.5634 110.385 17.4991H109.795C109.748 17.4991 108.676 17.4921 108.654 18.2901C108.649 18.3737 108.66 18.4575 108.688 18.5365C108.715 18.6155 108.759 18.6882 108.815 18.7501C109.053 18.9407 109.356 19.0311 109.659 19.0021H112.588C112.963 19.0438 113.315 19.201 113.597 19.4518C113.879 19.7026 114.075 20.0346 114.16 20.4021L114.616 21.7111C114.65 21.7111 114.683 21.7011 114.716 21.7011C114.86 21.7011 115.003 21.7295 115.137 21.7848C115.27 21.8401 115.392 21.9211 115.494 22.0233C115.596 22.1254 115.677 22.2467 115.732 22.3801C115.788 22.5136 115.816 22.6566 115.816 22.8011C115.816 22.9455 115.788 23.0886 115.732 23.222C115.677 23.3555 115.596 23.4768 115.494 23.5789C115.392 23.6811 115.27 23.7621 115.137 23.8174C115.003 23.8726 114.86 23.9011 114.716 23.9011M107.364 15.6221L108.764 8.6711L110.057 15.6221H107.364ZM79.18 8.3181V17.2251C79.18 19.3251 78.028 19.5661 77.154 19.5661C76.28 19.5661 75.093 19.3221 75.093 17.2251V8.3181C75.093 6.1871 76.176 5.9431 77.154 5.9431C78.097 5.9431 79.18 6.1871 79.18 8.3181ZM59.586 13.9761V6.3971H60.739C62.066 6.3971 63.639 6.7811 63.639 9.7501V10.6581C63.639 13.6271 61.962 13.9761 60.739 13.9761H59.586ZM32.029 15.6191H29.339L30.739 8.6681L32.029 15.6191ZM6.217 19.2511V6.3971H7.51C8.837 6.3971 10.374 6.7811 10.374 9.7501V15.9331C10.374 18.9021 8.733 19.2511 7.51 19.2511H6.217ZM95.141 9.7511V10.3051C95.141 13.2741 93.499 13.6231 92.277 13.6231H91.125V6.3971H92.278C93.605 6.3971 95.142 6.7811 95.142 9.7501" fill="#7233FF"/>
</svg>
