<svg width="85" height="112" viewBox="0 0 85 112" fill="none" xmlns="http://www.w3.org/2000/svg">
<path d="M15.3697 24.0361C12.3841 16.998 13.7995 12.0044 14.0163 11.3294C14.8505 6.85814 13.854 5.69444 13.8439 5.68368C13.8439 5.68368 13.8581 5.69914 13.889 5.72536L15.0189 4.3667C15.3239 4.61947 16.7924 6.16234 15.7434 11.7146L15.7312 11.7799L15.709 11.843C15.7063 11.8518 15.3077 13.0357 15.268 15.0363C15.2316 16.8817 15.5023 19.8216 16.9978 23.3483L15.369 24.0367L15.3697 24.0361Z" fill="#333333"/>
<path d="M20.7753 32.0762C20.7187 32.0762 20.6595 32.0735 20.5982 32.0668L20.3397 32.0406L20.1902 31.9216C19.9565 31.8496 19.23 31.8093 18.6106 31.8375H18.5984C15.2473 31.9431 10.5899 31.2937 10.394 31.2661L10.3408 31.2587L10.2889 31.2446C8.99817 30.8997 8.04744 30.3128 7.46232 29.4994C6.98628 28.8378 6.93376 28.2577 6.92837 28.1481L6.92703 28.1165V28.0849C6.95329 26.7988 7.22868 25.6761 7.74646 24.7491C8.09592 24.1225 8.45144 23.781 8.59014 23.662C11.6693 20.6731 16.6929 22.9144 16.9057 23.0112L16.9246 23.02C19.0866 24.0687 20.6453 25.7951 21.4318 28.0109C22.023 29.6775 21.9691 31.0456 21.9664 31.1027L21.9597 31.256L21.9011 31.3985C21.7678 31.7239 21.3968 32.0768 20.776 32.0768L20.7753 32.0762ZM19.1169 30.0594C19.5007 30.0594 19.84 30.0795 20.1336 30.1192C20.0737 29.6876 19.9586 29.135 19.7411 28.538C19.0994 26.778 17.8955 25.4577 16.1623 24.6139C15.9718 24.5299 11.9682 22.8156 9.80347 24.9447L9.75634 24.9911L9.73547 25.0059C9.63447 25.0966 8.75645 25.9444 8.69585 28.0526C8.73221 28.2193 8.99548 29.0563 10.6936 29.5249C11.2222 29.5968 15.524 30.1669 18.5365 30.0735C18.7398 30.0647 18.9331 30.06 19.1162 30.06L19.1169 30.0594Z" fill="#333333"/>
<path d="M13.7982 36.2772C11.0174 36.2772 9.76095 35.3703 9.58184 35.2284L9.56501 35.215C6.6145 32.7598 6.91548 28.2287 6.92962 28.0371L8.69306 28.1682L7.811 28.103L8.69306 28.1669C8.69036 28.2045 8.45268 31.9659 10.6753 33.8415C10.8235 33.9403 12.801 35.1719 17.5237 34.0096C17.6382 33.976 19.778 33.3252 20.1093 31.539V31.1901H21.8781V31.6835L21.8673 31.7521C21.3872 34.7666 18.1176 35.6782 17.9789 35.7151L17.9614 35.7199C16.3036 36.1293 14.9253 36.2778 13.7989 36.2778L13.7982 36.2772Z" fill="#333333"/>
<path d="M25.1373 50.6535C22.8312 50.16 21.022 49.5691 19.7595 48.8975C18.7757 48.3738 18.4256 47.9563 18.3213 47.801C18.2539 47.7009 18.2075 47.5879 18.1852 47.4696C18.0479 46.7328 18.0344 45.7345 19.6275 43.2067C20.7452 41.4326 21.2004 36.722 21.2819 35.0567C21.2832 35.0278 21.2859 34.9989 21.2906 34.9707C21.5801 33.0124 20.4665 31.7008 20.4187 31.6463C20.1413 31.335 20.1217 30.8752 20.3682 30.5397C20.6146 30.2043 21.0651 30.088 21.4455 30.2587C21.463 30.2661 23.3335 31.085 25.2619 30.9505L25.3851 32.7119C24.4694 32.7757 23.5813 32.6715 22.8305 32.5176C23.0588 33.251 23.1921 34.1552 23.0466 35.1858C23.0325 35.4561 22.947 36.9075 22.7039 38.6279C22.3397 41.2067 21.8084 43.0635 21.125 44.1479C20.0827 45.8017 19.9056 46.5351 19.9009 46.9002C20.3103 47.2249 21.7114 48.1157 25.5083 48.9278L25.138 50.6542L25.1373 50.6535Z" fill="#333333"/>
<path d="M19.8602 47.6699L18.2476 46.9445C18.9768 45.3283 20.4621 44.211 22.5434 43.7135C24.0388 43.3559 25.3303 43.4433 25.3848 43.4473L25.2602 45.2087C25.2495 45.208 24.1493 45.1381 22.913 45.4413C21.3853 45.8157 20.3578 46.5653 19.8602 47.6699Z" fill="#333333"/>
<path d="M25.2751 36.3159C24.8125 36.3159 22.3778 36.2318 21.2311 34.5135L22.703 33.5347C23.2854 34.408 24.8085 34.5639 25.296 34.5498L25.3471 36.3145C25.3384 36.3145 25.3128 36.3152 25.2744 36.3152L25.2751 36.3159Z" fill="#333333"/>
<path d="M25.1649 41.1671C25.1286 41.1604 24.2613 41.0024 23.3651 40.7073C22.4076 40.392 21.1202 39.8481 20.9923 38.7705L22.7483 38.5621C22.7403 38.4942 22.716 38.4491 22.7079 38.437C22.9241 38.7321 24.2458 39.2047 25.48 39.4286L25.1649 41.1664V41.1671Z" fill="#333333"/>
<path d="M25.3116 72.2403C22.1368 72.202 18.3669 69.2763 18.0915 69.0591C12.3426 64.7546 9.5443 59.9727 9.42782 59.771C6.94864 55.5175 5.08892 49.1376 5.01081 48.8681L5.00543 48.8486C3.78132 44.222 2.92755 39.0717 2.91947 39.0206L2.91745 39.0092L2.41784 35.707C2.05491 33.0058 1.81858 28.6461 2.75248 23.2161C3.30259 20.0161 3.99813 17.9529 4.04863 17.8057C7.10553 8.55385 12.0316 5.0224 12.6995 4.57802C14.8939 2.63515 17.7764 1.32556 21.04 0.788416C23.5138 0.381691 25.3344 0.555138 25.4105 0.562533L25.2348 2.31986L25.3223 1.4412L25.2355 2.31986C25.2186 2.31784 23.5293 2.16187 21.275 2.53902C19.2287 2.88188 16.2755 3.74978 13.8273 5.9387L13.7714 5.98845L13.7081 6.02811C13.698 6.03416 12.4551 6.83619 10.858 8.74746C9.38204 10.5135 7.29338 13.6154 5.72588 18.3623L5.72252 18.3731C5.69491 18.4531 2.97198 26.5351 4.16983 35.4643L4.66539 38.7383C4.69771 38.9319 5.52994 43.9121 6.71298 48.386C6.79445 48.6644 8.63061 54.8903 10.959 58.8849C10.9872 58.934 13.7135 63.5747 19.1621 67.6521L19.1823 67.6675C19.2166 67.6951 22.7139 70.442 25.3331 70.4736L25.3116 72.239V72.2403Z" fill="#333333"/>
<path d="M15.4843 57.3488C14.9767 57.3488 14.5794 57.2426 14.4366 57.1989C12.0679 56.61 11.6134 53.695 11.5952 53.5706C11.5016 52.9151 10.5206 51.1181 9.8513 50.0452C9.20491 49.0475 9.12007 48.265 9.10997 48.0223L8.83661 45.1053C8.49792 42.79 8.18213 41.9873 7.55796 40.5359C6.18505 37.3439 3.04938 35.038 3.01773 35.0152L4.05667 33.5859C4.20144 33.6908 7.61452 36.191 9.18337 39.8388C9.89171 41.4858 10.2385 42.4599 10.5899 44.8727L10.5953 44.9178L10.8795 47.947L10.8781 47.9591C10.8855 48.0425 10.9421 48.4795 11.3393 49.0899L11.3481 49.1033C11.6498 49.586 13.162 52.0553 13.3452 53.3111C13.3553 53.3723 13.6657 55.1995 14.881 55.4879L14.9288 55.4994L14.9558 55.5094C15.0123 55.5262 15.6264 55.6983 16.1206 55.4422L16.934 57.01C16.4317 57.2701 15.918 57.3474 15.485 57.3474L15.4843 57.3488Z" fill="#333333"/>
<path d="M24.9857 61.378C23.932 61.378 21.0044 61.1871 18.3595 59.2523C18.2713 59.1911 17.5953 58.7212 16.9301 58.2392C16.5079 57.9333 16.1706 57.6812 15.9275 57.4896C15.4797 57.1373 15.0932 56.8328 15.1646 56.2808L15.238 55.7128L15.7874 55.5481C16.0312 55.4748 16.7712 55.216 17.2472 54.9114L17.2768 54.8933L19.8105 53.4082C20.0523 53.2583 21.7847 52.2082 23.0257 52.0354C23.1819 52.0065 23.7125 51.9259 24.2895 52.0348C24.6302 52.0764 25.0894 52.1107 25.2274 52.0959L25.4167 53.8519C25.0005 53.897 24.2572 53.8109 24.039 53.7833L23.9737 53.7726C23.7192 53.7208 23.4337 53.7551 23.3448 53.7726L23.3038 53.782L23.2809 53.7833C22.6156 53.8687 21.3653 54.5229 20.733 54.9148L20.7135 54.9262L18.1845 56.4086C18.0464 56.496 17.8997 56.5787 17.7515 56.6546C18.241 57.013 18.8342 57.4345 19.3763 57.8096L19.3951 57.823C22.1046 59.8096 25.2254 59.6093 25.2564 59.6066L25.3843 61.3679C25.3567 61.37 25.2153 61.3794 24.9837 61.3794L24.9857 61.378Z" fill="#333333"/>
<path d="M25.2023 22.0667C23.9546 22.0667 23.051 21.3897 22.6948 20.9642L21.4196 19.5114L21.3778 19.4401C20.6829 18.265 20.3746 16.5998 20.3618 16.5292L20.3503 16.4673L20.2446 13.6834C20.1625 12.3812 20.6903 10.9715 20.7483 10.8216C21.7542 8.09483 25.1599 8.06055 25.3222 8.06055H25.3235L25.3222 8.94324L25.3242 9.82594C25.3006 9.82594 22.9837 9.85888 22.4053 11.4367L22.3979 11.4562C22.3939 11.4663 21.9461 12.628 22.0094 13.5799L22.0107 13.6048L22.1117 16.2697C22.1649 16.5346 22.4134 17.6781 22.8605 18.4747L24.0496 19.8294C24.1122 19.8966 24.5478 20.3336 25.2804 20.2986L25.3625 22.0627C25.308 22.0653 25.2541 22.0667 25.2016 22.0667H25.2023Z" fill="#333333"/>
<path d="M17.2672 57.2836C16.5737 57.2836 16.0829 57.2776 16.0297 57.2769L16.0532 55.5115C16.0882 55.5115 19.5942 55.5566 21.3779 55.4019L21.419 55.3993C21.528 55.3945 24.1001 55.291 25.3222 55.291V57.0571C24.1904 57.0571 21.757 57.1532 21.5105 57.1626C20.3161 57.2648 18.4812 57.2843 17.2672 57.2843V57.2836Z" fill="#333333"/>
<path d="M34.7268 24.0356L33.098 23.3472C34.5941 19.8204 34.8648 16.8806 34.8278 15.0352C34.788 13.0345 34.3894 11.8506 34.3861 11.8392L34.3652 11.7794L34.3524 11.7142C33.304 6.16185 34.7719 4.61899 35.0769 4.36621L36.2067 5.72487C36.2384 5.69865 36.2518 5.68386 36.2518 5.68319C36.2417 5.69462 35.2452 6.85766 36.0795 11.3289C36.2963 12.0039 37.7116 16.9975 34.7261 24.0356H34.7268Z" fill="#333333"/>
<path d="M29.3213 32.0762C28.7005 32.0762 28.3301 31.7232 28.1962 31.3978L28.1376 31.2553L28.1308 31.102C28.1281 31.0449 28.0743 29.6768 28.6655 28.0103C29.4519 25.7938 31.01 24.0681 33.1727 23.0193L33.1915 23.0106C33.4043 22.9138 38.428 20.6717 41.5071 23.6613C41.6458 23.7803 42.0013 24.1218 42.3508 24.7484C42.8679 25.6761 43.1433 26.7982 43.1695 28.0842V28.1158L43.1682 28.1474C43.1628 28.257 43.1103 28.8365 42.6343 29.4987C42.0491 30.3121 41.0984 30.899 39.8076 31.2439L39.7558 31.258L39.7026 31.2654C39.506 31.293 34.8486 31.9424 31.4981 31.8375H31.486C30.8666 31.8099 30.14 31.8496 29.9064 31.9215L29.7569 32.0405L29.4984 32.0668C29.4371 32.0728 29.3785 32.0762 29.3213 32.0762ZM33.9336 24.6139C32.2011 25.4576 30.9972 26.778 30.3555 28.538C30.138 29.135 30.0229 29.6869 29.963 30.1192C30.3966 30.0607 30.9292 30.0452 31.5594 30.0728C34.5719 30.1656 38.8737 29.5962 39.4023 29.5242C41.1004 29.0556 41.3637 28.2187 41.4001 28.0519C41.3395 25.937 40.456 25.0906 40.3598 25.0045L40.312 24.9702L40.2924 24.9447C38.1311 22.819 34.1362 24.5252 33.9336 24.6139Z" fill="#333333"/>
<path d="M36.2981 36.2767C35.171 36.2767 33.7934 36.1274 32.1356 35.7187L32.1181 35.714C31.9794 35.677 28.7098 34.7647 28.2297 31.7509L28.2189 31.6824V31.1889H29.9877V31.5378C30.3183 33.3153 32.44 33.9688 32.5753 34.0084C37.2967 35.1708 39.2742 33.9392 39.4224 33.8404C41.645 31.9647 41.4073 28.204 41.4046 28.1657L43.1687 28.0366C43.1829 28.2282 43.4839 32.7593 40.5334 35.2145L40.5165 35.2279C40.3367 35.3698 39.0803 36.2767 36.3002 36.2767H36.2981Z" fill="#333333"/>
<path d="M24.9595 50.6534L24.5891 48.927C28.386 48.1149 29.7872 47.2241 30.1966 46.8994C30.1919 46.5337 30.0148 45.8009 28.9725 44.1471C28.289 43.0627 27.7578 41.2059 27.3935 38.6271C27.1505 36.9067 27.0656 35.4553 27.0508 35.185C26.9054 34.1544 27.0387 33.2502 27.2669 32.5168C26.5162 32.6714 25.6287 32.7749 24.7123 32.7111L24.8356 30.9497C26.7646 31.0842 28.6345 30.2653 28.6533 30.2573C29.0337 30.0885 29.4815 30.2075 29.7273 30.543C29.973 30.8791 29.9515 31.3396 29.6747 31.6502C29.631 31.7006 28.5173 33.0122 28.8068 34.9706C28.8109 34.9988 28.8136 35.0277 28.8149 35.0566C28.8964 36.7232 29.3529 41.4352 30.4693 43.2066C32.0624 45.7343 32.0489 46.7327 31.9115 47.4695C31.8893 47.5885 31.8429 47.7014 31.7755 47.8009C31.6712 47.9562 31.321 48.373 30.3373 48.8974C29.0755 49.5697 27.2663 50.1599 24.9595 50.6534Z" fill="#333333"/>
<path d="M30.2364 47.6696C29.7381 46.565 28.7113 45.8154 27.1835 45.441C25.948 45.1378 24.8478 45.2077 24.8363 45.2084L24.7118 43.447C24.9319 43.4316 30.1179 43.1055 31.849 46.9442L30.2364 47.6696Z" fill="#333333"/>
<path d="M24.8214 36.3149C24.7824 36.3149 24.7574 36.3149 24.7487 36.3142L24.7972 34.5488C25.3224 34.5603 26.8145 34.4009 27.3935 33.5337L28.8654 34.5125C27.7194 36.2309 25.2847 36.3149 24.8214 36.3149Z" fill="#333333"/>
<path d="M24.9321 41.1669L24.6176 39.4291C25.8518 39.2052 27.1736 38.732 27.3897 38.4375C27.3809 38.4489 27.3567 38.4947 27.3493 38.5626L29.1053 38.771C28.9774 39.8486 27.69 40.3925 26.7325 40.7078C25.8363 41.0029 24.9691 41.1609 24.9327 41.1676L24.9321 41.1669Z" fill="#333333"/>
<path d="M24.785 72.2402L24.7635 70.4748C27.3834 70.4432 30.88 67.6963 30.915 67.6687L30.9345 67.6533C36.4019 63.5625 39.1093 58.9359 39.1363 58.8895C41.466 54.8922 43.3028 48.6662 43.3836 48.3879C44.5666 43.9139 45.3989 38.9331 45.4312 38.7401L45.9267 35.4662C47.1266 26.5189 44.4017 18.4556 44.3741 18.375L44.3707 18.3642C42.8032 13.6173 40.7145 10.5154 39.2386 8.74935C37.6415 6.83807 36.3985 6.03605 36.3857 6.02865L36.3251 5.98966L36.2692 5.93991C31.5391 1.71064 24.9284 2.31435 24.8625 2.32107L24.6867 0.563744C24.7628 0.556349 26.5835 0.382229 29.0573 0.789627C32.3209 1.32677 35.2034 2.63636 37.3977 4.57923C38.0657 5.0236 42.9917 8.55438 46.0486 17.8069C46.0991 17.9534 46.794 20.0173 47.3448 23.2173C47.8605 26.2143 48.3366 30.814 47.6794 35.7082L47.6774 35.723L47.1778 39.0218C47.169 39.0736 46.3153 44.2232 45.0918 48.8498L45.0864 48.8693C45.0083 49.1389 43.1486 55.5187 40.6674 59.7749C40.5529 59.9732 37.7546 64.7551 32.0058 69.0597C31.7324 69.2755 27.9611 72.2025 24.7857 72.2409L24.785 72.2402Z" fill="#333333"/>
<path d="M34.6124 57.3479C34.1788 57.3479 33.6657 57.2706 33.1634 57.0104L33.9768 55.4427C34.4724 55.6988 35.0871 55.5261 35.1417 55.5099L35.1841 55.4945L35.2164 55.4884C35.6978 55.3741 36.0958 55.003 36.3994 54.3859C36.6607 53.8541 36.7469 53.3425 36.7516 53.3116C36.9347 52.0558 38.447 49.5865 38.7487 49.1038L38.7574 49.0904C39.1587 48.4732 39.2119 48.0329 39.2186 47.9569L39.2159 47.9052L39.2227 47.8863L39.5061 44.8732C39.8576 42.4598 40.2044 41.4863 40.9127 39.8392C42.4816 36.1915 45.8947 33.6906 46.0394 33.5864L47.0784 35.0157C47.0467 35.0385 43.9104 37.3444 42.5381 40.5364C41.914 41.9878 41.5982 42.7905 41.2595 45.1058L40.9861 48.0228C40.976 48.2655 40.8918 49.048 40.2448 50.0457C39.5755 51.118 38.5945 52.9156 38.5015 53.5677C38.4827 53.6955 38.0282 56.6104 35.6594 57.1994C35.5167 57.243 35.1188 57.3493 34.6117 57.3493L34.6124 57.3479Z" fill="#333333"/>
<path d="M25.111 61.3771C24.8794 61.3771 24.738 61.3677 24.7104 61.3657L24.8356 59.6043C24.8666 59.607 28.011 59.7919 30.6996 57.8208L30.7185 57.8073C31.2598 57.4322 31.853 57.0107 32.3432 56.6524C32.1951 56.5764 32.0483 56.4944 31.9102 56.4063L29.3617 54.9119C28.7301 54.5199 27.4798 53.8665 26.8145 53.7804L26.7445 53.7683C26.6623 53.7522 26.3762 53.7186 26.1217 53.7697L26.0564 53.7804C25.8382 53.808 25.0955 53.894 24.6787 53.849L24.8679 52.093C25.0066 52.1085 25.4659 52.0735 25.8059 52.0318C26.3822 51.9229 26.9135 52.0036 27.0697 52.0325C28.3113 52.206 30.0431 53.256 30.2848 53.4053L32.8482 54.9085C33.3283 55.2164 34.0649 55.4725 34.3079 55.5451L34.8574 55.7098L34.9308 56.2779C35.0021 56.8298 34.615 57.1344 34.1679 57.4867C33.9248 57.6783 33.5875 57.9304 33.1653 58.2362C32.5001 58.7183 31.8247 59.1875 31.7358 59.2494C29.091 61.1842 26.1634 61.3751 25.1097 61.3751L25.111 61.3771Z" fill="#333333"/>
<path d="M24.8941 22.0669C24.8409 22.0669 24.787 22.0655 24.7331 22.0628L24.8153 20.2988C25.595 20.3358 26.0401 19.8369 26.0441 19.8322L26.0636 19.8094L27.2352 18.4749C27.6823 17.6789 27.9308 16.5361 27.984 16.2699L28.0863 13.5801C28.1496 12.6282 27.7018 11.4665 27.6971 11.455L27.6904 11.4369C27.112 9.85906 24.7951 9.82679 24.7715 9.82612L24.7729 8.06006H24.7742C24.9365 8.06006 28.3422 8.09434 29.3481 10.8211C29.406 10.9717 29.9339 12.3814 29.8518 13.683L29.746 16.4668L29.7346 16.5287C29.7218 16.5993 29.4134 18.2645 28.7185 19.4396L28.6768 19.5109L27.4015 20.9637C27.0453 21.3892 26.1417 22.0662 24.8941 22.0662V22.0669Z" fill="#333333"/>
<path d="M32.8294 57.2833C31.6154 57.2833 29.7812 57.2638 28.5861 57.1616C28.3396 57.1516 25.9056 57.0561 24.7744 57.0561V55.29C25.9971 55.29 28.5686 55.3936 28.6776 55.3983L28.7187 55.401C30.503 55.5563 34.0084 55.5112 34.0434 55.5105L34.0669 57.2759C34.0137 57.2766 33.5222 57.2827 32.8294 57.2827V57.2833Z" fill="#333333"/>
<path d="M3.42676 85.2539L1.53613 92H0.171875L2.65332 84.1797H3.50195L3.42676 85.2539ZM4.93604 92L3.04004 85.2539L2.94873 84.1797H3.81348L6.30566 92H4.93604ZM4.96826 89.0942V90.1899H1.32666V89.0942H4.96826ZM7.31264 84.1797H9.67592C10.1915 84.1797 10.6284 84.2692 10.9865 84.4482C11.3445 84.6273 11.6167 84.8923 11.8029 85.2432C11.9926 85.5905 12.0875 86.022 12.0875 86.5376C12.0875 86.9279 12.0285 87.2716 11.9103 87.5688C11.7957 87.866 11.6292 88.1167 11.4108 88.3208C11.1924 88.5213 10.9292 88.6771 10.6212 88.7881L10.2399 88.9976H8.24184L8.23646 87.9019H9.64369C9.89792 87.9019 10.1092 87.8464 10.2775 87.7354C10.4458 87.6243 10.5711 87.4704 10.6535 87.2734C10.7394 87.0765 10.7824 86.8527 10.7824 86.6021C10.7824 86.3335 10.7448 86.1007 10.6696 85.9038C10.5944 85.7033 10.4762 85.5493 10.3151 85.4419C10.1539 85.3309 9.94089 85.2754 9.67592 85.2754H8.61781V92H7.31264V84.1797ZM10.9542 92L9.46645 88.4873L10.8253 88.4819L12.3507 91.9302V92H10.9542ZM15.8875 84.1797V92H14.5877V84.1797H15.8875ZM17.8802 84.1797V85.2754H12.6165V84.1797H17.8802ZM22.2978 89.9805C22.2978 89.8193 22.2799 89.6761 22.2441 89.5508C22.2118 89.4219 22.1492 89.3055 22.0561 89.2017C21.963 89.0978 21.8305 88.9958 21.6586 88.8955C21.4903 88.7952 21.2719 88.6932 21.0033 88.5894C20.6954 88.4712 20.4071 88.3423 20.1386 88.2026C19.8736 88.0594 19.6391 87.8983 19.435 87.7192C19.2345 87.5366 19.0769 87.3236 18.9623 87.0801C18.8477 86.8366 18.7904 86.5537 18.7904 86.2314C18.7904 85.9128 18.846 85.6227 18.957 85.3613C19.0715 85.0964 19.2327 84.869 19.4404 84.6792C19.6516 84.4858 19.9023 84.3372 20.1923 84.2334C20.4823 84.126 20.8028 84.0723 21.1537 84.0723C21.6586 84.0723 22.0901 84.1797 22.4482 84.3945C22.8098 84.6094 23.0855 84.8976 23.2753 85.2593C23.4687 85.6209 23.5654 86.022 23.5654 86.4624H22.2655C22.2655 86.2082 22.2262 85.9826 22.1474 85.7856C22.0686 85.5887 21.9469 85.4347 21.7821 85.3237C21.6174 85.2127 21.4044 85.1572 21.143 85.1572C20.9031 85.1572 20.7043 85.2038 20.5468 85.2969C20.3928 85.39 20.2782 85.5171 20.203 85.6782C20.1314 85.8394 20.0956 86.0238 20.0956 86.2314C20.0956 86.3747 20.1261 86.5054 20.1869 86.6235C20.2478 86.7381 20.3355 86.8438 20.4501 86.9404C20.5647 87.0371 20.7043 87.1284 20.8691 87.2144C21.0338 87.3003 21.2236 87.3826 21.4384 87.4614C21.8036 87.5939 22.1223 87.7407 22.3945 87.9019C22.6666 88.063 22.8904 88.2438 23.0658 88.4443C23.2449 88.6413 23.3774 88.8651 23.4633 89.1157C23.5528 89.3664 23.5976 89.651 23.5976 89.9697C23.5976 90.292 23.5421 90.5856 23.4311 90.8506C23.3237 91.112 23.1661 91.3358 22.9584 91.522C22.7507 91.7082 22.5001 91.8532 22.2065 91.957C21.9128 92.0573 21.5834 92.1074 21.2182 92.1074C20.8816 92.1074 20.5575 92.0573 20.246 91.957C19.9381 91.8568 19.6624 91.7046 19.4189 91.5005C19.1754 91.2928 18.982 91.0332 18.8388 90.7217C18.6991 90.4102 18.6293 90.0449 18.6293 89.626H19.9345C19.9345 89.8766 19.9649 90.0915 20.0258 90.2705C20.0867 90.446 20.1744 90.591 20.289 90.7056C20.4071 90.8166 20.545 90.8989 20.7026 90.9526C20.8637 91.0028 21.0427 91.0278 21.2397 91.0278C21.4832 91.0278 21.6819 90.9849 21.8359 90.8989C21.9934 90.8094 22.1098 90.6859 22.185 90.5283C22.2602 90.3708 22.2978 90.1882 22.2978 89.9805ZM27.7252 84.1797L25.19 92.6714H24.2232L26.7637 84.1797H27.7252ZM5.02197 103.435V104.53H1.72949V103.435H5.02197ZM2.03564 100.18V108H0.730469V100.18H2.03564ZM6.04248 100.18V108H4.74268V100.18H6.04248ZM8.98842 100.18V108H7.68324V100.18H8.98842ZM13.97 105.98C13.97 105.819 13.9521 105.676 13.9163 105.551C13.8841 105.422 13.8214 105.306 13.7283 105.202C13.6352 105.098 13.5027 104.996 13.3308 104.896C13.1625 104.795 12.9441 104.693 12.6756 104.589C12.3676 104.471 12.0794 104.342 11.8108 104.203C11.5458 104.059 11.3113 103.898 11.1072 103.719C10.9067 103.537 10.7491 103.324 10.6346 103.08C10.52 102.837 10.4627 102.554 10.4627 102.231C10.4627 101.913 10.5182 101.623 10.6292 101.361C10.7438 101.096 10.9049 100.869 11.1126 100.679C11.3238 100.486 11.5745 100.337 11.8645 100.233C12.1546 100.126 12.475 100.072 12.826 100.072C13.3308 100.072 13.7623 100.18 14.1204 100.395C14.482 100.609 14.7578 100.898 14.9475 101.259C15.1409 101.621 15.2376 102.022 15.2376 102.462H13.9378C13.9378 102.208 13.8984 101.983 13.8196 101.786C13.7408 101.589 13.6191 101.435 13.4544 101.324C13.2897 101.213 13.0766 101.157 12.8152 101.157C12.5753 101.157 12.3766 101.204 12.219 101.297C12.0651 101.39 11.9505 101.517 11.8753 101.678C11.8037 101.839 11.7679 102.024 11.7679 102.231C11.7679 102.375 11.7983 102.505 11.8592 102.624C11.92 102.738 12.0078 102.844 12.1223 102.94C12.2369 103.037 12.3766 103.128 12.5413 103.214C12.706 103.3 12.8958 103.383 13.1106 103.461C13.4759 103.594 13.7945 103.741 14.0667 103.902C14.3388 104.063 14.5626 104.244 14.7381 104.444C14.9171 104.641 15.0496 104.865 15.1355 105.116C15.225 105.366 15.2698 105.651 15.2698 105.97C15.2698 106.292 15.2143 106.586 15.1033 106.851C14.9959 107.112 14.8383 107.336 14.6306 107.522C14.423 107.708 14.1723 107.853 13.8787 107.957C13.5851 108.057 13.2556 108.107 12.8904 108.107C12.5538 108.107 12.2298 108.057 11.9182 107.957C11.6103 107.857 11.3346 107.705 11.0911 107.5C10.8476 107.293 10.6542 107.033 10.511 106.722C10.3714 106.41 10.3015 106.045 10.3015 105.626H11.6067C11.6067 105.877 11.6372 106.091 11.698 106.271C11.7589 106.446 11.8466 106.591 11.9612 106.706C12.0794 106.817 12.2172 106.899 12.3748 106.953C12.5359 107.003 12.715 107.028 12.9119 107.028C13.1554 107.028 13.3541 106.985 13.5081 106.899C13.6656 106.809 13.782 106.686 13.8572 106.528C13.9324 106.371 13.97 106.188 13.97 105.98ZM19.392 100.18V108H18.0922V100.18H19.392ZM21.3847 100.18V101.275H16.121V100.18H21.3847ZM27.6822 103.451V104.783C27.6822 105.334 27.6177 105.818 27.4888 106.233C27.3635 106.648 27.1809 106.996 26.941 107.275C26.7046 107.551 26.4182 107.758 26.0816 107.898C25.7486 108.038 25.3762 108.107 24.9644 108.107C24.5562 108.107 24.1838 108.038 23.8472 107.898C23.5142 107.758 23.226 107.551 22.9825 107.275C22.7426 106.996 22.5564 106.648 22.4239 106.233C22.295 105.818 22.2305 105.334 22.2305 104.783V103.451C22.2305 102.892 22.295 102.403 22.4239 101.984C22.5528 101.562 22.7372 101.209 22.9771 100.926C23.2206 100.643 23.5088 100.43 23.8419 100.287C24.1784 100.144 24.5491 100.072 24.9537 100.072C25.3655 100.072 25.7379 100.144 26.0709 100.287C26.4074 100.43 26.6957 100.643 26.9356 100.926C27.1755 101.209 27.3599 101.562 27.4888 101.984C27.6177 102.403 27.6822 102.892 27.6822 103.451ZM26.3878 104.783V103.44C26.3878 103.042 26.3555 102.702 26.2911 102.419C26.2302 102.133 26.1389 101.9 26.0171 101.721C25.8954 101.539 25.745 101.404 25.566 101.318C25.3905 101.229 25.1864 101.184 24.9537 101.184C24.7281 101.184 24.5258 101.229 24.3467 101.318C24.1713 101.404 24.0209 101.539 23.8956 101.721C23.7738 101.9 23.6807 102.133 23.6163 102.419C23.5554 102.702 23.525 103.042 23.525 103.44V104.783C23.525 105.173 23.5572 105.51 23.6216 105.792C23.6861 106.072 23.7792 106.301 23.9009 106.48C24.0263 106.655 24.1784 106.786 24.3575 106.872C24.5365 106.958 24.7388 107.001 24.9644 107.001C25.1936 107.001 25.3977 106.958 25.5767 106.872C25.7558 106.786 25.9044 106.655 26.0225 106.48C26.1443 106.301 26.2356 106.072 26.2964 105.792C26.3573 105.51 26.3878 105.173 26.3878 104.783ZM29.1188 100.18H31.4821C31.9978 100.18 32.4346 100.269 32.7927 100.448C33.1507 100.627 33.4229 100.892 33.6091 101.243C33.7989 101.59 33.8937 102.022 33.8937 102.538C33.8937 102.928 33.8347 103.272 33.7165 103.569C33.6019 103.866 33.4354 104.117 33.217 104.321C32.9986 104.521 32.7354 104.677 32.4274 104.788L32.0461 104.998H30.048L30.0427 103.902H31.4499C31.7041 103.902 31.9154 103.846 32.0837 103.735C32.252 103.624 32.3773 103.47 32.4597 103.273C32.5456 103.076 32.5886 102.853 32.5886 102.602C32.5886 102.333 32.551 102.101 32.4758 101.904C32.4006 101.703 32.2824 101.549 32.1213 101.442C31.9602 101.331 31.7471 101.275 31.4821 101.275H30.424V108H29.1188V100.18ZM32.7604 108L31.2727 104.487L32.6315 104.482L34.1569 107.93V108H32.7604ZM35.7708 100.18L37.1458 103.886L38.5208 100.18H39.9603L37.8011 105.121V108H36.4852V105.121L34.326 100.18H35.7708ZM43.7817 100.18L41.2466 108.671H40.2798L42.8203 100.18H43.7817ZM48.7042 105.449H50.004C49.979 106.014 49.8644 106.496 49.6603 106.894C49.4562 107.287 49.1626 107.588 48.7794 107.796C48.3999 108.004 47.9362 108.107 47.3883 108.107C46.9729 108.107 46.6005 108.032 46.2711 107.882C45.9453 107.731 45.6678 107.515 45.4386 107.232C45.2094 106.945 45.034 106.596 44.9122 106.185C44.7941 105.773 44.735 105.306 44.735 104.783V103.397C44.735 102.874 44.7959 102.407 44.9176 101.995C45.0429 101.583 45.222 101.234 45.4547 100.948C45.6875 100.661 45.9703 100.445 46.3033 100.298C46.6399 100.147 47.0195 100.072 47.442 100.072C47.9827 100.072 48.4375 100.176 48.8063 100.384C49.1751 100.591 49.4598 100.896 49.6603 101.297C49.8608 101.698 49.9772 102.187 50.0094 102.763H48.7096C48.6917 102.373 48.638 102.061 48.5485 101.829C48.4625 101.592 48.33 101.422 48.151 101.318C47.9755 101.215 47.7392 101.163 47.442 101.163C47.1949 101.163 46.9819 101.209 46.8029 101.302C46.6274 101.395 46.4824 101.535 46.3678 101.721C46.2568 101.904 46.1726 102.135 46.1154 102.414C46.0616 102.69 46.0348 103.014 46.0348 103.386V104.783C46.0348 105.141 46.0581 105.458 46.1046 105.733C46.1512 106.009 46.2264 106.244 46.3302 106.437C46.434 106.627 46.5719 106.772 46.7438 106.872C46.9156 106.969 47.1305 107.017 47.3883 107.017C47.6962 107.017 47.9415 106.969 48.1241 106.872C48.3103 106.775 48.4482 106.612 48.5377 106.383C48.6272 106.154 48.6827 105.843 48.7042 105.449ZM54.8513 100.18H56.1565V105.61C56.1565 106.208 56.0437 106.689 55.8181 107.055C55.5961 107.42 55.2953 107.687 54.9158 107.855C54.5398 108.023 54.1209 108.107 53.6589 108.107C53.1791 108.107 52.7512 108.023 52.3753 107.855C51.9993 107.687 51.7039 107.42 51.489 107.055C51.2742 106.689 51.1668 106.208 51.1668 105.61V100.18H52.4666V105.61C52.4666 105.982 52.5131 106.271 52.6062 106.475C52.7029 106.679 52.839 106.82 53.0144 106.899C53.1935 106.978 53.4083 107.017 53.6589 107.017C53.9096 107.017 54.1227 106.978 54.2981 106.899C54.4771 106.82 54.6132 106.679 54.7063 106.475C54.803 106.271 54.8513 105.982 54.8513 105.61V100.18ZM61.8256 106.91V108H58.5761V106.91H61.8256ZM58.9198 100.18V108H57.6146V100.18H58.9198ZM64.5406 100.18V108H63.2408V100.18H64.5406ZM66.5332 100.18V101.275H61.2696V100.18H66.5332ZM71.2624 100.18H72.5676V105.61C72.5676 106.208 72.4548 106.689 72.2292 107.055C72.0072 107.42 71.7064 107.687 71.3268 107.855C70.9509 108.023 70.5319 108.107 70.07 108.107C69.5902 108.107 69.1623 108.023 68.7863 107.855C68.4103 107.687 68.1149 107.42 67.9001 107.055C67.6852 106.689 67.5778 106.208 67.5778 105.61V100.18H68.8776V105.61C68.8776 105.982 68.9242 106.271 69.0173 106.475C69.1139 106.679 69.25 106.82 69.4255 106.899C69.6045 106.978 69.8193 107.017 70.07 107.017C70.3207 107.017 70.5337 106.978 70.7092 106.899C70.8882 106.82 71.0243 106.679 71.1174 106.475C71.214 106.271 71.2624 105.982 71.2624 105.61V100.18ZM74.0311 100.18H76.3944C76.91 100.18 77.3468 100.269 77.7049 100.448C78.063 100.627 78.3351 100.892 78.5213 101.243C78.7111 101.59 78.806 102.022 78.806 102.538C78.806 102.928 78.7469 103.272 78.6287 103.569C78.5141 103.866 78.3476 104.117 78.1292 104.321C77.9108 104.521 77.6476 104.677 77.3397 104.788L76.9583 104.998H74.9603L74.9549 103.902H76.3621C76.6164 103.902 76.8276 103.846 76.9959 103.735C77.1642 103.624 77.2895 103.47 77.3719 103.273C77.4578 103.076 77.5008 102.853 77.5008 102.602C77.5008 102.333 77.4632 102.101 77.388 101.904C77.3128 101.703 77.1946 101.549 77.0335 101.442C76.8724 101.331 76.6593 101.275 76.3944 101.275H75.3363V108H74.0311V100.18ZM77.6727 108L76.1849 104.487L77.5438 104.482L79.0692 107.93V108H77.6727ZM84.4643 106.91V108H81.0698V106.91H84.4643ZM81.4135 100.18V108H80.1084V100.18H81.4135ZM84.0078 103.435V104.509H81.0698V103.435H84.0078ZM84.4321 100.18V101.275H81.0698V100.18H84.4321Z" fill="#333333"/>
</svg>
