<svg width="451" height="244" viewBox="0 0 451 244" fill="none" xmlns="http://www.w3.org/2000/svg">
<path d="M428.189 23.462C413.195 7.89673 393.71 0 370.28 0C346.851 0 327.089 7.89673 312.2 23.4865C297.376 38.9865 289.862 59.2132 289.862 83.6043V118.386L261.022 4.63699L259.848 0H190.619L189.43 4.61254L162.17 110.367V90.2542C162.17 62.1144 154.787 39.8422 140.232 24.0406C125.53 8.09231 105.858 0 81.7439 0H1V236.397H81.7439C102.753 236.397 120.388 230.382 134.291 218.492L131.659 228.704L129.678 236.389H198.386L199.47 231.597L206.951 198.616H242.8L250.004 231.548L251.063 236.389H319.779L317.839 228.728L316.853 224.841C331.179 237.562 349.116 244 370.28 244C393.718 244 413.195 236.103 428.189 220.53C443.127 205.03 450.698 184.901 450.698 160.722V83.5961C450.698 59.2051 443.127 38.9702 428.189 23.462Z" fill="black" fill-opacity="0.5"/>
<path d="M399.669 27.5611C369.728 12.1996 342.884 26.4284 340.831 27.5693C327.344 34.1621 317.801 46.3862 313.221 62.9457C309.937 74.8274 310.303 84.8348 310.352 85.9676V163.973C310.352 170.884 304.729 176.507 297.818 176.507H227.946C222.315 176.507 217.873 175.195 215.771 172.913C214.565 171.609 214.067 169.906 214.247 167.714C214.597 163.354 218.802 161.406 227.498 161.398H250.634C258.196 161.398 262.067 158.505 263.974 156.068C265.954 153.55 267.91 148.889 265.995 141.008L242.655 44.9682C238.923 30.4705 230.945 27.4226 224.914 27.4226C211.199 27.4226 207.287 44.3488 207.165 44.9356L178.17 152.165C171.365 176.939 154.593 174.975 153.909 174.885L153.632 174.861C138.702 174.021 138.653 157.682 138.792 154.414V74.7459C138.792 52.3678 128.45 35.9468 108.867 27.2515C101.663 24.0488 89.3497 20.2349 71.5759 20.2349H19.8112L19.9171 200.238C19.8682 201.289 19.7297 208.029 23.951 212.552C26.4284 215.2 29.8023 216.545 33.8281 216.545H33.8444C34.4067 216.577 39.4674 216.708 43.5421 212.821C46.647 209.862 48.2198 205.519 48.2198 199.904V47.47H76.7752H76.9382C78.3154 47.3967 110.774 46.0439 113.129 75.1616C113.17 76.7099 113.219 127.269 113.235 153.787C113.235 155.482 114.613 156.859 116.308 156.859C118.003 156.859 119.38 155.482 119.38 153.778C119.356 118.101 119.315 75.4305 119.258 74.7948C116.487 40.4779 79.0326 41.2358 76.71 41.3173H45.2046C45.2046 41.3173 45.1638 41.3173 45.1394 41.3173H42.0671V199.904C42.0671 203.734 41.1543 206.562 39.3533 208.314C37.1448 210.457 34.1459 210.392 33.9992 210.392C31.5625 210.392 29.7534 209.732 28.4658 208.363C25.8009 205.535 26.0617 200.556 26.0617 200.523V200.417L25.9721 26.3795H71.5759C89.9364 26.3795 132.647 31.0898 132.647 74.7378V154.145C132.134 165.954 137.219 180.06 153.224 180.997C155.612 181.234 176.246 182.375 184.102 153.787L213.13 46.4188C213.163 46.2884 216.137 33.5835 224.906 33.5835C230.521 33.5835 234.482 37.9353 236.682 46.4677L260.014 142.467C260.747 145.491 261.195 149.647 259.133 152.271C257.577 154.243 254.716 155.245 250.626 155.245H227.53C219.112 155.148 208.925 157.226 208.118 167.217C207.801 171.161 208.852 174.478 211.256 177.077C215.73 181.926 223.635 182.652 227.954 182.652H297.827C308.127 182.652 316.513 174.274 316.513 163.965V85.7068C316.489 85.3238 314.769 47.0707 343.61 33.0457L343.773 32.956C344.025 32.8175 369.394 18.9228 396.841 32.9968C397.958 33.5917 424.264 47.9101 424.264 85.3401L422.724 169.662C422.724 169.955 422.707 199.219 394.087 214.434C391.797 215.526 384.894 217.995 380.551 216.341C378.994 215.746 377.935 214.703 377.234 213.041C376.403 211.077 376.338 209.284 377.047 207.556C378.538 203.921 383.191 201.289 384.968 200.531C387.201 199.773 406.824 192.154 406.824 158.065V76.8892C406.841 76.2617 407.167 61.4951 397.004 51.0313C390.632 44.4629 381.667 41.1217 370.364 41.1054C368.791 41.0157 354.815 40.486 344.498 50.0697C337.408 56.6544 333.814 66.3276 333.814 78.8125V136.469C333.814 138.164 335.191 139.541 336.886 139.541C338.582 139.541 339.959 138.164 339.959 136.469V78.8125C339.959 68.1368 342.876 59.9956 348.638 54.617C357.35 46.4839 369.916 47.2337 370.038 47.25H370.266C379.866 47.2581 387.364 49.9556 392.555 55.2771C400.908 63.8421 400.68 76.5877 400.68 76.7996V158.065C400.68 188.641 383.696 194.484 382.996 194.713L382.735 194.802C382.384 194.941 374.194 198.355 371.375 205.193C370.022 208.477 370.087 211.924 371.578 215.436C372.923 218.615 375.278 220.913 378.391 222.086C380.208 222.771 382.14 223.04 384.055 223.04C390.126 223.04 395.961 220.359 396.866 219.919C428.868 202.903 428.901 170.941 428.885 169.678L430.425 85.389C430.425 44.0554 400.965 28.1968 399.685 27.5285L399.669 27.5611Z" fill="url(#paint0_linear_1512_4468)"/>
<path d="M93.1472 66.303C88.388 62.1713 82.1944 60.1177 74.5666 60.1177H63.1412V176.922H74.5666C81.9744 176.922 88.1027 174.91 92.976 170.892C97.8494 166.874 100.286 158.831 100.286 146.77V90.5881C100.286 78.5271 97.9064 70.4266 93.1472 66.303ZM94.1333 146.77C94.1333 156.565 92.3322 163.452 89.0643 166.149C85.2912 169.262 80.5483 170.77 74.5666 170.77H69.294V66.2623H74.5666C80.7194 66.2623 85.4786 67.7944 89.1132 70.9482C92.3485 73.7516 94.1333 80.7274 94.1333 90.5881V146.77Z" fill="url(#paint1_linear_1512_4468)"/>
<path d="M428.004 23.462C413.01 7.89673 393.524 0 370.095 0C346.666 0 326.903 7.89673 312.015 23.4865C297.191 38.9865 289.677 59.2132 289.677 83.6043V118.386L260.837 4.63699L259.663 0H190.434L189.244 4.61254L161.985 110.367V90.2542C161.985 62.1144 154.602 39.8422 140.047 24.0406C125.345 8.09231 105.673 0 81.5588 0H0.814941V236.397H81.5588C102.568 236.397 120.203 230.382 134.106 218.492L131.474 228.704L129.493 236.389H198.201L199.284 231.597L206.766 198.616H242.615L249.819 231.548L250.878 236.389H319.593L317.654 228.728L316.668 224.841C330.994 237.562 348.931 244 370.095 244C393.533 244 413.01 236.103 428.004 220.53C442.942 205.03 450.513 184.901 450.513 160.722V83.5961C450.513 59.2051 442.942 38.9702 428.004 23.462ZM444.368 160.722C444.368 183.369 437.441 201.884 423.579 216.268C409.717 230.668 391.895 237.855 370.095 237.855C348.296 237.855 330.473 230.668 316.611 216.268C310.988 210.433 306.522 203.905 303.181 196.709L311.68 230.244H255.817L247.561 192.472H201.852L193.287 230.244H137.423L147.732 190.255C144.578 197.206 140.511 203.351 135.508 208.664C121.971 223.056 103.978 230.244 81.5507 230.244H6.96771V6.15277H81.5588C103.986 6.15277 121.98 13.5116 135.516 28.2131C149.068 42.9227 155.832 63.5976 155.832 90.2623V147.397C155.832 152.36 155.596 157.112 155.115 161.643L195.193 6.15277H254.871L296.14 168.928C295.928 166.255 295.822 163.525 295.822 160.722V83.5961C295.822 60.7453 302.7 42.124 316.456 27.7323C330.204 13.3487 348.084 6.15277 370.095 6.15277C392.107 6.15277 409.717 13.3487 423.579 27.7323C437.441 42.124 444.368 60.7453 444.368 83.5961V160.722Z" fill="url(#paint2_linear_1512_4468)"/>
<path d="M225.028 80.7441L212.649 143.91H236.771L225.028 80.7441ZM224.873 113.537L229.38 137.757H220.13L224.873 113.537Z" fill="url(#paint3_linear_1512_4468)"/>
<path d="M388.504 162.628V81.697C388.504 73.018 386.809 67.2482 383.419 64.3959C380.029 61.5437 375.596 60.1094 370.087 60.1094C364.578 60.1094 360.137 61.5355 356.755 64.3959C353.364 67.2482 351.669 73.018 351.669 81.697V162.628C351.669 176.808 357.806 183.898 370.079 183.898C382.352 183.898 388.488 176.816 388.488 162.628H388.504ZM382.352 162.628C382.352 175.912 376.46 177.745 370.095 177.745C359.925 177.745 357.838 171.707 357.838 162.628V81.697C357.838 72.2682 360.055 69.6686 360.731 69.0981C362.989 67.1912 366.053 66.2621 370.095 66.2621C374.137 66.2621 377.193 67.1912 379.459 69.0981C380.135 69.6686 382.352 72.2682 382.352 81.697V162.628Z" fill="url(#paint4_linear_1512_4468)"/>
<defs>
<linearGradient id="paint0_linear_1512_4468" x1="225.118" y1="20.2349" x2="225.118" y2="223.04" gradientUnits="userSpaceOnUse">
<stop stop-color="#A68647"/>
<stop offset="1" stop-color="#AAA08C"/>
</linearGradient>
<linearGradient id="paint1_linear_1512_4468" x1="81.7136" y1="60.1177" x2="81.7136" y2="176.922" gradientUnits="userSpaceOnUse">
<stop stop-color="#A68647"/>
<stop offset="1" stop-color="#AAA08C"/>
</linearGradient>
<linearGradient id="paint2_linear_1512_4468" x1="225.664" y1="0" x2="225.664" y2="244" gradientUnits="userSpaceOnUse">
<stop stop-color="#A68647"/>
<stop offset="1" stop-color="#AAA08C"/>
</linearGradient>
<linearGradient id="paint3_linear_1512_4468" x1="224.71" y1="80.7441" x2="224.71" y2="143.91" gradientUnits="userSpaceOnUse">
<stop stop-color="#A68647"/>
<stop offset="1" stop-color="#AAA08C"/>
</linearGradient>
<linearGradient id="paint4_linear_1512_4468" x1="370.087" y1="60.1094" x2="370.087" y2="183.898" gradientUnits="userSpaceOnUse">
<stop stop-color="#A68647"/>
<stop offset="1" stop-color="#AAA08C"/>
</linearGradient>
</defs>
</svg>
