<svg width="97" height="37" viewBox="0 0 97 37" fill="none" xmlns="http://www.w3.org/2000/svg">
<path d="M8.26 25.1787H1.68V5.41071H8.26C10.2387 5.41071 11.8253 6.06404 13.02 7.37071C14.2147 8.65871 14.812 10.4787 14.812 12.8307V17.8707C14.812 20.204 14.2147 22.0054 13.02 23.2747C11.8253 24.544 10.2387 25.1787 8.26 25.1787ZM7.644 10.1707H6.636V20.4747H7.644C8.29733 20.4747 8.83867 20.2974 9.268 19.9427C9.69733 19.588 9.912 18.8787 9.912 17.8147V12.8587C9.912 11.7947 9.69733 11.0854 9.268 10.7307C8.85733 10.3574 8.316 10.1707 7.644 10.1707ZM19.7494 5.41071V25.1787H14.8214V5.41071H19.7494ZM26.3546 11.9907L25.2626 17.5627H27.3906L26.3546 11.9907ZM29.0706 25.1787L28.3426 21.8467H24.3106L23.5546 25.1787H18.6266L23.7226 5.41071H28.9866L33.9986 25.1787H29.0706ZM38.3123 5.04671C40.179 5.04671 41.7096 5.66271 42.9043 6.89471C44.1176 8.10804 44.7243 9.67604 44.7243 11.5987H39.8803C39.8803 10.348 39.3576 9.72271 38.3123 9.72271C37.883 9.72271 37.5096 9.83471 37.1923 10.0587C36.875 10.264 36.7163 10.6 36.7163 11.0667C36.7163 11.5147 36.9216 11.9067 37.3323 12.2427C37.743 12.56 38.2563 12.812 38.8723 12.9987C39.4883 13.1667 40.151 13.4094 40.8603 13.7267C41.5696 14.044 42.2323 14.3987 42.8483 14.7907C43.4643 15.164 43.9776 15.7427 44.3883 16.5267C44.799 17.292 45.0043 18.216 45.0043 19.2987C45.0043 21.1654 44.379 22.668 43.1283 23.8067C41.8963 24.9454 40.291 25.5147 38.3123 25.5147C36.3523 25.5147 34.747 24.8894 33.4963 23.6387C32.2456 22.3694 31.6203 20.736 31.6203 18.7387H36.5203C36.5203 20.0454 37.1176 20.6987 38.3123 20.6987C39.4883 20.6987 40.0763 20.232 40.0763 19.2987C40.0763 18.8134 39.787 18.4027 39.2083 18.0667C38.6483 17.712 37.967 17.3947 37.1643 17.1147C36.3616 16.8347 35.559 16.4987 34.7563 16.1067C33.9536 15.696 33.263 15.0614 32.6843 14.2027C32.1243 13.344 31.8443 12.2987 31.8443 11.0667C31.8443 9.25604 32.4416 7.80004 33.6363 6.69871C34.831 5.59738 36.3896 5.04671 38.3123 5.04671ZM49.5493 25.1787H44.5933V5.41071H51.0893C53.0493 5.41071 54.6266 6.06404 55.8213 7.37071C57.0159 8.65871 57.6133 10.4787 57.6133 12.8307V13.6427C57.6133 15.976 57.0159 17.7774 55.8213 19.0467C54.6453 20.316 53.0679 20.9507 51.0893 20.9507H49.5493V25.1787ZM50.4453 10.1707H49.5493V16.2467H50.4453C51.9759 16.2467 52.7413 15.36 52.7413 13.5867V12.8587C52.7413 11.7947 52.5266 11.0854 52.0973 10.7307C51.6679 10.3574 51.1173 10.1707 50.4453 10.1707ZM67.8838 23.5827C66.6705 24.852 65.1025 25.4867 63.1798 25.4867C61.2571 25.4867 59.6798 24.852 58.4478 23.5827C57.2345 22.3134 56.6278 20.68 56.6278 18.6827V11.8787C56.6278 9.86271 57.2345 8.22004 58.4478 6.95071C59.6611 5.68138 61.2385 5.04671 63.1798 5.04671C65.1025 5.04671 66.6705 5.68138 67.8838 6.95071C69.1158 8.22004 69.7318 9.86271 69.7318 11.8787V18.6827C69.7318 20.68 69.1158 22.3134 67.8838 23.5827ZM64.3558 10.1987C64.0571 9.93738 63.6651 9.80671 63.1798 9.80671C62.6945 9.80671 62.3025 9.93738 62.0038 10.1987C61.7051 10.4414 61.5558 10.9454 61.5558 11.7107V18.8507C61.5558 20.1014 62.0971 20.7267 63.1798 20.7267C64.2625 20.7267 64.8038 20.1014 64.8038 18.8507V11.7107C64.8038 10.9454 64.6545 10.4414 64.3558 10.1987ZM74.6837 25.1787H69.7277V5.41071H76.1957C78.1743 5.41071 79.761 6.06404 80.9557 7.37071C82.1503 8.65871 82.7477 10.4787 82.7477 12.8307V13.3627C82.7477 16.144 81.8983 18.1787 80.1997 19.4667L82.5797 25.1787H77.2317L75.7197 20.6707H74.6837V25.1787ZM75.5797 10.1707H74.6837V15.9667H75.5797C76.233 15.9667 76.7743 15.7894 77.2037 15.4347C77.633 15.08 77.8477 14.3707 77.8477 13.3067V12.8587C77.8477 11.7947 77.633 11.0854 77.2037 10.7307C76.793 10.3574 76.2517 10.1707 75.5797 10.1707ZM88.3702 11.9907L87.2782 17.5627H89.4062L88.3702 11.9907ZM91.0862 25.1787L90.3582 21.8467H86.3262L85.5702 25.1787H80.6422L85.7382 5.41071H91.0022L96.0142 25.1787H91.0862Z" fill="#A68648"/>
</svg>
