<svg width="28" height="28" viewBox="0 0 28 28" fill="none" xmlns="http://www.w3.org/2000/svg">
<path d="M26.714 23.8819C26.1215 22.3232 18.5104 14.5237 17.945 13.9591C17.9727 13.916 17.9837 13.8904 18.0019 13.8722C19.0006 12.873 19.9971 11.8716 21.0031 10.8804C21.0703 10.8146 21.2121 10.7898 21.3136 10.8C21.6212 10.8307 21.9244 10.9162 22.2312 10.9308C25.925 11.109 28.6975 7.76074 27.8449 4.16268C27.7419 3.72735 27.4993 3.42203 27.0668 3.29421C26.6322 3.16566 26.261 3.29421 25.9461 3.61194C25.5867 3.97423 25.2236 4.33287 24.8642 4.69516C24.4814 5.08082 24.1 5.46795 23.7428 5.8295C23.2058 5.29995 22.6951 4.79669 22.1713 4.28028C22.9179 3.53671 23.6814 2.79241 24.4266 2.02985C25.0629 1.37831 24.7699 0.391513 23.8859 0.175308C23.2438 0.0182669 22.595 -0.0292104 21.9339 0.0452926C18.6938 0.411964 16.5021 3.47243 17.2115 6.66218C17.2509 6.83968 17.2027 6.94632 17.0807 7.06684C16.1288 8.00981 15.1834 8.95936 14.2351 9.90599C14.1803 9.96077 14.1182 10.009 14.0342 10.0813C13.8655 9.90088 13.7142 9.73069 13.5535 9.56999C10.5056 6.52121 7.45618 3.47389 4.40679 0.426573C3.83987 -0.140235 3.22546 -0.141695 2.66292 0.419269C1.96596 1.1139 1.26242 1.80342 0.579341 2.51193C0.357248 2.74201 0.191409 3.02614 0 3.28617V3.77848C0.189948 4.03924 0.349942 4.32995 0.575688 4.55565C3.6565 7.64825 6.74534 10.7321 9.83492 13.8167C9.9109 13.8926 10.0124 13.943 10.1118 14.0117C10.0081 14.1242 9.96204 14.1782 9.91163 14.2286C8.95823 15.1826 8.00265 16.1343 7.05218 17.0919C6.93675 17.208 6.83593 17.2409 6.66936 17.2029C3.5418 16.4827 0.447839 18.6491 0.0496787 21.8301C0.0409119 21.901 0.0168031 21.9704 0 22.0405V23.0244C0.0533315 23.2902 0.107394 23.5554 0.159264 23.8213C0.247663 24.2719 0.501901 24.5824 0.945356 24.7116C1.39246 24.8417 1.76432 24.6941 2.08504 24.3698C2.81488 23.6306 3.54983 22.8973 4.27017 22.1749C4.78523 22.6949 5.28932 23.2041 5.81021 23.73C5.76857 23.7745 5.69771 23.8527 5.62319 23.9272C4.95983 24.5911 4.29867 25.2573 3.63093 25.9168C3.29779 26.2463 3.15387 26.6268 3.29487 27.0819C3.42783 27.5121 3.73759 27.756 4.17812 27.8408C4.44478 27.8919 4.71144 27.9467 4.9781 28H5.9629C6.29093 27.9299 6.62261 27.8751 6.94552 27.7867C9.72095 27.0234 11.4305 24.1894 10.8058 21.3809C10.762 21.1852 10.7978 21.0654 10.9366 20.9273C11.9338 19.9405 12.9223 18.945 13.9356 17.9311C14.0138 18.0049 14.0854 18.0699 14.1533 18.1378C16.5642 20.5468 18.9721 22.9586 21.3889 25.361C21.5773 25.5487 21.8089 25.7109 22.0493 25.8255C23.4688 26.5056 24.8971 27.168 26.3224 27.8357C26.4451 27.8934 26.5701 27.9452 26.6943 28H27.1319C28.0115 27.6121 28.2036 27.0914 27.7923 26.2097C27.4307 25.4348 27.0179 24.6795 26.7147 23.8819H26.714ZM15.6663 10.0185C16.4867 9.20259 17.2977 8.37648 18.1261 7.56864C18.384 7.31664 18.4564 7.06976 18.3533 6.71477C17.5168 3.8391 19.6611 1.04889 22.6586 1.10587C22.9735 1.11171 23.2876 1.17306 23.6763 1.21762C23.5674 1.33814 23.5082 1.40899 23.4432 1.474C22.7799 2.13795 22.115 2.80044 21.4524 3.46513C20.914 4.00564 20.9162 4.62285 21.4583 5.16847C21.9141 5.62718 22.3722 6.08442 22.831 6.54093C23.3877 7.09459 24.0028 7.09752 24.5551 6.54678C25.2769 5.82731 25.9958 5.10419 26.7527 4.34675C26.9025 4.84343 26.9383 5.30725 26.9017 5.77618C26.7162 8.14786 24.7648 9.91183 22.3868 9.83806C22.0011 9.82637 21.6131 9.73069 21.2354 9.63646C20.9381 9.56269 20.7124 9.6109 20.4939 9.83076C19.4616 10.8738 18.4206 11.9066 17.3853 12.9467C17.3159 13.0169 17.2692 13.1096 17.2188 13.1827C16.4093 12.3668 15.6532 11.6057 14.8539 10.8C15.1169 10.5473 15.396 10.2865 15.667 10.0177L15.6663 10.0185ZM8.05817 5.56728C8.12027 5.64617 8.17945 5.73966 8.25543 5.81563C11.7899 9.35087 23.7186 21.2735 24.233 21.7885C24.3009 21.8564 24.3645 21.9287 24.4112 21.9784C24.1321 22.2669 23.8743 22.535 23.6544 22.7614C14.0583 13.171 8.59076 7.70596 7.25016 6.36563C7.4876 6.13117 7.75207 5.86895 8.05744 5.56728H8.05817ZM1.13603 3.54182C1.93016 2.74858 2.73306 1.94585 3.51769 1.16284C4.20881 1.85455 4.91965 2.56598 5.63707 3.28398C4.85682 4.06261 4.05246 4.86535 3.25688 5.66005C2.55115 4.95519 1.83811 4.24303 1.13603 3.54255V3.54182ZM4.76404 7.18663C4.54925 6.97042 4.3067 6.72573 4.08169 6.49857C4.88093 5.7046 5.68529 4.90479 6.4933 4.10133C6.69274 4.31753 6.92944 4.57537 7.14496 4.8091C6.38517 5.56728 5.58301 6.36855 4.76404 7.18663ZM12.9486 17.3811C11.9207 18.4023 10.9015 19.4322 9.86852 20.4482C9.61867 20.6943 9.55 20.9361 9.64935 21.2787C10.4946 24.1952 8.30584 27.0037 5.27617 26.8971C4.98102 26.8868 4.68806 26.8255 4.33446 26.7802C4.43967 26.6648 4.49592 26.5983 4.55656 26.537C5.21991 25.873 5.88473 25.2105 6.54736 24.5458C7.08871 24.0024 7.09236 23.3874 6.55393 22.8425C6.09294 22.3758 5.62903 21.9119 5.1622 21.451C4.615 20.9105 3.99986 20.912 3.45851 21.451C2.79369 22.1135 2.13034 22.7782 1.46625 23.4407C1.40415 23.5028 1.33767 23.5598 1.24635 23.6438C1.04106 22.8995 1.04837 22.1917 1.22443 21.4846C1.82788 19.0553 4.31109 17.6287 6.71027 18.3446C7.0646 18.4505 7.31153 18.3818 7.56504 18.124C8.57469 17.0977 9.59894 16.0854 10.6144 15.0657C10.6846 14.9956 10.7313 14.9021 10.7715 14.8451C11.5817 15.6559 12.3444 16.4184 13.1692 17.2438C13.1196 17.2738 13.0187 17.3117 12.9486 17.3811ZM21.9989 24.372C16.5554 18.9304 11.093 13.4697 5.62757 8.00616C5.87743 7.77243 6.15212 7.51532 6.40124 7.28158C11.8338 12.713 17.3006 18.1773 22.7587 23.6343C22.5271 23.8592 22.2553 24.1229 21.9982 24.372H21.9989ZM24.1102 25.4443C24.0693 25.4844 23.9751 25.5195 23.9298 25.5005C23.6069 25.3617 23.2905 25.2083 22.983 25.0644C23.6807 24.3654 24.3608 23.6839 25.068 22.9747C25.2134 23.2859 25.3646 23.5941 25.4983 23.9096C25.5202 23.9615 25.4859 24.0659 25.4421 24.1112C25.003 24.5604 24.5588 25.0045 24.1102 25.4443ZM26.8316 26.8642C26.2581 26.5969 25.6853 26.3303 25.1096 26.0622C25.4384 25.7357 25.7445 25.4311 26.0674 25.1097C26.3297 25.6678 26.5978 26.239 26.8667 26.8094C26.855 26.8277 26.844 26.8459 26.8323 26.8642H26.8316Z" fill="#FF7A00"/>
</svg>
