<svg width="23" height="28" viewBox="0 0 23 28" fill="none" xmlns="http://www.w3.org/2000/svg">
<path d="M19.6649 28H14.5742C14.3552 27.8583 14.2813 27.6569 14.3002 27.3974C14.3172 27.1666 14.3036 26.9331 14.3036 26.7044H8.23791C8.23791 26.9468 8.22435 27.1735 8.2413 27.3974C8.26096 27.6562 8.18638 27.8583 7.96737 28H2.87666C2.65698 27.8576 2.58443 27.6549 2.60206 27.3953C2.61901 27.1529 2.60545 26.9078 2.60545 26.6695C2.55188 26.6524 2.52747 26.6421 2.50238 26.6366C0.992391 26.3237 0.0078816 25.1055 0.00584749 23.5442C0.00516945 22.7601 0.017375 21.9761 0.000424093 21.1927C-0.00703432 20.8496 0.0817876 20.6072 0.433689 20.536V4.41515C0.05331 4.25833 0.00652553 4.18575 0.00584749 3.76187C0.00584749 3.52494 0.00381337 3.28801 0.00584749 3.05108C0.0207643 1.37134 1.36124 0.00522564 3.02447 0.0038561C8.52133 -0.00162206 14.0182 -0.000937289 19.515 0.0038561C20.8928 0.00522564 22.1065 0.946785 22.4204 2.29921C22.5296 2.77033 22.512 3.27363 22.5309 3.76256C22.5472 4.18575 22.4869 4.25902 22.1092 4.41446V20.5387C22.4618 20.6613 22.5337 20.7579 22.5343 21.1112C22.535 21.959 22.5398 22.8067 22.533 23.6538C22.5221 24.9856 21.6407 26.1696 20.3795 26.5558C20.2365 26.5996 20.0887 26.6305 19.9347 26.6695C19.9347 26.9229 19.9212 27.1598 19.9381 27.3947C19.9571 27.6542 19.8839 27.8569 19.6642 27.9993L19.6649 28ZM21.2162 18.8001V4.39803H1.32124V18.7939H4.33919C4.33919 18.5125 4.33648 18.2496 4.33987 17.9866C4.34394 17.6641 4.5026 17.5052 4.82331 17.5011C5.08096 17.4977 5.3393 17.5004 5.64102 17.5004C5.55695 17.145 5.48372 16.8328 5.4071 16.5082C4.7277 16.7191 4.12222 16.6527 3.6442 16.1816C2.90582 15.4543 2.46102 14.5504 2.36067 13.5109C2.29355 12.8139 2.81224 12.3722 3.51062 12.4448C4.30867 12.5283 4.98264 12.9077 5.63356 13.3411C6.63095 14.0054 6.71097 15.1571 6.18277 15.8892C6.15023 15.9337 6.12785 16.0097 6.14141 16.0597C6.26956 16.5308 6.40653 16.9999 6.54959 17.5004C6.7808 17.5004 7.04999 17.4977 7.31985 17.5011C7.64191 17.5052 7.79989 17.6634 7.80464 17.9859C7.80803 18.2557 7.80532 18.5255 7.80532 18.7919H9.53838C9.53838 18.5351 9.53838 18.2982 9.53838 18.0619C9.53974 17.6435 9.6767 17.5018 10.0835 17.5004C10.3249 17.4997 10.5656 17.5004 10.8341 17.5004C10.8063 15.5201 10.6707 13.6 9.56279 11.8901C9.49431 11.9216 9.43668 11.9456 9.38108 11.9736C8.38436 12.4817 7.08728 12.2633 6.35567 11.4162C5.48304 10.4062 4.86738 9.24483 4.58328 7.93144C4.50124 7.55276 4.50463 7.12547 4.58667 6.7461C4.72974 6.08598 5.36302 5.75593 6.18074 5.87097C7.55783 6.06476 8.74779 6.69817 9.82587 7.55276C10.9528 8.4457 11.1575 10.046 10.3181 11.1944C10.2788 11.2485 10.2978 11.3751 10.331 11.4484C10.5921 12.0264 10.8626 12.6002 11.1304 13.1754C11.1596 13.2384 11.1867 13.3021 11.1948 13.3199C11.5752 12.6981 11.9651 12.0695 12.3427 11.434C12.3828 11.3669 12.3834 11.243 12.3502 11.1697C11.9536 10.2912 12.1278 9.39548 12.8506 8.76823C13.4981 8.20672 14.2223 7.75888 15.0122 7.43704C15.4 7.27954 15.815 7.16039 16.2286 7.10013C16.8212 7.01316 17.2443 7.41581 17.2463 8.02115C17.247 8.23685 17.2219 8.46214 17.1589 8.66757C16.8158 9.77827 16.2577 10.7767 15.4848 11.6333C14.964 12.2106 14.2826 12.3763 13.5293 12.1544C13.3679 12.1072 13.214 12.0346 13.0621 11.975C11.8742 13.3589 11.3189 15.6762 11.74 17.4997C11.978 17.4997 12.22 17.4991 12.4621 17.4997C12.8574 17.5011 13.0025 17.6449 13.0045 18.0366C13.0059 18.2886 13.0045 18.5406 13.0045 18.7926H14.7376C14.7376 18.5098 14.7349 18.2461 14.7383 17.9825C14.743 17.6607 14.9017 17.5038 15.2251 17.5004C15.4943 17.497 15.7634 17.5004 16.0211 17.5004C16.0821 17.1142 16.1228 16.752 16.2015 16.3979C16.2449 16.2014 16.2171 16.0706 16.0842 15.9131C15.4556 15.1695 15.4366 14.1101 16.0957 13.3925C16.8476 12.5735 17.8152 12.0887 18.9055 11.9373C19.8947 11.7997 20.3714 12.3071 20.2595 13.3137C20.1721 14.0978 19.8174 14.788 19.4011 15.4441C19.1455 15.8467 18.8533 16.211 18.4098 16.424C17.9779 16.6314 17.5291 16.6636 17.0327 16.5568C16.9893 16.88 16.95 17.1779 16.912 17.4614C16.9609 17.4854 16.969 17.4922 16.9771 17.4929C17.2294 17.4963 17.4823 17.4963 17.7345 17.5018C18.0389 17.5086 18.1969 17.6675 18.2024 17.9757C18.2064 18.2461 18.203 18.5173 18.203 18.8001H21.2162ZM0.887976 21.4474C0.887976 22.252 0.871024 23.034 0.897467 23.8147C0.906282 24.0694 0.988325 24.3392 1.10224 24.57C1.52737 25.4314 2.24812 25.8128 3.1872 25.8128C8.26639 25.8122 13.3456 25.8128 18.4254 25.8128C18.7773 25.8128 19.1292 25.8197 19.4811 25.8108C20.5172 25.7855 21.3301 25.1692 21.5837 24.1714C21.6671 23.8428 21.6583 23.486 21.6658 23.1416C21.678 22.58 21.6692 22.0185 21.6692 21.4481H0.888652L0.887976 21.4474ZM21.223 19.7061H1.32802V20.549H21.223V19.7061ZM9.79129 10.3754C10.0889 9.95631 10.0835 9.0935 9.60076 8.57581C8.66371 7.57125 7.47443 6.99947 6.14277 6.74816C5.49456 6.62627 5.2803 6.87826 5.37252 7.54318C5.37523 7.56098 5.37659 7.57947 5.38065 7.59727C5.66068 8.79494 6.17328 9.87824 6.97336 10.8095C7.51173 11.4361 8.48743 11.5368 9.09495 11.0985C8.47793 10.4733 7.86905 9.85701 7.26153 9.24004C7.17271 9.15033 7.07236 9.0661 7.00591 8.96133C6.89539 8.7874 6.92455 8.60594 7.06354 8.46008C7.19983 8.31697 7.3707 8.26561 7.55444 8.36901C7.63988 8.41694 7.71785 8.48131 7.79108 8.54773C8.4603 9.15718 9.12749 9.76868 9.79129 10.3761V10.3754ZM13.6425 11.2409C14.1077 11.4594 14.5843 11.3656 14.903 10.9937C15.5336 10.2562 15.9987 9.41876 16.3113 8.49843C16.3635 8.34436 16.3513 8.167 16.3689 8.0006C16.1954 8.0143 16.0109 7.99512 15.8489 8.04785C14.9464 8.34162 14.1518 8.83808 13.4174 9.43314C13.2764 9.5475 13.1632 9.71937 13.0866 9.88783C12.9923 10.096 12.9476 10.3275 13.1157 10.6431C13.2249 10.4966 13.2927 10.3726 13.3896 10.2816C13.6005 10.0844 13.8141 9.88441 14.05 9.72006C14.3416 9.51737 14.7328 9.70226 14.7193 10.0385C14.7138 10.1802 14.6115 10.3432 14.5064 10.45C14.2365 10.7239 13.9402 10.9711 13.6412 11.2409H13.6425ZM17.3331 15.7132C17.7643 15.7974 18.0864 15.6919 18.3251 15.4256C18.9055 14.7785 19.2757 14.0163 19.4249 13.1542C19.4771 12.8522 19.393 12.755 19.0892 12.7954C18.1766 12.9166 17.3907 13.3281 16.7398 13.9739C16.4137 14.2971 16.4022 14.7757 16.6456 15.1715C16.7005 15.0935 16.7466 15.0202 16.8008 14.9531C17.0171 14.6853 17.2246 14.4094 17.4572 14.1574C17.6416 13.9574 17.8844 13.9567 18.0634 14.1156C18.2457 14.2779 18.2552 14.5333 18.0817 14.7504C18.0139 14.8353 17.9291 14.9065 17.8633 14.9928C17.6918 15.2188 17.5264 15.4502 17.3331 15.7139V15.7132ZM21.642 3.49687C21.7085 2.98672 21.6312 2.46903 21.4359 2.09651C20.9945 1.25562 20.286 0.876938 19.3598 0.876938C13.9653 0.876938 8.57014 0.876938 3.17567 0.876938C3.11262 0.876938 3.04956 0.876938 2.9865 0.880362C1.62636 0.958426 0.688633 2.12733 0.902893 3.48454C2.61901 3.48454 19.9219 3.49687 21.642 3.49687ZM5.59763 15.1243C5.68442 14.7613 5.61593 14.4765 5.38811 14.2745C4.84433 13.7938 4.21918 13.4569 3.50046 13.3261C3.24687 13.2795 3.17364 13.3535 3.22585 13.6027C3.37299 14.3012 3.67132 14.9291 4.14052 15.4653C4.33444 15.6865 4.59006 15.7727 4.94332 15.7173C4.77652 15.531 4.6382 15.3804 4.50463 15.2249C4.29986 14.988 4.29105 14.749 4.47615 14.5682C4.66261 14.3861 4.904 14.3998 5.12436 14.6175C5.27759 14.7689 5.4193 14.9325 5.59763 15.1243ZM7.35917 26.703H3.49096V27.1057H7.35917V26.703ZM15.1824 27.1077H19.058V26.7024H15.1824V27.1077ZM6.92794 18.3892H5.22132V18.796H6.92794V18.3892ZM10.4164 18.7953H12.1265V18.3899H10.4164V18.7953ZM17.3256 18.3947H15.6156V18.7994H17.3256V18.3947Z" fill="#FF7A00"/>
</svg>
