<svg width="88" height="79" viewBox="0 0 88 79" fill="none" xmlns="http://www.w3.org/2000/svg">
<path d="M29.2605 4.61072C30.2575 4.61072 31.0658 3.80242 31.0658 2.80535C31.0658 1.80827 30.2575 1 29.2605 1C28.2634 1 27.4551 1.80827 27.4551 2.80535C27.4551 3.80242 28.2634 4.61072 29.2605 4.61072Z" stroke="#333333" stroke-miterlimit="10"/>
<path d="M15.0201 33.1704H25.8434" stroke="#333333" stroke-miterlimit="10" stroke-linecap="round"/>
<path d="M4.63715 21.0088L9.81544 29.9827" stroke="#333333" stroke-miterlimit="10" stroke-linecap="round"/>
<path d="M9.85953 5.86133L4.57556 15.0114" stroke="#333333" stroke-miterlimit="10" stroke-linecap="round"/>
<path d="M25.8434 2.74365H15.0289" stroke="#333333" stroke-miterlimit="10" stroke-linecap="round"/>
<path d="M36.3058 15.011L31.0219 5.85205" stroke="#333333" stroke-miterlimit="10" stroke-linecap="round"/>
<path d="M31.0569 29.9915L36.2528 21" stroke="#333333" stroke-miterlimit="10" stroke-linecap="round"/>
<path d="M11.5414 4.61072C12.5385 4.61072 13.3468 3.80242 13.3468 2.80535C13.3468 1.80827 12.5385 1 11.5414 1C10.5444 1 9.73608 1.80827 9.73608 2.80535C9.73608 3.80242 10.5444 4.61072 11.5414 4.61072Z" stroke="#333333" stroke-miterlimit="10"/>
<path d="M29.3573 34.8173C30.3544 34.8173 31.1626 34.009 31.1626 33.0119C31.1626 32.0148 30.3544 31.2065 29.3573 31.2065C28.3602 31.2065 27.5519 32.0148 27.5519 33.0119C27.5519 34.009 28.3602 34.8173 29.3573 34.8173Z" stroke="#333333" stroke-miterlimit="10"/>
<path d="M11.5239 34.7821C12.521 34.7821 13.3293 33.9738 13.3293 32.9768C13.3293 31.9797 12.521 31.1714 11.5239 31.1714C10.5268 31.1714 9.71857 31.9797 9.71857 32.9768C9.71857 33.9738 10.5268 34.7821 11.5239 34.7821Z" stroke="#333333" stroke-miterlimit="10"/>
<path d="M38.0935 19.8285C39.0906 19.8285 39.8988 19.0202 39.8988 18.0231C39.8988 17.026 39.0906 16.2178 38.0935 16.2178C37.0965 16.2178 36.2881 17.026 36.2881 18.0231C36.2881 19.0202 37.0965 19.8285 38.0935 19.8285Z" stroke="#333333" stroke-miterlimit="10"/>
<path d="M2.84941 19.8285C3.84648 19.8285 4.65481 19.0202 4.65481 18.0231C4.65481 17.026 3.84648 16.2178 2.84941 16.2178C1.85234 16.2178 1.04407 17.026 1.04407 18.0231C1.04407 19.0202 1.85234 19.8285 2.84941 19.8285Z" stroke="#333333" stroke-miterlimit="10"/>
<path d="M20.4362 19.7406C21.4333 19.7406 22.2416 18.9323 22.2416 17.9352C22.2416 16.9382 21.4333 16.1299 20.4362 16.1299C19.4391 16.1299 18.6309 16.9382 18.6309 17.9352C18.6309 18.9323 19.4391 19.7406 20.4362 19.7406Z" stroke="#333333" stroke-miterlimit="10"/>
<path d="M18.7012 20.9644L13.4701 30.0176" stroke="#333333" stroke-miterlimit="10" stroke-linecap="round"/>
<path d="M27.4199 5.86133L22.1888 14.9233" stroke="#333333" stroke-miterlimit="10" stroke-linecap="round"/>
<path d="M22.1624 20.9644L27.3759 30.0352" stroke="#333333" stroke-miterlimit="10" stroke-linecap="round"/>
<path d="M13.4877 5.84375L18.5867 14.7296" stroke="#333333" stroke-miterlimit="10" stroke-linecap="round"/>
<path d="M23.9236 17.9439L34.3859 17.9263" stroke="#333333" stroke-miterlimit="10" stroke-linecap="round"/>
<path d="M6.48651 17.9878L16.9488 17.9614" stroke="#333333" stroke-miterlimit="10" stroke-linecap="round"/>
<path d="M47.1643 4.61072C48.1614 4.61072 48.9697 3.80242 48.9697 2.80535C48.9697 1.80827 48.1614 1 47.1643 1C46.1672 1 45.359 1.80827 45.359 2.80535C45.359 3.80242 46.1672 4.61072 47.1643 4.61072Z" stroke="#333333" stroke-miterlimit="10"/>
<path d="M32.924 33.1704H43.7474" stroke="#333333" stroke-miterlimit="10" stroke-linecap="round"/>
<path d="M54.2095 15.011L48.9167 5.85205" stroke="#333333" stroke-miterlimit="10" stroke-linecap="round"/>
<path d="M48.9608 29.9915L54.1479 21" stroke="#333333" stroke-miterlimit="10" stroke-linecap="round"/>
<path d="M47.2611 34.8173C48.2582 34.8173 49.0665 34.009 49.0665 33.0119C49.0665 32.0148 48.2582 31.2065 47.2611 31.2065C46.264 31.2065 45.4558 32.0148 45.4558 33.0119C45.4558 34.009 46.264 34.8173 47.2611 34.8173Z" stroke="#333333" stroke-miterlimit="10"/>
<path d="M55.9884 19.8285C56.9855 19.8285 57.7938 19.0202 57.7938 18.0231C57.7938 17.026 56.9855 16.2178 55.9884 16.2178C54.9914 16.2178 54.183 17.026 54.183 18.0231C54.183 19.0202 54.9914 19.8285 55.9884 19.8285Z" stroke="#333333" stroke-miterlimit="10"/>
<path d="M45.3237 5.86133L40.0925 14.9233" stroke="#333333" stroke-miterlimit="10" stroke-linecap="round"/>
<path d="M40.0662 20.9644L45.2797 30.0352" stroke="#333333" stroke-miterlimit="10" stroke-linecap="round"/>
<path d="M41.8276 17.9439L52.2898 17.9263" stroke="#333333" stroke-miterlimit="10" stroke-linecap="round"/>
<path d="M64.9713 4.61072C65.9684 4.61072 66.7767 3.80242 66.7767 2.80535C66.7767 1.80827 65.9684 1 64.9713 1C63.9742 1 63.166 1.80827 63.166 2.80535C63.166 3.80242 63.9742 4.61072 64.9713 4.61072Z" stroke="#333333" stroke-miterlimit="10"/>
<path d="M50.731 33.1704H61.5454" stroke="#333333" stroke-miterlimit="10" stroke-linecap="round"/>
<path d="M61.5454 2.74365H50.731" stroke="#333333" stroke-miterlimit="10" stroke-linecap="round"/>
<path d="M72.0165 15.011L66.7237 5.85205" stroke="#333333" stroke-miterlimit="10" stroke-linecap="round"/>
<path d="M66.7589 29.9915L71.9548 21" stroke="#333333" stroke-miterlimit="10" stroke-linecap="round"/>
<path d="M65.0593 34.8173C66.0564 34.8173 66.8646 34.009 66.8646 33.0119C66.8646 32.0148 66.0564 31.2065 65.0593 31.2065C64.0622 31.2065 63.2539 32.0148 63.2539 33.0119C63.2539 34.009 64.0622 34.8173 65.0593 34.8173Z" stroke="#333333" stroke-miterlimit="10"/>
<path d="M73.7955 19.8285C74.7926 19.8285 75.6009 19.0202 75.6009 18.0231C75.6009 17.026 74.7926 16.2178 73.7955 16.2178C72.7985 16.2178 71.9902 17.026 71.9902 18.0231C71.9902 19.0202 72.7985 19.8285 73.7955 19.8285Z" stroke="#333333" stroke-miterlimit="10"/>
<path d="M63.1219 5.86133L57.8908 14.9233" stroke="#333333" stroke-miterlimit="10" stroke-linecap="round"/>
<path d="M57.8732 20.9644L63.0779 30.0352" stroke="#333333" stroke-miterlimit="10" stroke-linecap="round"/>
<path d="M59.6257 17.9439L70.088 17.9263" stroke="#333333" stroke-miterlimit="10" stroke-linecap="round"/>
<path d="M6.31042 48.353H17.1338" stroke="#333333" stroke-miterlimit="10" stroke-linecap="round"/>
<path d="M22.3472 45.1742L27.5343 36.1826" stroke="#333333" stroke-miterlimit="10" stroke-linecap="round"/>
<path d="M20.6387 49.9999C21.6358 49.9999 22.4441 49.1916 22.4441 48.1945C22.4441 47.1975 21.6358 46.3892 20.6387 46.3892C19.6416 46.3892 18.8334 47.1975 18.8334 48.1945C18.8334 49.1916 19.6416 49.9999 20.6387 49.9999Z" stroke="#333333" stroke-miterlimit="10"/>
<path d="M2.80535 49.9735C3.80242 49.9735 4.61069 49.1652 4.61069 48.1682C4.61069 47.1711 3.80242 46.3628 2.80535 46.3628C1.80827 46.3628 1 47.1711 1 48.1682C1 49.1652 1.80827 49.9735 2.80535 49.9735Z" stroke="#333333" stroke-miterlimit="10"/>
<path d="M9.99157 36.1475L4.76044 45.2094" stroke="#333333" stroke-miterlimit="10" stroke-linecap="round"/>
<path d="M13.4526 36.1475L18.6573 45.2183" stroke="#333333" stroke-miterlimit="10" stroke-linecap="round"/>
<path d="M24.2055 48.353H35.0288" stroke="#333333" stroke-miterlimit="10" stroke-linecap="round"/>
<path d="M40.2423 45.1742L45.4382 36.1826" stroke="#333333" stroke-miterlimit="10" stroke-linecap="round"/>
<path d="M38.5426 49.9999C39.5397 49.9999 40.348 49.1916 40.348 48.1945C40.348 47.1975 39.5397 46.3892 38.5426 46.3892C37.5455 46.3892 36.7373 47.1975 36.7373 48.1945C36.7373 49.1916 37.5455 49.9999 38.5426 49.9999Z" stroke="#333333" stroke-miterlimit="10"/>
<path d="M31.3564 36.1475L36.561 45.2183" stroke="#333333" stroke-miterlimit="10" stroke-linecap="round"/>
<path d="M58.0493 45.1742L63.2364 36.1826" stroke="#333333" stroke-miterlimit="10" stroke-linecap="round"/>
<path d="M56.3496 49.9999C57.3467 49.9999 58.1549 49.1916 58.1549 48.1945C58.1549 47.1975 57.3467 46.3892 56.3496 46.3892C55.3526 46.3892 54.5443 47.1975 54.5443 48.1945C54.5443 49.1916 55.3526 49.9999 56.3496 49.9999Z" stroke="#333333" stroke-miterlimit="10"/>
<path d="M49.1545 36.1475L54.3681 45.2183" stroke="#333333" stroke-miterlimit="10" stroke-linecap="round"/>
<path d="M68.5203 33.1704H79.3436" stroke="#333333" stroke-miterlimit="10" stroke-linecap="round"/>
<path d="M82.8575 34.8173C83.8545 34.8173 84.6628 34.009 84.6628 33.0119C84.6628 32.0148 83.8545 31.2065 82.8575 31.2065C81.8604 31.2065 81.0521 32.0148 81.0521 33.0119C81.0521 34.009 81.8604 34.8173 82.8575 34.8173Z" stroke="#333333" stroke-miterlimit="10"/>
<path d="M75.6713 20.9644L80.8761 30.0352" stroke="#333333" stroke-miterlimit="10" stroke-linecap="round"/>
<path d="M59.8106 48.353H70.634" stroke="#333333" stroke-miterlimit="10" stroke-linecap="round"/>
<path d="M75.8474 45.1742L81.0344 36.1826" stroke="#333333" stroke-miterlimit="10" stroke-linecap="round"/>
<path d="M74.139 49.9999C75.1361 49.9999 75.9444 49.1916 75.9444 48.1945C75.9444 47.1975 75.1361 46.3892 74.139 46.3892C73.1419 46.3892 72.3336 47.1975 72.3336 48.1945C72.3336 49.1916 73.1419 49.9999 74.139 49.9999Z" stroke="#333333" stroke-miterlimit="10"/>
<path d="M66.9526 36.1475L72.1662 45.2183" stroke="#333333" stroke-miterlimit="10" stroke-linecap="round"/>
<path d="M7.08936 67.1797V75H5.78418V67.1797H7.08936ZM14.0099 67.1797V75H12.7316L9.97084 69.5859V75H8.70863V67.1797H9.97084L12.7531 72.6313V67.1797H14.0099ZM16.9021 67.1797V75H15.597V67.1797H16.9021ZM19.4373 70.5903V71.686H16.6013V70.5903H19.4373ZM19.8025 67.1797V68.2754H16.6013V67.1797H19.8025ZM20.976 67.1797H23.3393C23.8549 67.1797 24.2918 67.2692 24.6498 67.4482C25.0079 67.6273 25.28 67.8923 25.4662 68.2432C25.656 68.5905 25.7509 69.022 25.7509 69.5376C25.7509 69.9279 25.6918 70.2716 25.5737 70.5688C25.4591 70.866 25.2926 71.1167 25.0741 71.3208C24.8557 71.5213 24.5925 71.6771 24.2846 71.7881L23.9032 71.9976H21.9052L21.8998 70.9019H23.3071C23.5613 70.9019 23.7725 70.8464 23.9408 70.7354C24.1091 70.6243 24.2345 70.4704 24.3168 70.2734C24.4028 70.0765 24.4457 69.8527 24.4457 69.6021C24.4457 69.3335 24.4081 69.1007 24.3329 68.9038C24.2577 68.7033 24.1396 68.5493 23.9784 68.4419C23.8173 68.3309 23.6043 68.2754 23.3393 68.2754H22.2812V75H20.976V67.1797ZM24.6176 75L23.1298 71.4873L24.4887 71.4819L26.0141 74.9302V75H24.6176ZM29.7496 68.2539L27.8589 75H26.4947L28.9761 67.1797H29.8248L29.7496 68.2539ZM31.2588 75L29.3629 68.2539L29.2715 67.1797H30.1363L32.6285 75H31.2588ZM31.2911 72.0942V73.1899H27.6495V72.0942H31.2911ZM36.9924 72.9805C36.9924 72.8193 36.9745 72.6761 36.9387 72.5508C36.9064 72.4219 36.8438 72.3055 36.7507 72.2017C36.6576 72.0978 36.5251 71.9958 36.3532 71.8955C36.1849 71.7952 35.9665 71.6932 35.6979 71.5894C35.39 71.4712 35.1018 71.3423 34.8332 71.2026C34.5682 71.0594 34.3337 70.8983 34.1296 70.7192C33.9291 70.5366 33.7715 70.3236 33.6569 70.0801C33.5423 69.8366 33.4851 69.5537 33.4851 69.2314C33.4851 68.9128 33.5406 68.6227 33.6516 68.3613C33.7661 68.0964 33.9273 67.869 34.135 67.6792C34.3462 67.4858 34.5969 67.3372 34.8869 67.2334C35.177 67.126 35.4974 67.0723 35.8483 67.0723C36.3532 67.0723 36.7847 67.1797 37.1428 67.3945C37.5044 67.6094 37.7801 67.8976 37.9699 68.2593C38.1633 68.6209 38.26 69.022 38.26 69.4624H36.9602C36.9602 69.2082 36.9208 68.9826 36.842 68.7856C36.7632 68.5887 36.6415 68.4347 36.4768 68.3237C36.312 68.2127 36.099 68.1572 35.8376 68.1572C35.5977 68.1572 35.399 68.2038 35.2414 68.2969C35.0874 68.39 34.9729 68.5171 34.8977 68.6782C34.826 68.8394 34.7902 69.0238 34.7902 69.2314C34.7902 69.3747 34.8207 69.5054 34.8815 69.6235C34.9424 69.7381 35.0301 69.8438 35.1447 69.9404C35.2593 70.0371 35.399 70.1284 35.5637 70.2144C35.7284 70.3003 35.9182 70.3826 36.133 70.4614C36.4982 70.5939 36.8169 70.7407 37.0891 70.9019C37.3612 71.063 37.585 71.2438 37.7604 71.4443C37.9395 71.6413 38.072 71.8651 38.1579 72.1157C38.2474 72.3664 38.2922 72.651 38.2922 72.9697C38.2922 73.292 38.2367 73.5856 38.1257 73.8506C38.0183 74.112 37.8607 74.3358 37.653 74.522C37.4453 74.7082 37.1947 74.8532 36.9011 74.957C36.6075 75.0573 36.278 75.1074 35.9128 75.1074C35.5762 75.1074 35.2521 75.0573 34.9406 74.957C34.6327 74.8568 34.357 74.7046 34.1135 74.5005C33.87 74.2928 33.6766 74.0332 33.5334 73.7217C33.3937 73.4102 33.3239 73.0449 33.3239 72.626H34.6291C34.6291 72.8766 34.6595 73.0915 34.7204 73.2705C34.7813 73.446 34.869 73.591 34.9836 73.7056C35.1018 73.8166 35.2396 73.8989 35.3972 73.9526C35.5583 74.0028 35.7373 74.0278 35.9343 74.0278C36.1778 74.0278 36.3765 73.9849 36.5305 73.8989C36.688 73.8094 36.8044 73.6859 36.8796 73.5283C36.9548 73.3708 36.9924 73.1882 36.9924 72.9805ZM42.4144 67.1797V75H41.1146V67.1797H42.4144ZM44.4071 67.1797V68.2754H39.1434V67.1797H44.4071ZM45.5537 67.1797H47.917C48.4326 67.1797 48.8694 67.2692 49.2275 67.4482C49.5856 67.6273 49.8577 67.8923 50.0439 68.2432C50.2337 68.5905 50.3286 69.022 50.3286 69.5376C50.3286 69.9279 50.2695 70.2716 50.1513 70.5688C50.0368 70.866 49.8703 71.1167 49.6518 71.3208C49.4334 71.5213 49.1702 71.6771 48.8623 71.7881L48.4809 71.9976H46.4829L46.4775 70.9019H47.8847C48.139 70.9019 48.3502 70.8464 48.5185 70.7354C48.6868 70.6243 48.8122 70.4704 48.8945 70.2734C48.9804 70.0765 49.0234 69.8527 49.0234 69.6021C49.0234 69.3335 48.9858 69.1007 48.9106 68.9038C48.8354 68.7033 48.7173 68.5493 48.5561 68.4419C48.395 68.3309 48.1819 68.2754 47.917 68.2754H46.8589V75H45.5537V67.1797ZM49.1953 75L47.7075 71.4873L49.0664 71.4819L50.5918 74.9302V75H49.1953ZM55.2189 67.1797H56.524V72.6099C56.524 73.2078 56.4113 73.6895 56.1857 74.0547C55.9637 74.4199 55.6629 74.6867 55.2833 74.855C54.9073 75.0233 54.4884 75.1074 54.0265 75.1074C53.5467 75.1074 53.1188 75.0233 52.7428 74.855C52.3668 74.6867 52.0714 74.4199 51.8566 74.0547C51.6417 73.6895 51.5343 73.2078 51.5343 72.6099V67.1797H52.8341V72.6099C52.8341 72.9823 52.8807 73.2705 52.9738 73.4746C53.0704 73.6787 53.2065 73.8201 53.382 73.8989C53.561 73.9777 53.7758 74.0171 54.0265 74.0171C54.2771 74.0171 54.4902 73.9777 54.6656 73.8989C54.8447 73.8201 54.9807 73.6787 55.0738 73.4746C55.1705 73.2705 55.2189 72.9823 55.2189 72.6099V67.1797ZM61.7957 72.4487H63.0955C63.0704 73.0145 62.9558 73.4961 62.7517 73.8936C62.5476 74.2874 62.254 74.5882 61.8709 74.7959C61.4913 75.0036 61.0276 75.1074 60.4797 75.1074C60.0644 75.1074 59.692 75.0322 59.3626 74.8818C59.0367 74.7314 58.7592 74.5148 58.53 74.2319C58.3009 73.9455 58.1254 73.5964 58.0037 73.1846C57.8855 72.7728 57.8264 72.3055 57.8264 71.7827V70.397C57.8264 69.8742 57.8873 69.4069 58.009 68.9951C58.1344 68.5833 58.3134 68.2342 58.5462 67.9478C58.7789 67.6613 59.0618 67.4447 59.3948 67.2979C59.7314 67.1475 60.1109 67.0723 60.5335 67.0723C61.0741 67.0723 61.5289 67.1761 61.8977 67.3838C62.2665 67.5915 62.5512 67.8958 62.7517 68.2969C62.9522 68.6979 63.0686 69.1867 63.1008 69.7632H61.801C61.7831 69.3729 61.7294 69.0614 61.6399 68.8286C61.554 68.5923 61.4215 68.4222 61.2424 68.3184C61.067 68.2145 60.8307 68.1626 60.5335 68.1626C60.2864 68.1626 60.0733 68.2091 59.8943 68.3022C59.7188 68.3953 59.5738 68.535 59.4592 68.7212C59.3482 68.9038 59.2641 69.1348 59.2068 69.4141C59.1531 69.6898 59.1262 70.0138 59.1262 70.3862V71.7827C59.1262 72.1408 59.1495 72.4577 59.1961 72.7334C59.2426 73.0091 59.3178 73.2437 59.4216 73.437C59.5255 73.6268 59.6633 73.7718 59.8352 73.8721C60.0071 73.9688 60.2219 74.0171 60.4797 74.0171C60.7877 74.0171 61.033 73.9688 61.2156 73.8721C61.4018 73.7754 61.5396 73.6125 61.6292 73.3833C61.7187 73.1541 61.7742 72.8426 61.7957 72.4487ZM67.0351 67.1797V75H65.7353V67.1797H67.0351ZM69.0277 67.1797V68.2754H63.7641V67.1797H69.0277ZM73.7569 67.1797H75.062V72.6099C75.062 73.2078 74.9493 73.6895 74.7237 74.0547C74.5017 74.4199 74.2009 74.6867 73.8213 74.855C73.4454 75.0233 73.0264 75.1074 72.5645 75.1074C72.0847 75.1074 71.6568 75.0233 71.2808 74.855C70.9048 74.6867 70.6094 74.4199 70.3946 74.0547C70.1797 73.6895 70.0723 73.2078 70.0723 72.6099V67.1797H71.3721V72.6099C71.3721 72.9823 71.4187 73.2705 71.5118 73.4746C71.6084 73.6787 71.7445 73.8201 71.92 73.8989C72.099 73.9777 72.3138 74.0171 72.5645 74.0171C72.8151 74.0171 73.0282 73.9777 73.2037 73.8989C73.3827 73.8201 73.5188 73.6787 73.6119 73.4746C73.7085 73.2705 73.7569 72.9823 73.7569 72.6099V67.1797ZM76.5256 67.1797H78.8888C79.4045 67.1797 79.8413 67.2692 80.1994 67.4482C80.5575 67.6273 80.8296 67.8923 81.0158 68.2432C81.2056 68.5905 81.3005 69.022 81.3005 69.5376C81.3005 69.9279 81.2414 70.2716 81.1232 70.5688C81.0086 70.866 80.8421 71.1167 80.6237 71.3208C80.4053 71.5213 80.1421 71.6771 79.8342 71.7881L79.4528 71.9976H77.4548L77.4494 70.9019H78.8566C79.1109 70.9019 79.3221 70.8464 79.4904 70.7354C79.6587 70.6243 79.784 70.4704 79.8664 70.2734C79.9523 70.0765 79.9953 69.8527 79.9953 69.6021C79.9953 69.3335 79.9577 69.1007 79.8825 68.9038C79.8073 68.7033 79.6891 68.5493 79.528 68.4419C79.3669 68.3309 79.1538 68.2754 78.8888 68.2754H77.8307V75H76.5256V67.1797ZM80.1672 75L78.6794 71.4873L80.0383 71.4819L81.5637 74.9302V75H80.1672ZM86.9588 73.9097V75H83.5643V73.9097H86.9588ZM83.908 67.1797V75H82.6029V67.1797H83.908ZM86.5023 70.4346V71.5088H83.5643V70.4346H86.5023ZM86.9266 67.1797V68.2754H83.5643V67.1797H86.9266Z" fill="#333333"/>
</svg>
