<svg width="75" height="162" viewBox="0 0 75 162" fill="none" xmlns="http://www.w3.org/2000/svg">
<path d="M8.2681 54.2845C8.25691 54.1714 7.13973 42.8992 7.32043 35.7861C7.49701 28.8244 8.88673 22.6873 8.9709 22.3204L12.9305 1.70091L12.9417 1.66321C13.1812 0.863905 13.6398 0.627117 13.9818 0.569392C14.7358 0.441573 15.282 1.10717 15.4309 1.31451L15.4386 1.32511C16.6176 3.01974 17.4881 6.86608 18.0261 12.7581C18.4134 16.9985 18.4858 20.8372 18.4888 21.0086L18.7307 29.2938L19.4559 43.199C19.6801 45.5357 20.5389 45.6929 20.5489 45.6947C20.5483 45.6947 20.533 45.6923 20.5006 45.6923V47.2397C20.274 47.2397 18.2739 47.1302 17.9155 43.3286L17.9131 43.2962L17.1862 29.3475L16.9437 21.0398C16.8754 16.9361 16.2756 5.86886 14.3514 2.49845L10.483 22.6426L10.4795 22.6579C10.4654 22.7191 9.04271 28.8474 8.86554 35.8256C8.68719 42.8415 9.79496 54.0188 9.80614 54.1307L8.26751 54.2851L8.2681 54.2845Z" fill="#333333"/>
<path d="M45.7569 54.7056L44.2124 54.6396L44.2559 53.6559C44.2665 53.5487 45.3384 42.8402 45.16 35.8249C44.9823 28.8385 43.5602 22.7185 43.5461 22.6572L43.5396 22.626L39.6742 2.4978C37.75 5.86821 37.1502 16.9354 37.0819 21.0392V21.0492L36.8388 29.3651L36.1119 43.312L36.1101 43.3279C35.7622 47.0146 33.8775 47.4641 33.6638 47.5029L33.386 45.9809C33.386 45.9809 33.3719 45.9821 33.3472 45.9891C33.3572 45.9862 34.3331 45.6622 34.5697 43.1977L35.2949 29.2926L35.5368 21.0074C35.5397 20.836 35.6127 16.9973 35.9995 12.7569C36.5374 6.86484 37.408 3.0185 38.587 1.32387L38.5946 1.31327C38.7442 1.10652 39.2898 0.441509 40.0438 0.568149C40.3858 0.625874 40.8443 0.862662 41.0839 1.66197L41.0951 1.69967L45.0547 22.3191C45.1388 22.6855 46.5286 28.8232 46.7051 35.7849C46.8817 42.7413 45.8516 53.2265 45.7957 53.7879L45.7563 54.7044L45.7569 54.7056Z" fill="#333333"/>
<path d="M34.6264 44.5301C34.6205 44.5272 34.013 44.2185 32.7822 43.9216C31.6439 43.6466 29.7238 43.3261 27.0462 43.3585H27.0368H27.0274C27.0132 43.3585 25.6241 43.3444 23.9631 43.4734C21.8234 43.6395 20.2095 43.9629 19.2959 44.4076L18.6196 43.0163C19.7233 42.4791 21.485 42.1133 23.8565 41.9301C25.5293 41.8005 26.8973 41.8106 27.0362 41.8117C32.5921 41.7481 35.2332 43.1023 35.3427 43.16L34.9825 43.8445L34.6258 44.5307L34.6264 44.5301Z" fill="#333333"/>
<path d="M17.4635 47.9749C16.8054 47.665 16.3575 46.8539 16.0114 45.3449C15.7818 44.3453 15.5987 43.0259 15.4663 41.4243C15.2479 38.7731 15.2414 36.2662 15.2414 36.0818C15.1384 30.6563 13.7134 12.0407 13.6752 11.5418C13.2608 7.38977 12.9147 1.98839 12.9111 1.93479L14.4539 1.83643C14.4574 1.89062 14.8018 7.27196 15.2144 11.3969L15.2161 11.4146C15.2309 11.6054 16.6836 30.5532 16.7871 36.06V36.0748C16.7871 36.0995 16.7901 38.5728 16.9949 41.1504C17.3811 45.9999 18.1039 46.5612 18.1345 46.583C18.1345 46.583 18.1304 46.58 18.1215 46.5759L17.4635 47.976V47.9749Z" fill="#333333"/>
<path d="M36.8112 48.1471L35.9877 46.8377C35.9877 46.8377 35.9842 46.8401 35.9818 46.8412C35.9965 46.8295 36.3526 46.5308 36.6852 44.6412C36.8859 43.5015 37.0413 42.0024 37.1473 40.1858C37.3256 37.1253 37.2997 34.1884 37.2985 34.0541C37.2332 31.2232 38.4522 13.3981 38.504 12.64L38.5058 12.6206C38.8996 8.41965 38.9696 1.44558 38.9708 1.37549L40.5165 1.39021C40.5159 1.4609 40.4447 8.48798 40.0462 12.7549C40.0115 13.2585 38.7801 31.3033 38.8448 34.0223V34.0323C38.8448 34.0635 38.8766 37.1753 38.6847 40.3855C38.3251 46.4113 37.5363 47.69 36.8118 48.1459L36.8112 48.1471Z" fill="#333333"/>
<path d="M38.2067 43.1031L37.5345 41.7101C38.8978 41.0516 39.5399 40.1798 39.7271 39.8865L40.1074 36.2316L45.7945 35.4829L45.9964 37.0167L41.5189 37.6063L41.2334 40.3512L41.1704 40.4773C41.1486 40.5214 40.942 40.922 40.4747 41.4374C39.8725 42.1012 39.0885 42.6773 38.2067 43.1031Z" fill="#333333"/>
<path d="M15.9625 43.1003C14.7918 42.4306 13.923 41.7715 13.3809 41.1418C12.9365 40.6252 12.827 40.2624 12.8017 40.0916L12.7958 40.038L12.6086 37.6778L7.98328 36.9686L8.21754 35.4395L14.053 36.3336L14.3291 39.8171C14.4097 39.9744 14.8571 40.6859 16.7301 41.7568L15.9631 43.0997L15.9625 43.1003Z" fill="#333333"/>
<path d="M48.2161 68.674C48.415 68.9503 48.5816 69.246 48.7152 69.5588L48.6523 69.4091C48.963 70.1454 49.0972 70.953 49.2079 71.7405L49.1855 71.5738C49.2579 72.1163 49.2185 72.6629 49.1467 73.2031L49.1691 73.0364C49.0755 73.7302 48.9354 74.4194 48.8877 75.1192C48.8424 75.7777 48.9383 76.4345 49.0449 77.083C49.1014 77.427 49.1632 77.7698 49.2097 78.115L49.1873 77.9483C49.2538 78.443 49.2885 78.9443 49.222 79.4414L49.2444 79.2747C49.2238 79.4196 49.1955 79.5628 49.1573 79.7041C49.1149 79.862 49.1379 80.0458 49.2203 80.1871C49.2962 80.3173 49.4451 80.441 49.5946 80.4752C49.9242 80.55 50.2739 80.3762 50.3651 80.0375C50.6329 79.0409 50.4664 78.0219 50.2986 77.0253C50.2545 76.7637 50.2109 76.5022 50.1756 76.2395L50.1979 76.4062C50.1573 76.0987 50.1279 75.7889 50.1279 75.4779C50.1279 75.1669 50.162 74.8288 50.205 74.5072L50.1826 74.6739C50.3098 73.7308 50.5382 72.779 50.4652 71.8218C50.4299 71.3624 50.3422 70.8994 50.255 70.447C50.1826 70.0706 50.0926 69.6972 49.9631 69.3361C49.7977 68.8773 49.5846 68.4373 49.2991 68.0414C49.2014 67.9054 49.092 67.7993 48.9248 67.7534C48.7747 67.7122 48.5751 67.731 48.4421 67.8164C48.3091 67.9018 48.1908 68.0314 48.1543 68.191C48.1178 68.3507 48.1202 68.5392 48.2173 68.674H48.2161Z" fill="#333333"/>
<path d="M47.2984 72.7867C47.256 73.437 47.239 74.0897 47.2154 74.7405C47.1919 75.3914 47.1736 76.0564 47.1324 76.7126C47.1101 77.0666 47.1283 77.4153 47.2996 77.7352C47.4573 78.0291 47.7299 78.217 47.9865 78.4155L47.86 78.3177C47.9759 78.4078 48.0836 78.5032 48.1755 78.6187L48.0777 78.4921C48.1525 78.5892 48.2137 78.6941 48.2626 78.8066L48.1996 78.657C48.2632 78.8084 48.302 78.9668 48.3244 79.1294L48.302 78.9627C48.3403 79.2666 48.3208 79.5741 48.2808 79.8769L48.3032 79.7102C48.2579 80.0435 48.1866 80.3716 48.1195 80.7009C48.0265 81.1586 47.9612 81.6239 47.9224 82.0892C47.847 82.9875 47.8982 83.884 48.0354 84.774C48.1084 85.2458 48.2031 85.7141 48.2673 86.1871L48.2449 86.0204C48.3079 86.4957 48.3379 86.977 48.2749 87.4541L48.2973 87.2874C48.2843 87.3805 48.2679 87.4735 48.2479 87.5654C48.2125 87.7298 48.2243 87.9 48.3108 88.0484C48.3868 88.1786 48.5357 88.3023 48.6852 88.3364C48.8453 88.373 49.0254 88.3653 49.1679 88.2734C49.3009 88.188 49.421 88.0584 49.4557 87.8988C49.5869 87.2909 49.5828 86.6772 49.5034 86.0628C49.4239 85.4485 49.295 84.8329 49.2108 84.215L49.2332 84.3817C49.1084 83.4511 49.1084 82.5063 49.2314 81.5756L49.2091 81.7423C49.3697 80.5501 49.8936 79.2366 49.3026 78.0827C49.2197 77.9207 49.1049 77.7693 48.9807 77.6374C48.8424 77.4901 48.6722 77.3741 48.5133 77.2516L48.6399 77.3493C48.5351 77.2675 48.4327 77.1827 48.3503 77.0778L48.448 77.2044C48.4121 77.1561 48.3821 77.1055 48.3573 77.0507L48.4203 77.2003C48.3915 77.129 48.3732 77.0566 48.3626 76.9806L48.385 77.1473C48.3532 76.8734 48.395 76.5866 48.408 76.3115C48.4209 76.0364 48.4321 75.746 48.4433 75.4633C48.4668 74.8371 48.4874 74.211 48.5133 73.5855C48.5245 73.3192 48.5357 73.053 48.5528 72.7867C48.5628 72.633 48.4756 72.4498 48.3691 72.3438C48.2626 72.2378 48.0825 72.1535 47.9265 72.16C47.7705 72.1665 47.5963 72.2207 47.4838 72.3438C47.3714 72.4669 47.3114 72.6142 47.3002 72.7867H47.2984Z" fill="#333333"/>
<path d="M26.6428 101.209C26.4167 102.195 26.1472 103.169 25.91 104.152C25.7769 104.702 25.6321 105.261 25.5998 105.829C25.5674 106.397 25.7039 106.943 25.9982 107.421C26.2731 107.869 26.6469 108.244 26.9671 108.658L26.8694 108.531C27.0566 108.775 27.2137 109.035 27.3362 109.318L27.2732 109.168C27.4533 109.596 27.5545 110.049 27.6169 110.508L27.5946 110.342C27.7117 111.231 27.7235 112.139 27.7511 113.035C27.7788 113.931 27.7865 114.838 27.7399 115.738C27.7135 116.246 27.6693 116.753 27.6016 117.257L27.624 117.09C27.4833 118.124 27.2396 119.145 26.8358 120.109L26.8988 119.96C26.7122 120.401 26.4939 120.827 26.2408 121.233C26.0677 121.512 26.1719 121.935 26.4656 122.091C26.7593 122.246 27.1378 122.164 27.3226 121.866C28.4027 120.128 28.8348 118.097 28.9719 116.078C29.0396 115.087 29.0355 114.094 29.0055 113.102C28.9754 112.11 28.9601 111.025 28.8 110.004C28.7082 109.419 28.534 108.838 28.2385 108.322C27.9589 107.833 27.5557 107.432 27.2126 106.991L27.3103 107.117C27.1531 106.913 27.0118 106.698 26.9106 106.46L26.9736 106.61C26.9129 106.461 26.8712 106.308 26.847 106.148L26.8694 106.315C26.8358 106.064 26.8458 105.813 26.8782 105.563L26.8559 105.729C26.9065 105.36 26.9959 104.996 27.0825 104.633C27.1637 104.291 27.2496 103.949 27.3373 103.608C27.5133 102.92 27.6929 102.234 27.8512 101.542C27.9242 101.223 27.7535 100.848 27.4139 100.77C27.0948 100.698 26.7216 100.866 26.6434 101.208L26.6428 101.209Z" fill="#333333"/>
<path d="M28.4694 100.852C28.5253 101.924 28.5812 102.996 28.6365 104.069C28.6506 104.341 28.6606 104.614 28.6265 104.885L28.6489 104.718C28.6271 104.873 28.5906 105.025 28.5312 105.17L28.5941 105.021C28.5259 105.18 28.4352 105.328 28.3493 105.478C28.2416 105.667 28.1468 105.868 28.085 106.077C27.9584 106.505 27.9784 106.943 28.042 107.378C28.0938 107.731 28.1933 108.074 28.2922 108.415C28.3911 108.757 28.49 109.127 28.5688 109.489C28.6589 109.899 28.7313 110.312 28.7878 110.728L28.7654 110.561C28.8943 111.526 28.9326 112.504 28.8761 113.477C28.8602 113.751 28.8366 114.025 28.806 114.298C28.7896 114.447 28.8879 114.64 28.9897 114.741C29.0986 114.85 29.2763 114.932 29.4323 114.925C29.5883 114.919 29.7625 114.864 29.875 114.741L29.9727 114.615C30.0292 114.517 30.058 114.411 30.058 114.298C30.164 113.354 30.1822 112.399 30.111 111.451C30.0398 110.503 29.8767 109.476 29.6219 108.517C29.49 108.02 29.3181 107.53 29.2457 107.02L29.2681 107.186C29.2387 106.964 29.2298 106.741 29.2575 106.519L29.2351 106.685C29.2563 106.532 29.2946 106.383 29.3534 106.24L29.2905 106.39C29.3552 106.238 29.4406 106.097 29.5224 105.954C29.6266 105.772 29.7202 105.582 29.7843 105.382C29.8973 105.031 29.9115 104.647 29.8985 104.28C29.8726 103.552 29.8243 102.824 29.7867 102.097C29.7649 101.682 29.7437 101.267 29.7219 100.853C29.7131 100.687 29.6578 100.529 29.5383 100.41C29.4294 100.301 29.2516 100.219 29.0956 100.226C28.9397 100.232 28.7654 100.287 28.653 100.41C28.5406 100.533 28.4611 100.687 28.4694 100.853V100.852Z" fill="#333333"/>
<path d="M30.0829 99.7676C29.8751 100.401 29.9687 101.089 30.1741 101.71C30.3619 102.278 30.6338 102.816 30.8057 103.39C30.9058 103.723 30.9747 104.065 31.0212 104.41L30.9988 104.243C31.1242 105.194 31.08 106.156 31.0335 107.11C31.0176 107.438 31.3331 107.752 31.6598 107.737C32.013 107.721 32.269 107.461 32.2861 107.11C32.3279 106.255 32.3685 105.395 32.2861 104.54C32.2408 104.071 32.1689 103.602 32.0406 103.148C31.9282 102.75 31.7663 102.37 31.6121 101.988C31.4426 101.569 31.279 101.142 31.2166 100.692L31.2389 100.858C31.2136 100.664 31.2095 100.469 31.2348 100.274L31.2125 100.44C31.2289 100.325 31.2548 100.212 31.2913 100.102C31.3408 99.9514 31.3066 99.7523 31.2283 99.6186C31.1501 99.4849 31.0035 99.3647 30.854 99.3305C30.5096 99.2522 30.193 99.4348 30.0835 99.7682L30.0829 99.7676Z" fill="#333333"/>
<path d="M31.6732 98.1274C31.5307 98.8013 31.5996 99.4793 31.7762 100.14C31.9327 100.727 32.1617 101.292 32.3312 101.875C32.4301 102.216 32.5025 102.563 32.5502 102.916L32.5278 102.749C32.6744 103.872 32.5796 105.008 32.4301 106.126L32.4525 105.959C32.2559 107.412 31.9357 108.848 31.493 110.245C31.2788 110.923 31.0322 111.593 30.8803 112.289C30.7961 112.675 30.7367 113.072 30.7226 113.467C30.7084 113.862 30.7508 114.257 30.8226 114.646C30.9668 115.428 31.2764 116.168 31.5837 116.898C31.6502 117.056 31.7173 117.182 31.8715 117.273C32.0057 117.351 32.2035 117.384 32.3542 117.336C32.5049 117.287 32.652 117.192 32.7285 117.048C32.8051 116.903 32.8551 116.716 32.7915 116.565C32.4543 115.762 32.1158 114.947 31.9934 114.079L32.0157 114.246C31.9598 113.828 31.9628 113.41 32.0157 112.993L31.9934 113.159C32.1164 112.248 32.449 111.385 32.7227 110.511C32.9964 109.638 33.2324 108.713 33.4119 107.797C33.5914 106.88 33.7415 105.874 33.8151 104.904C33.8887 103.934 33.8652 102.954 33.6574 102.001C33.4496 101.049 32.9834 100.137 32.851 99.1529L32.8733 99.3196C32.838 99.0422 32.8327 98.7642 32.8698 98.4867L32.8474 98.6534C32.8569 98.5886 32.8686 98.5244 32.8822 98.4608C32.9169 98.2959 32.9063 98.1269 32.8192 97.9778C32.7433 97.8477 32.5943 97.724 32.4448 97.6898C32.1305 97.6179 31.7467 97.7846 31.6743 98.1274H31.6732Z" fill="#333333"/>
<path d="M24.6192 101.088C24.5357 101.823 24.4933 102.563 24.4945 103.303C24.4956 104.043 24.5498 104.763 24.6175 105.493C24.6557 105.903 24.6805 106.315 24.6275 106.725L24.6499 106.558C24.5963 106.937 24.4639 107.293 24.3291 107.649C24.1943 108.004 24.0836 108.343 24.0047 108.704C23.8387 109.468 23.7905 110.256 23.8335 111.035C23.9194 112.584 24.3214 114.083 24.6958 115.581C24.9053 116.419 25.1019 117.263 25.2173 118.121L25.1949 117.954C25.2438 118.326 25.2773 118.699 25.2903 119.074C25.3015 119.402 25.5704 119.716 25.9166 119.701C26.2627 119.685 26.5546 119.425 26.5428 119.074C26.4751 117.107 25.8577 115.231 25.4315 113.325C25.3179 112.818 25.2214 112.307 25.1519 111.791L25.1743 111.958C25.0625 111.11 25.0277 110.25 25.1413 109.4L25.119 109.567C25.1914 109.043 25.3268 108.539 25.5128 108.045C25.6064 107.795 25.7047 107.546 25.7753 107.289C25.8589 106.983 25.9007 106.661 25.9089 106.345C25.9236 105.796 25.8383 105.25 25.7982 104.704C25.7582 104.158 25.74 103.569 25.7482 103C25.7576 102.361 25.7994 101.723 25.8712 101.088C25.8883 100.939 25.7894 100.746 25.6876 100.645C25.5787 100.536 25.4009 100.454 25.2449 100.461C25.089 100.467 24.9147 100.521 24.8023 100.645C24.6828 100.775 24.6387 100.913 24.6187 101.088L24.6192 101.088Z" fill="#333333"/>
<path d="M33.3219 96.4935C33.1635 97.347 33.3001 98.1893 33.582 99.0021C33.8434 99.7549 34.1971 100.473 34.4344 101.234C34.5556 101.622 34.6468 102.019 34.711 102.42C34.7198 102.474 34.7269 102.528 34.7351 102.582C34.7463 102.654 34.7281 102.533 34.7287 102.53C34.7275 102.552 34.7345 102.579 34.7375 102.6C34.7504 102.708 34.7622 102.817 34.7716 102.925C34.7893 103.127 34.8017 103.33 34.8081 103.532C34.8211 103.941 34.8117 104.349 34.7858 104.756C34.7722 104.969 34.754 105.182 34.7316 105.394C34.7216 105.489 34.711 105.584 34.6998 105.678C34.6933 105.734 34.6857 105.789 34.6792 105.844C34.6704 105.917 34.6845 105.798 34.6857 105.795C34.6745 105.82 34.6763 105.863 34.6727 105.89C34.4355 107.578 33.977 109.221 33.6509 110.891C33.4755 111.79 33.3431 112.702 33.3178 113.618C33.2924 114.534 33.359 115.402 33.4231 116.291C33.552 118.077 33.6174 119.865 33.6003 121.656C33.5979 121.878 33.5944 122.1 33.5903 122.321C33.5838 122.649 33.8828 122.963 34.2166 122.948C34.5503 122.933 34.8358 122.673 34.8429 122.321C34.8782 120.54 34.8393 118.757 34.724 116.979C34.6663 116.088 34.5839 115.198 34.568 114.305C34.5603 113.866 34.5691 113.426 34.6039 112.987C34.6209 112.771 34.6445 112.556 34.671 112.341C34.6863 112.215 34.6574 112.434 34.6751 112.309C34.6833 112.251 34.6916 112.193 34.7004 112.136C34.7163 112.028 34.7334 111.921 34.7516 111.815C35.0347 110.127 35.5127 108.479 35.7935 106.791C36.0742 105.103 36.199 103.351 35.8382 101.65C35.6716 100.863 35.3655 100.131 35.0653 99.3891C34.9158 99.0198 34.771 98.647 34.6616 98.2635C34.6092 98.0803 34.5644 97.8948 34.5321 97.7069C34.525 97.6645 34.5215 97.6203 34.5121 97.5779C34.5121 97.5779 34.5262 97.7086 34.5209 97.6368C34.5191 97.615 34.5162 97.5938 34.5138 97.572C34.5044 97.4713 34.4985 97.3705 34.4979 97.2692C34.4973 97.182 34.4997 97.0955 34.5062 97.0083C34.5079 96.9877 34.5274 96.8174 34.5132 96.917C34.4991 97.0165 34.5262 96.8451 34.5303 96.8251C34.5897 96.5041 34.442 96.1336 34.093 96.0541C33.7857 95.984 33.3866 96.1471 33.3225 96.4917L33.3219 96.4935Z" fill="#333333"/>
<path d="M35.0672 94.9893C35.1767 95.6225 35.4569 96.2174 35.7594 96.7787C35.9036 97.0462 36.0555 97.31 36.2009 97.5769C36.2762 97.7153 36.3492 97.8543 36.4193 97.9957C36.4499 98.0581 36.4799 98.1211 36.5087 98.1848C36.5234 98.2166 36.5376 98.2484 36.5517 98.2802C36.6082 98.4092 36.5022 98.1565 36.5558 98.2908C36.6894 98.6224 36.7824 98.9658 36.8325 99.3204L36.8101 99.1537C36.9378 100.127 36.7583 101.101 36.6453 102.066C36.5894 102.545 36.5482 103.028 36.5682 103.51C36.5905 104.04 36.6918 104.558 36.8401 105.066C36.9967 105.602 37.185 106.131 37.2639 106.686L37.2415 106.519C37.2792 106.803 37.2845 107.087 37.248 107.37L37.2704 107.203C37.2345 107.463 37.168 107.716 37.0773 107.962C37.0667 107.991 37.0555 108.02 37.0444 108.049C37.0367 108.068 37.0291 108.087 37.0214 108.106C36.9973 108.168 37.0602 108.019 37.055 108.028C37.022 108.085 37.0002 108.153 36.972 108.212C36.9143 108.335 36.8519 108.457 36.7871 108.576C36.527 109.056 36.2232 109.511 35.9466 109.981C35.6493 110.485 35.3768 111.018 35.2191 111.584C35.0478 112.198 35.0337 112.844 35.0637 113.476C35.096 114.155 35.1732 114.838 35.0866 115.516L35.109 115.349C35.0825 115.543 35.0425 115.735 34.9813 115.921C34.9671 115.963 34.9524 116.005 34.9359 116.047C34.9195 116.089 34.8736 116.164 34.9542 116.006C34.9442 116.026 34.9359 116.047 34.9259 116.067C34.8818 116.16 34.8312 116.25 34.7758 116.337C34.6004 116.614 34.7087 117.04 35.0007 117.194C35.3097 117.358 35.6699 117.266 35.8577 116.969C36.5605 115.86 36.351 114.535 36.308 113.296C36.2962 112.953 36.2998 112.611 36.3427 112.27L36.3204 112.437C36.3574 112.162 36.4228 111.893 36.517 111.632C36.5399 111.567 36.5652 111.504 36.5905 111.441C36.6306 111.342 36.5329 111.572 36.5764 111.474C36.5917 111.441 36.6064 111.407 36.6217 111.374C36.6794 111.248 36.7412 111.125 36.8066 111.004C37.0644 110.521 37.3681 110.065 37.6471 109.595C37.9426 109.099 38.2151 108.575 38.3758 108.017C38.5659 107.355 38.5547 106.68 38.4105 106.01C38.251 105.271 37.9461 104.57 37.8402 103.819L37.8625 103.986C37.6877 102.671 38.0662 101.374 38.1039 100.063C38.1233 99.3958 38.0468 98.7143 37.8137 98.0858C37.5906 97.4862 37.2769 96.9337 36.9672 96.3759C36.8066 96.0861 36.6523 95.7939 36.5175 95.4911C36.5093 95.4723 36.484 95.4122 36.5217 95.5023C36.5617 95.5972 36.5287 95.5182 36.5205 95.4976C36.5052 95.4605 36.4905 95.4228 36.4763 95.3851C36.4457 95.3044 36.4181 95.2231 36.3922 95.1413C36.3421 94.9816 36.3033 94.8196 36.2745 94.6553C36.2491 94.5092 36.1096 94.3525 35.9866 94.2807C35.8524 94.2023 35.6546 94.1688 35.504 94.2177C35.1555 94.3308 35.0066 94.6418 35.0666 94.9887L35.0672 94.9893Z" fill="#333333"/>
<path d="M37.0143 92.849C36.8977 94.1266 37.172 95.4277 37.7471 96.5704C38.0414 97.1542 38.4411 97.6648 38.8484 98.1732C38.8943 98.2309 38.9408 98.2886 38.9867 98.3463C39.012 98.3782 39.0368 98.4094 39.0615 98.4412L39.0862 98.473C39.1274 98.526 39.1192 98.5154 39.0621 98.4418C39.0815 98.4418 39.1698 98.5849 39.1827 98.6026C39.2381 98.678 39.2922 98.7545 39.3446 98.8323C39.4976 99.0591 39.633 99.2976 39.7484 99.5456C39.7625 99.5762 39.7766 99.6069 39.7902 99.6375C39.8585 99.7924 39.7519 99.5391 39.7925 99.6416C39.8167 99.7035 39.8414 99.7653 39.8643 99.8277C39.9132 99.9626 39.9568 100.099 39.9956 100.237C40.0757 100.524 40.1333 100.817 40.174 101.112L40.1516 100.945C40.3282 102.265 40.1687 103.602 40.0203 104.916C39.872 106.23 39.7054 107.615 39.8655 108.962C39.915 109.377 39.9821 109.789 40.0933 110.193C40.2046 110.596 40.3806 111.012 40.4424 111.443L40.42 111.276C40.4412 111.446 40.443 111.615 40.42 111.784L40.4424 111.618C40.4241 111.742 40.3947 111.864 40.3547 111.983C40.3441 112.015 40.3335 112.045 40.3217 112.076C40.317 112.089 40.3111 112.102 40.3064 112.115C40.2852 112.177 40.3429 112.016 40.3423 112.031C40.3399 112.085 40.2758 112.175 40.2511 112.223C40.131 112.457 39.9856 112.677 39.8355 112.893C39.5059 113.369 39.1727 113.826 38.9532 114.366C38.8278 114.674 38.7631 115.013 38.7713 115.346C38.7795 115.679 39.0532 115.988 39.3976 115.973C39.7419 115.958 40.0327 115.697 40.0239 115.346C40.0215 115.252 40.0262 115.159 40.0374 115.065L40.015 115.232C40.0403 115.046 40.0969 114.874 40.161 114.699C40.0839 114.91 40.1422 114.746 40.1669 114.695C40.1875 114.653 40.2087 114.611 40.2311 114.569C40.2764 114.484 40.3246 114.401 40.3753 114.32C40.5854 113.98 40.8303 113.663 41.0504 113.33C41.2835 112.978 41.493 112.594 41.6025 112.184C41.752 111.624 41.6779 111.062 41.5066 110.516C41.3353 109.97 41.1881 109.478 41.1122 108.932L41.1346 109.098C40.8656 107.092 41.3212 105.084 41.4483 103.085C41.5119 102.087 41.4901 101.071 41.2523 100.095C41.1305 99.5963 40.9433 99.108 40.7008 98.655C40.42 98.1308 40.0403 97.6696 39.6701 97.2072C39.6195 97.1441 39.5695 97.0811 39.5194 97.0181C39.5 96.9934 39.4541 96.9521 39.4453 96.9227L39.4941 96.9857C39.4776 96.9645 39.4617 96.9427 39.4453 96.9215C39.3499 96.7943 39.2575 96.6653 39.1704 96.5321C39.0032 96.2765 38.8555 96.0085 38.7283 95.7311C38.7177 95.7081 38.7071 95.6845 38.6971 95.6616C38.6865 95.6386 38.6765 95.615 38.6665 95.5915C38.7048 95.6828 38.7113 95.6975 38.6854 95.6356C38.6571 95.565 38.6288 95.4937 38.603 95.4218C38.5506 95.2787 38.5029 95.1332 38.4611 94.9865C38.3769 94.6926 38.3151 94.3934 38.2733 94.0906L38.2957 94.2573C38.2339 93.7896 38.2233 93.3184 38.2657 92.8484C38.2957 92.5209 37.9561 92.2075 37.6394 92.2217C37.2745 92.2381 37.0449 92.4979 37.0131 92.8484L37.0143 92.849Z" fill="#333333"/>
<path d="M38.8707 90.1807C38.7347 91.5178 39.4063 92.7489 39.9884 93.901C40.1485 94.2173 40.3051 94.536 40.4434 94.8629L40.3804 94.7133C40.5676 95.1591 40.7142 95.6192 40.7807 96.0998L40.7583 95.9331C40.9137 97.097 40.6906 98.3316 41.1427 99.4473C41.2828 99.7936 41.4653 100.119 41.6106 100.463L41.5477 100.313C41.6548 100.571 41.7242 100.84 41.7619 101.116L41.7395 100.949C41.8167 101.545 41.7543 102.147 41.6748 102.74L41.6972 102.573C41.5683 103.533 41.4311 104.492 41.2975 105.451C41.2716 105.534 41.2675 105.618 41.2863 105.701C41.2898 105.785 41.3152 105.862 41.3605 105.934C41.4364 106.064 41.5853 106.188 41.7348 106.222C41.8949 106.259 42.0751 106.251 42.2175 106.159C42.3441 106.077 42.4836 105.941 42.5053 105.785C42.6289 104.895 42.7531 104.005 42.8762 103.115C42.9992 102.225 43.124 101.299 42.8968 100.403C42.772 99.9108 42.5065 99.4785 42.3081 99.0167L42.3711 99.1663C42.2434 98.8624 42.1663 98.5437 42.1221 98.218L42.1445 98.3847C42.0851 97.9288 42.0845 97.4687 42.0762 97.0093C42.0674 96.5033 42.0415 95.9973 41.9438 95.4996C41.7813 94.6744 41.3934 93.9063 41.0156 93.1618C40.8131 92.763 40.6082 92.3654 40.4334 91.9537L40.4964 92.1033C40.3186 91.6815 40.1744 91.2451 40.1126 90.7903L40.135 90.957C40.1014 90.699 40.0961 90.4399 40.122 90.1813C40.1373 90.0311 40.0414 89.8408 39.9384 89.7383C39.8295 89.6294 39.6517 89.5481 39.4958 89.5546C39.3398 89.561 39.1655 89.6152 39.0531 89.7383C38.9342 89.8679 38.8871 90.0075 38.8695 90.1813L38.8707 90.1807Z" fill="#333333"/>
<path d="M41.2057 87.0525C41.1481 87.8877 41.0969 88.7318 41.1981 89.5658C41.2534 90.0235 41.3341 90.4765 41.4942 90.91C41.6543 91.3435 41.8679 91.7464 42.1393 92.1246C42.4206 92.5163 42.7285 92.8927 42.9198 93.3391L42.8568 93.1895C43.0093 93.5541 43.0869 93.9423 43.1399 94.3322L43.1176 94.1656C43.3159 95.6558 43.3406 97.1766 43.2265 98.6745C43.1941 99.101 43.1493 99.5263 43.0928 99.9498L43.1152 99.7831C43.0899 99.9733 43.0616 100.164 43.0316 100.353C43.004 100.525 43.0034 100.68 43.0946 100.836C43.1705 100.966 43.3195 101.09 43.469 101.124C43.6291 101.161 43.8092 101.153 43.9516 101.061C44.0799 100.978 44.2141 100.845 44.2395 100.687C44.4631 99.2836 44.5708 97.864 44.5391 96.4427C44.5232 95.7536 44.4767 95.0644 44.3972 94.3794C44.3554 94.0171 44.3089 93.6525 44.2153 93.2991C44.1217 92.9457 43.9822 92.6152 43.7968 92.3089C43.6214 92.0203 43.4107 91.7553 43.2141 91.4814C43.0175 91.2075 42.8439 90.92 42.7114 90.6084L42.7744 90.758C42.6043 90.351 42.5001 89.921 42.4401 89.4846L42.4624 89.6513C42.3482 88.7889 42.3994 87.9166 42.4589 87.0519C42.4695 86.8981 42.3812 86.715 42.2753 86.6089C42.1693 86.5029 41.9886 86.4187 41.8326 86.4252C41.6766 86.4316 41.5024 86.4858 41.39 86.6089C41.2776 86.732 41.2187 86.8787 41.2063 87.0519L41.2057 87.0525Z" fill="#333333"/>
<path d="M42.7109 84.3241C42.6479 84.6622 42.6226 85.0026 42.6509 85.3454C42.6791 85.6882 42.7392 86.0305 42.8204 86.3656C42.9634 86.9558 43.1571 87.5319 43.2842 88.1262C43.3572 88.4679 43.4149 88.8118 43.462 89.1582L43.4396 88.9915C43.5644 89.9204 43.6097 90.8569 43.6545 91.7923C43.6621 91.9578 43.7192 92.1163 43.8381 92.2353C43.947 92.3442 44.1248 92.4255 44.2808 92.419C44.4367 92.4126 44.611 92.3584 44.7234 92.2353C44.8358 92.1122 44.9147 91.959 44.907 91.7923C44.8676 90.9606 44.827 90.1283 44.731 89.3007C44.6775 88.8425 44.6121 88.3842 44.5209 87.9318C44.4397 87.5278 44.3308 87.1314 44.2178 86.7349C44.0906 86.2896 43.9653 85.8426 43.9029 85.3831L43.9252 85.5498C43.887 85.2524 43.8776 84.9525 43.9146 84.6545L43.8923 84.8212C43.8993 84.7664 43.9082 84.7122 43.9182 84.6586C43.9494 84.4902 43.9441 84.3282 43.8552 84.1756C43.7793 84.0454 43.6303 83.9218 43.4808 83.8876C43.3207 83.8511 43.1406 83.8587 42.9982 83.9506C42.8675 84.0348 42.7398 84.1668 42.7103 84.3252L42.7109 84.3241Z" fill="#333333"/>
<path d="M43.7375 82.5146C43.7604 82.9887 43.8693 83.4494 44.0441 83.8894C44.2189 84.3294 44.4361 84.7605 44.6492 85.1888C44.7593 85.4102 44.8664 85.6323 44.9635 85.8603L44.9005 85.7106C45.0883 86.1559 45.2113 86.616 45.2773 87.0948L45.2549 86.9282C45.3202 87.4159 45.3361 87.9083 45.3508 88.4001C45.3661 88.9179 45.382 89.4362 45.3973 89.954C45.4279 90.9742 45.4786 91.9961 45.4697 93.0169C45.465 93.573 45.4327 94.1278 45.3591 94.6797L45.3814 94.513C45.2384 95.5662 44.9571 96.5976 44.5456 97.5777L44.6086 97.4281C44.5562 97.5512 44.5026 97.6738 44.4461 97.7957C44.3737 97.9524 44.3355 98.1061 44.3832 98.2787C44.4232 98.4242 44.5356 98.5814 44.671 98.6533C44.8164 98.7299 44.9924 98.7688 45.1537 98.7163C45.3002 98.6686 45.4609 98.5738 45.528 98.4283C45.9471 97.5177 46.2714 96.567 46.4668 95.5827C46.6623 94.5985 46.7347 93.5518 46.7211 92.5251C46.7076 91.4984 46.6652 90.4588 46.634 89.4262C46.6028 88.3936 46.624 87.3416 46.4109 86.3279C46.1978 85.3142 45.6316 84.459 45.2366 83.5236L45.2996 83.6732C45.1554 83.328 45.0395 82.9711 44.9894 82.5988L45.0118 82.7655C45.0012 82.6825 44.9941 82.5994 44.99 82.5158C44.9818 82.3502 44.9259 82.1918 44.8064 82.0728C44.6975 81.9638 44.5197 81.8826 44.3637 81.889C44.2077 81.8955 44.0335 81.9497 43.9211 82.0728C43.8087 82.1959 43.7298 82.3491 43.7375 82.5158V82.5146Z" fill="#333333"/>
<path d="M45.3066 78.9201C45.1159 79.5044 45.1306 80.1252 45.2525 80.7213C45.3743 81.3174 45.5974 81.824 45.8258 82.3523C45.9494 82.6374 46.0777 82.9201 46.1984 83.2064L46.1354 83.0568C46.4827 83.8803 46.7063 84.7355 46.8264 85.6202L46.804 85.4535C46.9306 86.3972 46.9541 87.3508 46.9589 88.3021C46.9636 89.2534 46.9477 90.2258 46.9953 91.1865C47.0242 91.7732 47.0813 92.3569 47.1684 92.9377C47.1902 93.0826 47.3362 93.2417 47.4562 93.3123C47.5904 93.3907 47.7882 93.4242 47.9389 93.3754C48.0896 93.3265 48.2367 93.2322 48.3133 93.0873L48.3762 92.9377C48.4063 92.8264 48.4063 92.7157 48.3762 92.6043C48.3656 92.5342 48.3556 92.4647 48.3462 92.3946L48.3686 92.5613C48.179 91.1318 48.2191 89.6869 48.2114 88.2485C48.2038 86.8101 48.1443 85.2969 47.7517 83.8791C47.5269 83.0668 47.1566 82.3117 46.8299 81.5383L46.8929 81.6879C46.6828 81.1878 46.4915 80.673 46.4167 80.1329L46.4391 80.2996C46.4056 80.041 46.4003 79.7806 46.435 79.5221L46.4126 79.6887C46.4338 79.5403 46.468 79.3954 46.5145 79.2535C46.6163 78.9419 46.3961 78.5555 46.0771 78.4824C45.7328 78.4041 45.4161 78.5861 45.3066 78.9201Z" fill="#333333"/>
<path d="M4.50988 68.3573C4.53048 68.5322 4.52812 68.7054 4.50576 68.8797L4.52812 68.713C4.49399 68.9451 4.42453 69.1648 4.34095 69.3834C4.30445 69.4794 4.36037 69.3398 4.36272 69.3321C4.35213 69.3598 4.33859 69.3869 4.32682 69.414C4.30445 69.4635 4.2815 69.5123 4.25795 69.5612C4.20203 69.6761 4.14317 69.7898 4.08313 69.9023C3.83415 70.3706 3.5734 70.8318 3.39505 71.333C3.20139 71.8755 3.11958 72.4534 3.06542 73.0247C3.01127 73.5961 2.99185 74.135 2.96124 74.6905C2.89708 75.852 2.83351 77.0142 2.76935 78.1757C2.70519 79.3373 2.58688 80.4435 2.93828 81.5138C3.12899 82.0945 3.4592 82.5934 3.77411 83.1106C3.84298 83.2237 3.91008 83.3386 3.97306 83.4552C4.00603 83.5164 4.03722 83.5777 4.06724 83.6401C4.08078 83.6684 4.09314 83.6973 4.10668 83.7256C4.13317 83.7809 4.05017 83.5824 4.10197 83.715C4.18908 83.937 4.24677 84.1685 4.27973 84.4047L4.25736 84.238C4.30151 84.5814 4.2915 84.9266 4.24677 85.2694L4.26914 85.1027C4.05782 86.6571 3.22199 88.0779 3.20316 89.6671C3.19786 90.1224 3.26673 90.5907 3.43389 91.0148C3.4957 91.172 3.57104 91.301 3.72173 91.3894C3.85593 91.4677 4.0537 91.5013 4.20439 91.4524C4.49928 91.357 4.77063 91.0083 4.64173 90.6814C4.55226 90.4546 4.49222 90.2196 4.45985 89.9775L4.48221 90.1442C4.44101 89.8143 4.4516 89.4821 4.4934 89.1528L4.47103 89.3195C4.62113 88.2051 5.09496 87.1696 5.35395 86.0811C5.48815 85.518 5.57997 84.9225 5.52111 84.3429C5.48933 84.0265 5.43518 83.7144 5.32275 83.4163C5.18914 83.0623 5.01373 82.733 4.81596 82.412C4.61818 82.091 4.41923 81.793 4.25854 81.4619C4.23794 81.4201 4.22381 81.36 4.19497 81.3247C4.19379 81.3235 4.24559 81.4513 4.22087 81.3859C4.21145 81.3606 4.20144 81.3365 4.19203 81.3111C4.1573 81.2175 4.1261 81.1226 4.09961 81.0266C4.04605 80.8346 4.00897 80.6391 3.98189 80.4417L4.00426 80.6084C3.94304 80.1272 3.94716 79.6418 3.96894 79.1582C3.9919 78.6364 4.02486 78.1151 4.0537 77.5938C4.11256 76.5212 4.17201 75.4491 4.23088 74.3765C4.26266 73.8022 4.28444 73.2262 4.35919 72.6548L4.33683 72.8215C4.39333 72.4021 4.48045 71.9851 4.63054 71.5881C4.64761 71.5427 4.73061 71.3855 4.63878 71.5616C4.66115 71.5192 4.67763 71.4726 4.69764 71.4296C4.73826 71.3413 4.78182 71.2541 4.82596 71.1675C4.91013 71.0038 4.99843 70.8418 5.08613 70.6798C5.46873 69.9712 5.86133 69.1872 5.76244 68.3561C5.74184 68.1841 5.70594 68.0404 5.5788 67.9131C5.4699 67.8042 5.29214 67.7229 5.13616 67.7294C4.98018 67.7358 4.80595 67.79 4.69352 67.9131C4.58875 68.0274 4.49104 68.1953 4.50988 68.3561V68.3573Z" fill="#333333"/>
<path d="M5.26095 73.479C4.90072 75.0022 4.54579 76.5354 4.43748 78.1017C4.38451 78.8621 4.40276 79.6231 4.49517 80.38C4.58758 81.1369 4.74415 81.9574 4.90543 82.7402C5.05729 83.4765 5.20445 84.214 5.32276 84.9568C5.35336 85.1482 5.38221 85.3396 5.40987 85.5316C5.42223 85.62 5.43283 85.7089 5.44695 85.7973C5.44695 85.7973 5.42988 85.6689 5.4393 85.7413C5.44225 85.7637 5.44519 85.7855 5.44813 85.8079C5.45461 85.8597 5.46167 85.9116 5.46814 85.9634C5.51582 86.3404 5.55761 86.7185 5.59352 87.0967C5.73714 88.6028 5.78835 90.1178 5.74773 91.6298C5.72713 92.3897 5.68358 93.1489 5.61647 93.9064C5.58292 94.2852 5.54349 94.6633 5.49875 95.0403C5.48816 95.1292 5.47697 95.2176 5.46579 95.3065C5.4599 95.3507 5.45461 95.3955 5.44872 95.4397C5.44578 95.462 5.44283 95.4838 5.43989 95.5062C5.42812 95.5946 5.45696 95.3843 5.4446 95.4726C5.41752 95.6647 5.39104 95.8567 5.36161 96.0481C5.33217 96.2396 5.30392 96.4163 5.27331 96.6C5.24447 96.7709 5.24565 96.9281 5.33629 97.083C5.41223 97.2132 5.56114 97.3369 5.71065 97.3711C6.0132 97.44 6.42287 97.2792 6.48115 96.9334C6.73778 95.4008 6.90671 93.8528 6.97676 92.3007C7.0468 90.7487 7.02031 89.259 6.90259 87.7429C6.78487 86.2267 6.56708 84.6516 6.26159 83.129C6.11267 82.3857 5.94727 81.6453 5.82425 80.8972C5.80954 80.8094 5.796 80.7217 5.78246 80.6333C5.77599 80.5891 5.76951 80.5455 5.76304 80.5014C5.7601 80.4796 5.75715 80.4572 5.75362 80.4354C5.74126 80.3476 5.76892 80.5579 5.75833 80.4696C5.73655 80.2852 5.71477 80.1014 5.69888 79.917C5.66651 79.5371 5.65415 79.156 5.66062 78.7755C5.66709 78.395 5.69182 78.0127 5.73066 77.6334C5.73949 77.5439 5.7495 77.4549 5.7601 77.3654C5.76539 77.3206 5.77069 77.2759 5.77658 77.2317C5.77952 77.2093 5.78246 77.1869 5.78541 77.1645C5.79541 77.0838 5.76716 77.2959 5.78423 77.1751C5.81072 76.989 5.83897 76.8035 5.87017 76.6185C5.9979 75.861 6.16506 75.1106 6.33988 74.3625C6.38285 74.1793 6.42582 73.9967 6.46937 73.8136C6.54472 73.4949 6.3699 73.1197 6.03203 73.0425C5.69417 72.9654 5.34218 73.1391 5.26154 73.4802L5.26095 73.479Z" fill="#333333"/>
<path d="M6.50355 77.5702C6.51473 77.6321 6.52415 77.6939 6.53298 77.7564L6.51061 77.5897C6.66542 78.7442 6.45411 79.921 6.32814 81.0685C6.26516 81.6416 6.21219 82.22 6.2322 82.7973C6.25633 83.4929 6.42644 84.155 6.62539 84.8182C6.84436 85.548 7.01623 86.2837 7.11806 87.0394L7.09569 86.8727C7.32054 88.5644 7.25109 90.2767 7.11806 91.9725C7.08039 92.4526 7.03742 92.932 6.99386 93.4115C6.98033 93.5629 7.07333 93.7508 7.17751 93.8545C7.2817 93.9581 7.46417 94.0447 7.62015 94.0382C7.77613 94.0318 7.95036 93.9776 8.06278 93.8545C8.17521 93.7314 8.23054 93.5853 8.24643 93.4115C8.3671 92.0785 8.48482 90.7432 8.49365 89.4038C8.50248 88.0643 8.39182 86.6383 8.06102 85.3C7.88149 84.5732 7.60308 83.8693 7.50125 83.1248L7.52362 83.2915C7.42473 82.5281 7.50419 81.7494 7.58895 80.9889C7.67371 80.2285 7.78967 79.418 7.81027 78.6264C7.82204 78.1604 7.79261 77.6963 7.71079 77.2369C7.6849 77.0902 7.54657 76.9347 7.42296 76.8622C7.28876 76.7839 7.09099 76.7503 6.9403 76.7992C6.78962 76.8481 6.64246 76.9423 6.56594 77.0872C6.48295 77.2439 6.47176 77.3959 6.50296 77.5702H6.50355Z" fill="#333333"/>
<path d="M8.87389 82.7458C8.85918 83.0291 8.83092 83.3112 8.79325 83.5928L8.81562 83.4261C8.61078 84.9258 8.15579 86.3789 7.99097 87.8856C7.9068 88.6584 7.92269 89.4336 8.07103 90.1987C8.21936 90.9639 8.48659 91.6395 8.72497 92.3493C8.98514 93.1238 9.17762 93.9149 9.28651 94.7254L9.26414 94.5587C9.40953 95.6637 9.40776 96.7852 9.25943 97.8902L9.2818 97.7235C9.14524 98.7213 8.88979 99.7009 8.51602 100.636C8.45951 100.778 8.50601 100.994 8.579 101.119C8.65199 101.245 8.80385 101.373 8.95336 101.407C9.11346 101.444 9.29357 101.436 9.43602 101.344C9.57846 101.252 9.65969 101.13 9.72385 100.97C10.2883 99.5566 10.5844 98.034 10.6221 96.5137C10.6597 94.9881 10.4184 93.4613 9.9334 92.0165C9.65792 91.1965 9.34066 90.3849 9.22353 89.5225L9.2459 89.6892C9.15466 88.993 9.18703 88.2903 9.28004 87.5964L9.25767 87.7631C9.43249 86.4855 9.80096 85.245 9.99402 83.9709C10.0558 83.5651 10.1059 83.1569 10.127 82.7464C10.1441 82.4183 9.82686 82.1049 9.50076 82.1196C9.14701 82.1355 8.89273 82.3953 8.87448 82.7464L8.87389 82.7458Z" fill="#333333"/>
<path d="M10.1359 85.0519C10.0164 85.9343 9.97642 86.8196 9.93698 87.7084C9.91815 88.1237 9.89696 88.5389 9.86046 88.953C9.85163 89.0549 9.84163 89.1568 9.83044 89.2581C9.82456 89.3129 9.81808 89.3677 9.81161 89.4225C9.80866 89.446 9.80572 89.4696 9.80278 89.4932C9.79336 89.5727 9.79925 89.5108 9.8069 89.4672C9.76393 89.7129 9.73862 89.9632 9.7086 90.2106C9.65857 90.6253 9.62149 91.0429 9.62855 91.4611C9.6362 91.9111 9.69977 92.3611 9.79748 92.7999C9.97348 93.5898 10.2431 94.3532 10.3726 95.1543C10.3808 95.2067 10.389 95.2591 10.3967 95.3121C10.3996 95.3339 10.4008 95.3581 10.4061 95.3799C10.4061 95.3787 10.3902 95.2538 10.399 95.3263C10.4114 95.4317 10.4244 95.5372 10.4349 95.6432C10.455 95.847 10.4691 96.0514 10.4785 96.2564C10.4973 96.6669 10.4962 97.078 10.4809 97.4892C10.4503 98.3109 10.3637 99.129 10.2643 99.9448C10.0782 101.47 9.84751 102.994 9.85222 104.535C9.85693 106.076 10.09 107.592 10.7481 108.979C10.8258 109.142 10.91 109.303 11 109.46C11.1625 109.744 11.5745 109.867 11.857 109.685C12.1396 109.503 12.2555 109.132 12.0819 108.827C11.9918 108.67 11.9077 108.51 11.83 108.346C11.7958 108.274 11.7634 108.201 11.7311 108.128C11.6987 108.055 11.7788 108.244 11.7476 108.167C11.7399 108.149 11.7323 108.13 11.7246 108.112C11.7069 108.069 11.6905 108.025 11.6734 107.982C11.5474 107.653 11.4456 107.316 11.3638 106.974C11.322 106.799 11.2855 106.622 11.2543 106.445C11.239 106.359 11.2249 106.273 11.2119 106.187C11.206 106.148 11.2013 106.107 11.1948 106.068C11.1943 106.064 11.2125 106.206 11.2037 106.134C11.1996 106.101 11.1954 106.068 11.1913 106.034C11.1489 105.678 11.1236 105.321 11.1124 104.963C11.0648 103.464 11.2602 101.978 11.4485 100.494C11.6528 98.8811 11.8482 97.2465 11.6857 95.6202C11.6416 95.179 11.578 94.7378 11.4827 94.3049C11.3973 93.9144 11.2843 93.5303 11.1778 93.1451C11.1236 92.9496 11.0712 92.7528 11.0253 92.5549C11.003 92.4601 10.9824 92.3647 10.9635 92.2686C10.9447 92.1726 10.9047 92.0537 10.9105 91.9582C10.9105 91.9582 10.9259 92.086 10.9182 92.013C10.9158 91.9906 10.9129 91.9682 10.9105 91.9459C10.9058 91.8999 10.9011 91.8546 10.8976 91.8086C10.8888 91.7008 10.8835 91.593 10.8817 91.4847C10.8776 91.2761 10.8841 91.067 10.8982 90.8591C10.9123 90.6512 10.9323 90.4574 10.9559 90.2571C10.9676 90.157 10.9806 90.0569 10.9935 89.9567C11.0094 89.833 10.9788 90.0627 10.9959 89.939C11.0041 89.8772 11.013 89.8154 11.0212 89.7541C11.0824 89.3005 11.1266 88.8464 11.1542 88.3893C11.2054 87.5517 11.2178 86.7124 11.2926 85.8759C11.3008 85.7817 11.3102 85.688 11.3202 85.5938C11.3261 85.539 11.3326 85.4842 11.3391 85.4295C11.3438 85.3912 11.3661 85.2192 11.3438 85.3847C11.3673 85.2098 11.3738 85.0613 11.2808 84.9017C11.2049 84.7715 11.0559 84.6478 10.9064 84.6137C10.7463 84.5771 10.5662 84.5848 10.4238 84.6767C10.2972 84.758 10.1571 84.8946 10.1359 85.0513V85.0519Z" fill="#333333"/>
<path d="M11.6121 87.5197C11.6309 87.5597 11.6486 87.6004 11.6674 87.6404C11.6969 87.7029 11.6398 87.5733 11.6415 87.5774C11.648 87.5951 11.6557 87.6122 11.6627 87.6298C11.6974 87.7164 11.7292 87.8048 11.7575 87.8937C11.8087 88.0528 11.8511 88.2147 11.8858 88.3779C11.9023 88.4568 11.917 88.5358 11.93 88.6153C11.9347 88.6447 11.9553 88.7879 11.9405 88.6789C11.9258 88.5699 11.9447 88.716 11.9476 88.7437C11.967 88.9174 11.9794 89.0924 11.9865 89.2673C12.0153 89.9724 11.9594 90.6775 11.9182 91.3808C11.877 92.0841 11.8475 92.7944 11.93 93.4965C11.9765 93.8924 12.043 94.2829 12.1607 94.664C12.2719 95.0233 12.4173 95.3714 12.5598 95.7189C12.7022 96.0665 12.8382 96.4034 12.94 96.7586C12.993 96.9435 13.036 97.1314 13.0683 97.3211C13.0754 97.3611 13.0813 97.4018 13.0878 97.4424C13.1048 97.552 13.0825 97.41 13.0819 97.3971C13.083 97.4171 13.0866 97.4377 13.0889 97.4577C13.0995 97.552 13.1084 97.6468 13.1148 97.7411C13.1395 98.1139 13.1295 98.4885 13.0948 98.8602C13.086 98.9556 13.0748 99.0511 13.063 99.1459C13.0483 99.266 13.0813 99.0234 13.063 99.1429C13.0548 99.1977 13.0471 99.2519 13.0383 99.3067C13.0089 99.4916 12.9741 99.6754 12.9365 99.8592C12.621 101.386 12.0824 102.856 11.8158 104.395C11.5491 105.934 11.4544 107.652 11.6044 109.284C11.6221 109.479 11.6439 109.673 11.668 109.867C11.6892 110.04 11.7239 110.182 11.8517 110.31C11.9606 110.419 12.1383 110.501 12.2943 110.494C12.4503 110.488 12.6245 110.433 12.7369 110.31C12.8411 110.197 12.9406 110.028 12.9206 109.867C12.8217 109.069 12.7746 108.265 12.7829 107.46C12.787 107.061 12.804 106.663 12.8341 106.265C12.8494 106.063 12.8682 105.861 12.8906 105.659C12.9012 105.566 12.9118 105.472 12.9235 105.379C12.9288 105.337 12.9571 105.175 12.9265 105.352C12.9353 105.302 12.9406 105.251 12.9477 105.201C13.0624 104.414 13.2361 103.638 13.4439 102.87C13.6516 102.102 13.8747 101.365 14.0531 100.603C14.235 99.8274 14.3721 99.0287 14.3798 98.2305C14.3874 97.4324 14.2473 96.6343 13.9642 95.8833C13.7017 95.1876 13.3721 94.5167 13.2284 93.7822C13.2114 93.695 13.1978 93.6079 13.1837 93.5201C13.1649 93.4041 13.199 93.6526 13.1855 93.536C13.1796 93.4853 13.1737 93.4353 13.1684 93.3846C13.1507 93.2073 13.1395 93.0294 13.1337 92.851C13.1225 92.4975 13.1307 92.143 13.1472 91.7901C13.2131 90.3647 13.4127 88.8733 12.9394 87.492C12.8688 87.2864 12.784 87.0856 12.691 86.8894C12.5498 86.5926 12.1018 86.4918 11.834 86.6644C11.5291 86.8612 11.4585 87.2046 11.6092 87.522L11.6121 87.5197Z" fill="#333333"/>
<path d="M13.9694 90.6436C13.8882 91.8935 13.807 93.1435 13.7263 94.3934C13.6846 95.0448 13.671 95.701 13.8535 96.3348C14.013 96.8891 14.2832 97.4045 14.4715 97.9487C14.6811 98.5537 14.8276 99.1798 14.9142 99.8142L14.8918 99.6475C15.0048 100.502 15.0066 101.367 14.8936 102.222L14.9159 102.055C14.6764 103.827 13.8123 105.444 13.6328 107.228C13.5804 107.748 13.6104 108.271 13.7157 108.784C13.7817 109.105 14.179 109.321 14.4862 109.222C14.8265 109.111 14.9948 108.795 14.9236 108.45C14.9042 108.356 14.8877 108.261 14.8747 108.165L14.8971 108.332C14.8406 107.902 14.8512 107.468 14.9077 107.039L14.8853 107.205C15.0919 105.682 15.8 104.283 16.0649 102.772C16.3439 101.181 16.265 99.5332 15.7988 97.9847C15.6752 97.5741 15.5175 97.1789 15.3515 96.7842C15.1855 96.3896 15.0219 95.9672 14.9613 95.5278L14.9836 95.6945C14.9012 95.0525 14.9783 94.3975 15.0201 93.7554C15.0619 93.1134 15.106 92.4278 15.149 91.7645C15.1732 91.3911 15.1973 91.0177 15.2214 90.6448C15.2426 90.3167 14.9183 90.0034 14.5951 90.0181C14.2378 90.034 13.9918 90.2937 13.9689 90.6448L13.9694 90.6436Z" fill="#333333"/>
<path d="M15.7488 92.8411C15.8583 93.6969 15.7882 94.5587 15.6746 95.4104L15.697 95.2437C15.5428 96.3858 15.3121 97.5279 15.3132 98.6842C15.3144 99.8405 15.5816 100.964 15.8359 102.081C15.9795 102.712 16.109 103.345 16.1967 103.986L16.1744 103.819C16.3498 105.125 16.3963 106.445 16.4622 107.759C16.5281 109.074 16.5958 110.407 16.6623 111.731C16.6959 112.4 16.7447 113.075 16.6559 113.741L16.6782 113.575C16.6529 113.755 16.6176 113.933 16.5676 114.109C16.5434 114.193 16.5158 114.276 16.4846 114.358C16.4292 114.504 16.5364 114.253 16.4828 114.365C16.461 114.411 16.4398 114.457 16.4169 114.502C16.2686 114.794 16.3309 115.195 16.6417 115.36C16.9272 115.51 17.3398 115.447 17.4988 115.135C17.9585 114.23 17.9861 113.223 17.9396 112.23C17.8931 111.238 17.8366 110.181 17.7848 109.156C17.733 108.131 17.6859 107.084 17.6259 106.049C17.5659 105.013 17.4734 103.931 17.2833 102.887C17.0932 101.844 16.7695 100.73 16.6205 99.6296L16.6429 99.7963C16.5205 98.8615 16.5723 97.9355 16.6965 97.0037L16.6741 97.1704C16.8672 95.7391 17.1862 94.2895 17.0008 92.8405C16.979 92.6679 16.9455 92.5253 16.8171 92.3975C16.7082 92.2885 16.5305 92.2073 16.3745 92.2137C16.2185 92.2202 16.0443 92.2744 15.9319 92.3975C15.8277 92.5112 15.7282 92.6803 15.7482 92.8405L15.7488 92.8411Z" fill="#333333"/>
<path d="M17.852 95.4418C17.8579 95.4801 17.8638 95.519 17.8691 95.5573L17.8467 95.3906C17.9191 95.9443 17.8997 96.5032 17.8267 97.0558L17.8491 96.8891C17.7266 97.7914 17.47 98.6679 17.2446 99.5485C17.0038 100.488 16.8113 101.44 16.7913 102.414C16.7701 103.443 16.9091 104.469 17.0615 105.485C17.214 106.501 17.3641 107.45 17.5159 108.433C17.6878 109.545 17.8597 110.659 18.0315 111.771C18.0539 111.916 18.1987 112.075 18.3194 112.146C18.4536 112.224 18.6513 112.258 18.802 112.209C18.9527 112.16 19.0999 112.066 19.1764 111.921L19.2394 111.771C19.2694 111.66 19.2694 111.549 19.2394 111.438C18.961 109.635 18.6825 107.832 18.4041 106.028C18.3264 105.524 18.2464 105.021 18.1787 104.515L18.2011 104.681C18.0568 103.599 17.9744 102.502 18.1204 101.415L18.0981 101.581C18.3288 99.9008 18.9963 98.311 19.1264 96.6116C19.1652 96.1068 19.137 95.6085 19.0598 95.1084C19.0375 94.9635 18.8927 94.8045 18.772 94.7338C18.6378 94.6555 18.44 94.6219 18.2894 94.6708C18.1387 94.7197 17.9915 94.8139 17.915 94.9588L17.852 95.1084C17.822 95.2198 17.822 95.3305 17.852 95.4418Z" fill="#333333"/>
<path d="M19.928 97.0229C19.606 98.5897 19.2935 100.158 19.0922 101.745C18.8909 103.333 18.8214 104.833 18.9833 106.374C19.0774 107.273 19.2393 108.161 19.3612 109.057L19.3388 108.89C19.4288 109.561 19.4907 110.235 19.4783 110.913C19.4659 111.591 19.3947 112.248 19.3058 112.91L19.3282 112.743C19.1316 114.198 18.8473 115.653 18.8773 117.127C18.8838 117.454 19.1604 117.769 19.5036 117.754C19.8468 117.738 20.137 117.478 20.1299 117.127C20.1134 116.319 20.1935 115.514 20.3 114.714L20.2776 114.88C20.4201 113.823 20.6073 112.77 20.6908 111.706C20.7303 111.201 20.7438 110.695 20.7185 110.189C20.6902 109.634 20.6196 109.083 20.5419 108.532C20.4589 107.948 20.3612 107.365 20.2823 106.78L20.3047 106.947C20.1169 105.541 20.1105 104.128 20.2382 102.716C20.2747 102.314 20.3212 101.912 20.3747 101.512L20.3524 101.679C20.5484 100.227 20.8409 98.7906 21.1352 97.3557C21.1694 97.1896 21.1594 97.0223 21.0723 96.8727C20.9963 96.7425 20.8474 96.6188 20.6979 96.5847C20.3853 96.5134 19.998 96.6789 19.9274 97.0223L19.928 97.0229Z" fill="#333333"/>
<path d="M21.3478 99.087C21.4908 99.464 21.5867 99.8551 21.6421 100.254L21.6197 100.088C21.7274 100.894 21.6733 101.71 21.5667 102.513L21.5891 102.347C21.3966 103.775 21.067 105.179 20.9875 106.622C20.9081 108.066 21.0293 109.561 21.3313 110.994C21.4137 111.385 21.512 111.773 21.622 112.158C21.7321 112.542 21.8422 112.915 21.8987 113.306L21.8763 113.139C21.9081 113.377 21.9175 113.615 21.8881 113.854L21.9105 113.687C21.8875 113.849 21.8469 114.006 21.7851 114.157L21.8481 114.008C21.7751 114.18 21.6791 114.338 21.5655 114.485L21.6632 114.359C21.4543 114.624 21.2 114.846 20.9345 115.053L21.0611 114.955C20.7656 115.183 20.4595 115.396 20.1682 115.629C19.8768 115.861 19.619 116.123 19.3977 116.427C19.204 116.693 19.0575 117.01 19.0063 117.336C18.9509 117.686 18.948 118.053 19.0698 118.391C19.2117 118.785 19.4648 119.143 19.848 119.336C20.1405 119.483 20.5402 119.423 20.705 119.111C20.8551 118.826 20.7927 118.411 20.4801 118.253C20.4213 118.224 20.3671 118.19 20.3147 118.15L20.4413 118.247C20.3789 118.197 20.3242 118.14 20.2753 118.077L20.373 118.204C20.32 118.133 20.2771 118.057 20.2412 117.975L20.3041 118.125C20.2559 118.01 20.2253 117.891 20.2082 117.767L20.2306 117.934C20.2141 117.798 20.2153 117.663 20.2323 117.527L20.21 117.694C20.2288 117.559 20.2635 117.428 20.3153 117.302L20.2523 117.452C20.3206 117.293 20.4124 117.147 20.5166 117.009L20.4189 117.135C20.6291 116.866 20.8863 116.642 21.1553 116.434L21.0287 116.532C21.4078 116.24 21.8075 115.974 22.1624 115.653C22.5491 115.304 22.8623 114.881 23.0324 114.385C23.3961 113.326 22.9129 112.215 22.6604 111.19C22.5209 110.624 22.4131 110.051 22.3354 109.474L22.3578 109.641C22.17 108.224 22.1695 106.786 22.3578 105.37L22.3354 105.536C22.4526 104.67 22.6303 103.815 22.7581 102.95C22.8858 102.086 22.9882 101.171 22.8952 100.279C22.8405 99.7574 22.7416 99.2443 22.555 98.7525C22.4955 98.5958 22.4161 98.465 22.2672 98.3779C22.133 98.2995 21.9352 98.2659 21.7845 98.3148C21.4867 98.4114 21.223 98.7578 21.3472 99.0859L21.3478 99.087Z" fill="#333333"/>
<path d="M23.0677 100.626C23.0871 100.673 23.1071 100.719 23.1266 100.766L23.0636 100.616C23.392 101.395 23.7099 102.191 23.8258 103.034L23.8035 102.867C23.8523 103.24 23.857 103.615 23.8076 103.989L23.8299 103.822C23.7105 104.672 23.3532 105.461 23.1101 106.278C22.867 107.096 22.708 107.945 22.6145 108.797C22.432 110.455 22.5556 112.152 22.9547 113.77C23.0624 114.207 23.1925 114.64 23.3437 115.064C23.5156 115.546 23.7258 116.009 23.9271 116.477L23.8641 116.328C23.95 116.532 24.0236 116.74 24.0536 116.96L24.0313 116.794C24.0436 116.905 24.0442 117.015 24.0301 117.126L24.0524 116.959C24.036 117.069 24.0071 117.175 23.9659 117.278L24.0289 117.128C23.9742 117.256 23.9035 117.373 23.8199 117.485L23.9176 117.358C23.7681 117.551 23.5886 117.714 23.3967 117.863L23.5233 117.766C23.0206 118.151 22.4496 118.43 21.9805 118.862C21.7404 119.084 21.512 119.351 21.3731 119.648C21.2983 119.808 21.2312 119.971 21.2024 120.146C21.1612 120.396 21.1653 120.6 21.2089 120.851C21.2342 120.997 21.3737 121.154 21.4967 121.226C21.6309 121.304 21.8287 121.338 21.9793 121.289C22.13 121.24 22.2772 121.146 22.3537 121.001C22.4367 120.843 22.4467 120.693 22.4167 120.518C22.4132 120.498 22.4102 120.479 22.4073 120.459L22.4296 120.625C22.4185 120.53 22.4179 120.436 22.429 120.34L22.4067 120.506C22.422 120.394 22.4526 120.287 22.495 120.182L22.432 120.332C22.4903 120.198 22.5656 120.075 22.6533 119.958L22.5556 120.085C22.7139 119.88 22.9035 119.705 23.1065 119.546L22.98 119.643C23.4809 119.257 24.0524 118.981 24.5216 118.549C24.7499 118.339 24.966 118.084 25.0943 117.799C25.1684 117.633 25.2332 117.472 25.2603 117.293C25.3009 117.026 25.2962 116.786 25.2444 116.519C25.1596 116.084 24.9312 115.683 24.76 115.278L24.8229 115.427C24.3579 114.322 24.0454 113.157 23.8847 111.968L23.9071 112.135C23.7464 110.922 23.7452 109.691 23.9065 108.478L23.8841 108.645C23.9559 108.116 24.0571 107.591 24.1902 107.074C24.3232 106.557 24.511 106.022 24.6881 105.501C24.8847 104.924 25.0454 104.338 25.0878 103.727C25.1302 103.115 25.0325 102.508 24.8741 101.927C24.6923 101.262 24.4186 100.627 24.1501 99.9936C24.0936 99.8599 23.9088 99.7421 23.7758 99.7055C23.6257 99.6643 23.4262 99.6832 23.2931 99.7686C23.1601 99.854 23.0418 99.9836 23.0053 100.143C22.9653 100.319 22.9988 100.462 23.0683 100.626H23.0677Z" fill="#333333"/>
<path d="M16.8684 74.7275C13.3232 74.7275 10.4396 71.8413 10.4396 68.2942C10.4396 64.7471 13.3238 61.8608 16.8684 61.8608C20.413 61.8608 23.2972 64.7471 23.2972 68.2942C23.2972 71.8413 20.413 74.7275 16.8684 74.7275ZM16.8684 63.3617C14.1508 63.3617 11.9399 65.5741 11.9399 68.2936C11.9399 71.0131 14.1508 73.2261 16.8684 73.2261C19.586 73.2261 21.7969 71.0137 21.7969 68.2936C21.7969 65.5735 19.586 63.3617 16.8684 63.3617Z" fill="#333333"/>
<path d="M16.8684 72.1981C14.7176 72.1981 12.9677 70.4469 12.9677 68.2946C12.9677 66.1423 14.7176 64.3911 16.8684 64.3911C19.0192 64.3911 20.7691 66.1423 20.7691 68.2946C20.7691 70.4469 19.0192 72.1981 16.8684 72.1981ZM16.8684 65.6929C15.4351 65.6929 14.2685 66.8597 14.2685 68.2946C14.2685 69.7295 15.4345 70.8963 16.8684 70.8963C18.3022 70.8963 19.4683 69.7295 19.4683 68.2946C19.4683 66.8597 18.3022 65.6929 16.8684 65.6929Z" fill="#333333"/>
<path d="M26.9308 102.114C26.756 102.114 26.58 102.106 26.4028 102.089C24.0861 101.868 22.4291 100.227 22.206 99.9962C16.1368 94.3922 11.4768 88.4036 8.35597 82.197C5.93324 77.3793 4.49409 72.4198 4.30396 68.2324C4.13386 64.4891 4.94673 61.2447 5.65895 59.182C6.43298 56.939 7.24644 55.5848 7.28058 55.5282C8.76682 53.1073 10.6168 51.0581 12.7823 49.4342C14.5441 48.1136 16.523 47.0657 18.6638 46.3206C21.0753 45.4812 23.7341 45.0277 26.1503 45.0389C26.1868 45.0389 26.2133 45.0389 26.2292 45.0389C26.7207 45.0241 28.759 45.1066 28.9898 45.116L28.9262 46.6616C28.3146 46.6363 26.6453 46.5733 26.2745 46.5851C26.251 46.5856 26.2062 46.5856 26.1421 46.5851C23.4398 46.5727 14.1856 47.233 8.60025 56.3334C8.57258 56.3794 5.54476 61.4862 5.84789 68.1611C6.0286 72.1353 7.40948 76.8728 9.73627 81.5008C12.777 87.5471 17.3305 93.3926 23.272 98.8753L23.3138 98.9165C23.3262 98.9295 24.7047 100.372 26.55 100.549C27.8649 100.675 29.131 100.121 30.3142 98.9047L31.4225 99.9832C30.0463 101.399 28.5377 102.114 26.9308 102.114Z" fill="#333333"/>
<path d="M26.7483 97.6233C25.9148 97.6233 24.8312 97.0667 23.4356 95.9222C22.4815 95.14 21.7333 94.3683 21.7016 94.3359L21.6845 94.3177C15.3887 87.3731 12.0942 81.4357 10.439 77.6783C8.69616 73.7212 8.34653 71.2962 8.31121 71.0187C7.82619 68.1897 7.80971 65.5538 8.26118 63.1835C8.62729 61.2615 9.30067 59.5098 10.2619 57.9771C11.9176 55.3365 13.8583 54.2586 13.9401 54.2138C15.4652 53.388 17.7696 52.581 20.0946 53.4186C21.3584 53.874 22.0789 54.6161 22.2678 54.8299C25.4687 57.7586 25.6641 65.6928 25.6706 66.0303V66.0427V66.055L25.4451 84.5499H27.809V86.0972H23.88L24.1243 66.0503C24.1202 65.8895 24.0642 63.9987 23.6752 61.84C23.159 58.9738 22.3019 56.9363 21.1977 55.9473L21.1488 55.9037L21.1171 55.8637C20.9964 55.7229 18.8438 53.3185 14.6776 55.5739C14.6653 55.581 12.9607 56.5452 11.5227 58.8777C10.6792 60.246 10.0882 61.814 9.76744 63.5387C9.36247 65.714 9.38602 68.1484 9.83748 70.7737L9.84337 70.8149C9.84631 70.8367 10.1483 73.207 11.8917 77.1411C13.5016 80.7748 16.7054 86.5219 22.8205 93.2686C24.1313 94.6204 26.0025 96.0759 26.7477 96.0759C27.7925 96.0759 29.5878 94.5863 30.4742 93.6474L31.5991 94.7088C31.3183 95.0068 28.7949 97.6227 26.7477 97.6227L26.7483 97.6233Z" fill="#333333"/>
<path d="M26.73 102.114C25.1231 102.114 23.615 101.399 22.2383 99.9832L23.3466 98.9047C24.5298 100.122 25.7959 100.675 27.1108 100.549C28.9555 100.372 30.3346 98.9295 30.3482 98.9147L30.3882 98.8753C36.3291 93.3926 40.8832 87.5471 43.9239 81.5008C46.2507 76.8734 47.6322 72.1358 47.8123 68.1611C48.1154 61.4857 45.0876 56.3794 45.057 56.3287C39.4746 47.233 30.2205 46.5745 27.5181 46.5851C27.454 46.5851 27.4092 46.5851 27.3857 46.5851C27.0149 46.5727 25.3456 46.6363 24.734 46.6616L24.6704 45.116C24.9012 45.1066 26.9401 45.0241 27.434 45.0389C27.4475 45.0389 27.474 45.0389 27.5105 45.0389C27.5429 45.0389 27.5752 45.0389 27.607 45.0389C29.9974 45.0389 32.6173 45.493 34.9965 46.3212C37.1378 47.0663 39.1162 48.1142 40.8779 49.4348C43.0434 51.0587 44.8934 53.1073 46.3773 55.5247C46.4138 55.5854 47.2272 56.9396 48.0013 59.182C48.7135 61.2447 49.5264 64.4891 49.3562 68.2324C49.1661 72.4198 47.727 77.3788 45.3042 82.197C42.1828 88.4042 37.5234 94.3922 31.4542 99.9962C31.2311 100.227 29.5742 101.868 27.2574 102.089C27.0802 102.106 26.9042 102.114 26.7294 102.114H26.73Z" fill="#333333"/>
<path d="M26.9125 97.6233C24.8653 97.6233 22.3419 95.0074 22.0612 94.7094L23.186 93.648C24.0719 94.5863 25.8677 96.0759 26.9125 96.0759C27.6595 96.0759 29.5371 94.614 30.8486 93.2598C36.9348 86.9301 40.1645 81.1624 41.802 77.438C43.5755 73.4049 43.9152 70.8344 43.9187 70.8091L43.924 70.7737C44.3802 68.1231 44.3943 65.668 43.9664 63.4769C43.6285 61.7457 43.0146 60.1736 42.1423 58.8041C40.6748 56.5016 39.0008 55.5833 38.9844 55.5745C37.1708 54.5926 35.5245 54.357 34.0895 54.8741C33.0747 55.2399 32.5496 55.8555 32.5443 55.8619L32.5067 55.9079L32.4625 55.9473C31.3553 56.9387 30.4977 58.9832 29.9815 61.8606C29.5948 64.0158 29.5401 65.8883 29.5359 66.0497L29.7802 86.0967H26.9572V84.5493H28.2151L27.9897 66.0421V66.0297C27.9967 65.6922 28.1916 57.758 31.3924 54.8294C31.5814 54.6156 32.3018 53.8734 33.5656 53.4181C35.8906 52.5805 38.1944 53.388 39.7178 54.2127C39.799 54.2562 41.7638 55.333 43.4454 57.9724C44.4225 59.5056 45.1083 61.258 45.4832 63.18C45.9465 65.552 45.9353 68.1891 45.4497 71.0199C45.4132 71.2938 45.0329 73.9085 43.2506 77.9828C41.5637 81.8398 38.2362 87.8072 31.9599 94.3336C31.9269 94.3678 31.1782 95.1394 30.2246 95.9216C28.8284 97.0661 27.7448 97.6227 26.9119 97.6227L26.9125 97.6233Z" fill="#333333"/>
<path d="M33.5244 90.5898H20.396V92.1372H33.5244V90.5898Z" fill="#333333"/>
<path d="M36.78 74.7275C33.2348 74.7275 30.3512 71.8413 30.3512 68.2942C30.3512 64.7471 33.2354 61.8608 36.78 61.8608C40.3246 61.8608 43.2088 64.7471 43.2088 68.2942C43.2088 71.8413 40.3246 74.7275 36.78 74.7275ZM36.78 63.3617C34.0624 63.3617 31.8516 65.5741 31.8516 68.2936C31.8516 71.0131 34.0624 73.2261 36.78 73.2261C39.4976 73.2261 41.7085 71.0137 41.7085 68.2936C41.7085 65.5735 39.4976 63.3617 36.78 63.3617Z" fill="#333333"/>
<path d="M36.78 72.1981C34.6292 72.1981 32.8793 70.4469 32.8793 68.2946C32.8793 66.1423 34.6292 64.3911 36.78 64.3911C38.9308 64.3911 40.6807 66.1423 40.6807 68.2946C40.6807 70.4469 38.9308 72.1981 36.78 72.1981ZM36.78 65.6929C35.3467 65.6929 34.1801 66.8597 34.1801 68.2946C34.1801 69.7295 35.3461 70.8963 36.78 70.8963C38.2139 70.8963 39.3799 69.7295 39.3799 68.2946C39.3799 66.8597 38.2139 65.6929 36.78 65.6929Z" fill="#333333"/>
<path d="M4.09277 139.98C4.09277 139.819 4.07487 139.676 4.03906 139.551C4.00684 139.422 3.94417 139.306 3.85107 139.202C3.75798 139.098 3.62549 138.996 3.45361 138.896C3.28532 138.795 3.06689 138.693 2.79834 138.589C2.4904 138.471 2.20215 138.342 1.93359 138.203C1.66862 138.059 1.43408 137.898 1.22998 137.719C1.02946 137.537 0.871908 137.324 0.757324 137.08C0.642741 136.837 0.585449 136.554 0.585449 136.231C0.585449 135.913 0.640951 135.623 0.751953 135.361C0.866536 135.096 1.02767 134.869 1.23535 134.679C1.44661 134.486 1.69727 134.337 1.9873 134.233C2.27734 134.126 2.59782 134.072 2.94873 134.072C3.45361 134.072 3.88509 134.18 4.24316 134.395C4.60482 134.609 4.88053 134.898 5.07031 135.259C5.26367 135.621 5.36035 136.022 5.36035 136.462H4.06055C4.06055 136.208 4.02116 135.983 3.94238 135.786C3.86361 135.589 3.74186 135.435 3.57715 135.324C3.41243 135.213 3.19938 135.157 2.93799 135.157C2.69808 135.157 2.49935 135.204 2.3418 135.297C2.18783 135.39 2.07324 135.517 1.99805 135.678C1.92643 135.839 1.89062 136.024 1.89062 136.231C1.89062 136.375 1.92106 136.505 1.98193 136.624C2.04281 136.738 2.13053 136.844 2.24512 136.94C2.3597 137.037 2.49935 137.128 2.66406 137.214C2.82878 137.3 3.01855 137.383 3.2334 137.461C3.59863 137.594 3.91732 137.741 4.18945 137.902C4.46159 138.063 4.68538 138.244 4.86084 138.444C5.03988 138.641 5.17236 138.865 5.2583 139.116C5.34782 139.366 5.39258 139.651 5.39258 139.97C5.39258 140.292 5.33708 140.586 5.22607 140.851C5.11865 141.112 4.9611 141.336 4.75342 141.522C4.54574 141.708 4.29508 141.853 4.00146 141.957C3.70785 142.057 3.37842 142.107 3.01318 142.107C2.6766 142.107 2.35254 142.057 2.04102 141.957C1.73307 141.857 1.45736 141.705 1.21387 141.5C0.970378 141.293 0.777018 141.033 0.633789 140.722C0.494141 140.41 0.424316 140.045 0.424316 139.626H1.72949C1.72949 139.877 1.75993 140.091 1.8208 140.271C1.88167 140.446 1.9694 140.591 2.08398 140.706C2.20215 140.817 2.34001 140.899 2.49756 140.953C2.65869 141.003 2.83773 141.028 3.03467 141.028C3.27816 141.028 3.47689 140.985 3.63086 140.899C3.78841 140.809 3.90479 140.686 3.97998 140.528C4.05518 140.371 4.09277 140.188 4.09277 139.98ZM11.9801 137.451V138.783C11.9801 139.334 11.9157 139.818 11.7868 140.233C11.6614 140.648 11.4788 140.996 11.2389 141.275C11.0026 141.551 10.7161 141.758 10.3795 141.898C10.0465 142.038 9.67413 142.107 9.26234 142.107C8.85414 142.107 8.48174 142.038 8.14516 141.898C7.81215 141.758 7.5239 141.551 7.28041 141.275C7.0405 140.996 6.8543 140.648 6.72182 140.233C6.59291 139.818 6.52846 139.334 6.52846 138.783V137.451C6.52846 136.892 6.59291 136.403 6.72182 135.984C6.85072 135.562 7.03513 135.209 7.27504 134.926C7.51853 134.643 7.80678 134.43 8.13979 134.287C8.47637 134.144 8.84698 134.072 9.2516 134.072C9.66339 134.072 10.0358 134.144 10.3688 134.287C10.7054 134.43 10.9936 134.643 11.2335 134.926C11.4734 135.209 11.6579 135.562 11.7868 135.984C11.9157 136.403 11.9801 136.892 11.9801 137.451ZM10.6857 138.783V137.44C10.6857 137.042 10.6535 136.702 10.589 136.419C10.5281 136.133 10.4368 135.9 10.3151 135.721C10.1933 135.539 10.0429 135.404 9.86391 135.318C9.68845 135.229 9.48435 135.184 9.2516 135.184C9.02602 135.184 8.8237 135.229 8.64467 135.318C8.46921 135.404 8.31882 135.539 8.1935 135.721C8.07175 135.9 7.97865 136.133 7.9142 136.419C7.85333 136.702 7.82289 137.042 7.82289 137.44V138.783C7.82289 139.173 7.85512 139.51 7.91957 139.792C7.98402 140.072 8.07712 140.301 8.19887 140.48C8.32419 140.655 8.47637 140.786 8.65541 140.872C8.83445 140.958 9.03676 141.001 9.26234 141.001C9.49151 141.001 9.69561 140.958 9.87465 140.872C10.0537 140.786 10.2023 140.655 10.3204 140.48C10.4422 140.301 10.5335 140.072 10.5944 139.792C10.6552 139.51 10.6857 139.173 10.6857 138.783ZM17.2249 139.449H18.5247C18.4996 140.014 18.385 140.496 18.1809 140.894C17.9768 141.287 17.6832 141.588 17.3001 141.796C16.9205 142.004 16.4568 142.107 15.909 142.107C15.4936 142.107 15.1212 142.032 14.7918 141.882C14.4659 141.731 14.1884 141.515 13.9593 141.232C13.7301 140.945 13.5546 140.596 13.4329 140.185C13.3147 139.773 13.2556 139.306 13.2556 138.783V137.397C13.2556 136.874 13.3165 136.407 13.4383 135.995C13.5636 135.583 13.7426 135.234 13.9754 134.948C14.2081 134.661 14.491 134.445 14.824 134.298C15.1606 134.147 15.5402 134.072 15.9627 134.072C16.5034 134.072 16.9581 134.176 17.3269 134.384C17.6957 134.591 17.9804 134.896 18.1809 135.297C18.3815 135.698 18.4978 136.187 18.5301 136.763H17.2303C17.2124 136.373 17.1586 136.061 17.0691 135.829C16.9832 135.592 16.8507 135.422 16.6717 135.318C16.4962 135.215 16.2599 135.163 15.9627 135.163C15.7156 135.163 15.5026 135.209 15.3235 135.302C15.1481 135.395 15.003 135.535 14.8885 135.721C14.7775 135.904 14.6933 136.135 14.636 136.414C14.5823 136.69 14.5554 137.014 14.5554 137.386V138.783C14.5554 139.141 14.5787 139.458 14.6253 139.733C14.6718 140.009 14.747 140.244 14.8509 140.437C14.9547 140.627 15.0926 140.772 15.2644 140.872C15.4363 140.969 15.6512 141.017 15.909 141.017C16.2169 141.017 16.4622 140.969 16.6448 140.872C16.831 140.775 16.9689 140.612 17.0584 140.383C17.1479 140.154 17.2034 139.843 17.2249 139.449ZM21.143 134.18V142H19.8378V134.18H21.143ZM25.5552 135.254L23.6646 142H22.3004L24.7818 134.18H25.6304L25.5552 135.254ZM27.0645 142L25.1685 135.254L25.0772 134.18H25.942L28.4341 142H27.0645ZM27.0967 139.094V140.19H23.4551V139.094H27.0967ZM33.6467 140.91V142H30.3972V140.91H33.6467ZM30.7409 134.18V142H29.4357V134.18H30.7409ZM37.6454 134.18L35.1102 142.671H34.1434L36.6839 134.18H37.6454ZM4.09277 155.98C4.09277 155.819 4.07487 155.676 4.03906 155.551C4.00684 155.422 3.94417 155.306 3.85107 155.202C3.75798 155.098 3.62549 154.996 3.45361 154.896C3.28532 154.795 3.06689 154.693 2.79834 154.589C2.4904 154.471 2.20215 154.342 1.93359 154.203C1.66862 154.059 1.43408 153.898 1.22998 153.719C1.02946 153.537 0.871908 153.324 0.757324 153.08C0.642741 152.837 0.585449 152.554 0.585449 152.231C0.585449 151.913 0.640951 151.623 0.751953 151.361C0.866536 151.096 1.02767 150.869 1.23535 150.679C1.44661 150.486 1.69727 150.337 1.9873 150.233C2.27734 150.126 2.59782 150.072 2.94873 150.072C3.45361 150.072 3.88509 150.18 4.24316 150.395C4.60482 150.609 4.88053 150.898 5.07031 151.259C5.26367 151.621 5.36035 152.022 5.36035 152.462H4.06055C4.06055 152.208 4.02116 151.983 3.94238 151.786C3.86361 151.589 3.74186 151.435 3.57715 151.324C3.41243 151.213 3.19938 151.157 2.93799 151.157C2.69808 151.157 2.49935 151.204 2.3418 151.297C2.18783 151.39 2.07324 151.517 1.99805 151.678C1.92643 151.839 1.89062 152.024 1.89062 152.231C1.89062 152.375 1.92106 152.505 1.98193 152.624C2.04281 152.738 2.13053 152.844 2.24512 152.94C2.3597 153.037 2.49935 153.128 2.66406 153.214C2.82878 153.3 3.01855 153.383 3.2334 153.461C3.59863 153.594 3.91732 153.741 4.18945 153.902C4.46159 154.063 4.68538 154.244 4.86084 154.444C5.03988 154.641 5.17236 154.865 5.2583 155.116C5.34782 155.366 5.39258 155.651 5.39258 155.97C5.39258 156.292 5.33708 156.586 5.22607 156.851C5.11865 157.112 4.9611 157.336 4.75342 157.522C4.54574 157.708 4.29508 157.853 4.00146 157.957C3.70785 158.057 3.37842 158.107 3.01318 158.107C2.6766 158.107 2.35254 158.057 2.04102 157.957C1.73307 157.857 1.45736 157.705 1.21387 157.5C0.970378 157.293 0.777018 157.033 0.633789 156.722C0.494141 156.41 0.424316 156.045 0.424316 155.626H1.72949C1.72949 155.877 1.75993 156.091 1.8208 156.271C1.88167 156.446 1.9694 156.591 2.08398 156.706C2.20215 156.817 2.34001 156.899 2.49756 156.953C2.65869 157.003 2.83773 157.028 3.03467 157.028C3.27816 157.028 3.47689 156.985 3.63086 156.899C3.78841 156.809 3.90479 156.686 3.97998 156.528C4.05518 156.371 4.09277 156.188 4.09277 155.98ZM11.9801 153.451V154.783C11.9801 155.334 11.9157 155.818 11.7868 156.233C11.6614 156.648 11.4788 156.996 11.2389 157.275C11.0026 157.551 10.7161 157.758 10.3795 157.898C10.0465 158.038 9.67413 158.107 9.26234 158.107C8.85414 158.107 8.48174 158.038 8.14516 157.898C7.81215 157.758 7.5239 157.551 7.28041 157.275C7.0405 156.996 6.8543 156.648 6.72182 156.233C6.59291 155.818 6.52846 155.334 6.52846 154.783V153.451C6.52846 152.892 6.59291 152.403 6.72182 151.984C6.85072 151.562 7.03513 151.209 7.27504 150.926C7.51853 150.643 7.80678 150.43 8.13979 150.287C8.47637 150.144 8.84698 150.072 9.2516 150.072C9.66339 150.072 10.0358 150.144 10.3688 150.287C10.7054 150.43 10.9936 150.643 11.2335 150.926C11.4734 151.209 11.6579 151.562 11.7868 151.984C11.9157 152.403 11.9801 152.892 11.9801 153.451ZM10.6857 154.783V153.44C10.6857 153.042 10.6535 152.702 10.589 152.419C10.5281 152.133 10.4368 151.9 10.3151 151.721C10.1933 151.539 10.0429 151.404 9.86391 151.318C9.68845 151.229 9.48435 151.184 9.2516 151.184C9.02602 151.184 8.8237 151.229 8.64467 151.318C8.46921 151.404 8.31882 151.539 8.1935 151.721C8.07175 151.9 7.97865 152.133 7.9142 152.419C7.85333 152.702 7.82289 153.042 7.82289 153.44V154.783C7.82289 155.173 7.85512 155.51 7.91957 155.792C7.98402 156.072 8.07712 156.301 8.19887 156.48C8.32419 156.655 8.47637 156.786 8.65541 156.872C8.83445 156.958 9.03676 157.001 9.26234 157.001C9.49151 157.001 9.69561 156.958 9.87465 156.872C10.0537 156.786 10.2023 156.655 10.3204 156.48C10.4422 156.301 10.5335 156.072 10.5944 155.792C10.6552 155.51 10.6857 155.173 10.6857 154.783ZM17.2249 155.449H18.5247C18.4996 156.014 18.385 156.496 18.1809 156.894C17.9768 157.287 17.6832 157.588 17.3001 157.796C16.9205 158.004 16.4568 158.107 15.909 158.107C15.4936 158.107 15.1212 158.032 14.7918 157.882C14.4659 157.731 14.1884 157.515 13.9593 157.232C13.7301 156.945 13.5546 156.596 13.4329 156.185C13.3147 155.773 13.2556 155.306 13.2556 154.783V153.397C13.2556 152.874 13.3165 152.407 13.4383 151.995C13.5636 151.583 13.7426 151.234 13.9754 150.948C14.2081 150.661 14.491 150.445 14.824 150.298C15.1606 150.147 15.5402 150.072 15.9627 150.072C16.5034 150.072 16.9581 150.176 17.3269 150.384C17.6957 150.591 17.9804 150.896 18.1809 151.297C18.3815 151.698 18.4978 152.187 18.5301 152.763H17.2303C17.2124 152.373 17.1586 152.061 17.0691 151.829C16.9832 151.592 16.8507 151.422 16.6717 151.318C16.4962 151.215 16.2599 151.163 15.9627 151.163C15.7156 151.163 15.5026 151.209 15.3235 151.302C15.1481 151.395 15.003 151.535 14.8885 151.721C14.7775 151.904 14.6933 152.135 14.636 152.414C14.5823 152.69 14.5554 153.014 14.5554 153.386V154.783C14.5554 155.141 14.5787 155.458 14.6253 155.733C14.6718 156.009 14.747 156.244 14.8509 156.437C14.9547 156.627 15.0926 156.772 15.2644 156.872C15.4363 156.969 15.6512 157.017 15.909 157.017C16.2169 157.017 16.4622 156.969 16.6448 156.872C16.831 156.775 16.9689 156.612 17.0584 156.383C17.1479 156.154 17.2034 155.843 17.2249 155.449ZM21.143 150.18V158H19.8378V150.18H21.143ZM27.1182 156.91V158H23.7237V156.91H27.1182ZM24.0674 150.18V158H22.7623V150.18H24.0674ZM26.6617 153.435V154.509H23.7237V153.435H26.6617ZM27.086 150.18V151.275H23.7237V150.18H27.086ZM31.2565 150.18V158H29.9567V150.18H31.2565ZM33.2492 150.18V151.275H27.9855V150.18H33.2492ZM36.5389 151.254L34.6483 158H33.284L35.7655 150.18H36.6141L36.5389 151.254ZM38.0482 158L36.1522 151.254L36.0609 150.18H36.9256L39.4178 158H38.0482ZM38.0804 155.094V156.19H34.4388V155.094H38.0804ZM44.6304 156.91V158H41.3808V156.91H44.6304ZM41.7246 150.18V158H40.4194V150.18H41.7246ZM53.5462 153.988V157.071C53.4495 157.189 53.3027 157.33 53.1057 157.495C52.9124 157.656 52.651 157.799 52.3215 157.925C51.9957 158.047 51.5839 158.107 51.0862 158.107C50.6672 158.107 50.2841 158.039 49.9368 157.903C49.593 157.767 49.2976 157.561 49.0505 157.286C48.8035 157.01 48.6137 156.666 48.4812 156.254C48.3487 155.839 48.2825 155.348 48.2825 154.783V153.392C48.2825 152.833 48.3416 152.346 48.4597 151.931C48.5815 151.515 48.7587 151.17 48.9915 150.894C49.2242 150.615 49.5071 150.409 49.8401 150.276C50.1731 150.14 50.5562 150.072 50.9895 150.072C51.5374 150.072 51.9939 150.169 52.3591 150.362C52.728 150.552 53.009 150.835 53.2024 151.211C53.3993 151.583 53.5139 152.038 53.5462 152.575H52.2732C52.2446 152.246 52.1819 151.979 52.0852 151.775C51.9921 151.567 51.8578 151.413 51.6824 151.313C51.5069 151.213 51.2813 151.163 51.0056 151.163C50.755 151.163 50.5401 151.206 50.3611 151.292C50.1821 151.377 50.0352 151.512 49.9207 151.694C49.8061 151.873 49.7219 152.103 49.6682 152.382C49.6145 152.661 49.5877 152.994 49.5877 153.381V154.783C49.5877 155.177 49.6217 155.515 49.6897 155.798C49.7577 156.081 49.8562 156.313 49.9851 156.496C50.1176 156.675 50.2805 156.808 50.4739 156.894C50.6672 156.976 50.8875 157.017 51.1345 157.017C51.378 157.017 51.5714 156.992 51.7146 156.942C51.8578 156.892 51.9688 156.836 52.0476 156.775C52.13 156.711 52.1962 156.661 52.2463 156.625V155.014H50.9841V153.988H53.5462ZM60.3109 153.451V154.783C60.3109 155.334 60.2465 155.818 60.1176 156.233C59.9923 156.648 59.8096 156.996 59.5697 157.275C59.3334 157.551 59.0469 157.758 58.7104 157.898C58.3773 158.038 58.0049 158.107 57.5932 158.107C57.185 158.107 56.8126 158.038 56.476 157.898C56.143 157.758 55.8547 157.551 55.6112 157.275C55.3713 156.996 55.1851 156.648 55.0526 156.233C54.9237 155.818 54.8593 155.334 54.8593 154.783V153.451C54.8593 152.892 54.9237 152.403 55.0526 151.984C55.1815 151.562 55.3659 151.209 55.6059 150.926C55.8493 150.643 56.1376 150.43 56.4706 150.287C56.8072 150.144 57.1778 150.072 57.5824 150.072C57.9942 150.072 58.3666 150.144 58.6996 150.287C59.0362 150.43 59.3244 150.643 59.5644 150.926C59.8043 151.209 59.9887 151.562 60.1176 151.984C60.2465 152.403 60.3109 152.892 60.3109 153.451ZM59.0165 154.783V153.44C59.0165 153.042 58.9843 152.702 58.9198 152.419C58.859 152.133 58.7676 151.9 58.6459 151.721C58.5242 151.539 58.3738 151.404 58.1947 151.318C58.0193 151.229 57.8152 151.184 57.5824 151.184C57.3568 151.184 57.1545 151.229 56.9755 151.318C56.8 151.404 56.6496 151.539 56.5243 151.721C56.4026 151.9 56.3095 152.133 56.245 152.419C56.1841 152.702 56.1537 153.042 56.1537 153.44V154.783C56.1537 155.173 56.1859 155.51 56.2504 155.792C56.3148 156.072 56.4079 156.301 56.5297 156.48C56.655 156.655 56.8072 156.786 56.9862 156.872C57.1653 156.958 57.3676 157.001 57.5932 157.001C57.8223 157.001 58.0264 156.958 58.2055 156.872C58.3845 156.786 58.5331 156.655 58.6513 156.48C58.773 156.301 58.8643 156.072 58.9252 155.792C58.9861 155.51 59.0165 155.173 59.0165 154.783ZM67.0489 153.451V154.783C67.0489 155.334 66.9844 155.818 66.8555 156.233C66.7302 156.648 66.5476 156.996 66.3077 157.275C66.0713 157.551 65.7849 157.758 65.4483 157.898C65.1153 158.038 64.7429 158.107 64.3311 158.107C63.9229 158.107 63.5505 158.038 63.2139 157.898C62.8809 157.758 62.5926 157.551 62.3492 157.275C62.1093 156.996 61.9231 156.648 61.7906 156.233C61.6617 155.818 61.5972 155.334 61.5972 154.783V153.451C61.5972 152.892 61.6617 152.403 61.7906 151.984C61.9195 151.562 62.1039 151.209 62.3438 150.926C62.5873 150.643 62.8755 150.43 63.2085 150.287C63.5451 150.144 63.9157 150.072 64.3204 150.072C64.7321 150.072 65.1045 150.144 65.4375 150.287C65.7741 150.43 66.0624 150.643 66.3023 150.926C66.5422 151.209 66.7266 151.562 66.8555 151.984C66.9844 152.403 67.0489 152.892 67.0489 153.451ZM65.7544 154.783V153.44C65.7544 153.042 65.7222 152.702 65.6578 152.419C65.5969 152.133 65.5056 151.9 65.3838 151.721C65.2621 151.539 65.1117 151.404 64.9327 151.318C64.7572 151.229 64.5531 151.184 64.3204 151.184C64.0948 151.184 63.8925 151.229 63.7134 151.318C63.538 151.404 63.3876 151.539 63.2622 151.721C63.1405 151.9 63.0474 152.133 62.9829 152.419C62.9221 152.702 62.8916 153.042 62.8916 153.44V154.783C62.8916 155.173 62.9239 155.51 62.9883 155.792C63.0528 156.072 63.1459 156.301 63.2676 156.48C63.3929 156.655 63.5451 156.786 63.7242 156.872C63.9032 156.958 64.1055 157.001 64.3311 157.001C64.5603 157.001 64.7644 156.958 64.9434 156.872C65.1224 156.786 65.271 156.655 65.3892 156.48C65.5109 156.301 65.6023 156.072 65.6631 155.792C65.724 155.51 65.7544 155.173 65.7544 154.783ZM70.3976 158H69.0387L69.0495 156.91H70.3976C70.8166 156.91 71.1514 156.833 71.402 156.679C71.6527 156.521 71.8335 156.281 71.9445 155.959C72.0555 155.637 72.111 155.225 72.111 154.724V153.451C72.111 153.064 72.0788 152.735 72.0143 152.462C71.9535 152.187 71.8568 151.963 71.7243 151.791C71.5954 151.616 71.4253 151.487 71.214 151.404C71.0028 151.318 70.7485 151.275 70.4513 151.275H69.0119V150.18H70.4513C70.8989 150.18 71.3036 150.251 71.6652 150.395C72.0269 150.538 72.3366 150.749 72.5944 151.028C72.8558 151.304 73.0563 151.646 73.196 152.054C73.3356 152.462 73.4054 152.931 73.4054 153.461V154.724C73.4054 155.254 73.3356 155.723 73.196 156.131C73.0563 156.535 72.8558 156.877 72.5944 157.157C72.333 157.432 72.0179 157.642 71.6491 157.785C71.2803 157.928 70.8631 158 70.3976 158ZM69.7853 150.18V158H68.4802V150.18H69.7853Z" fill="#333333"/>
</svg>
