<svg width="69" height="100" viewBox="0 0 69 100" fill="none" xmlns="http://www.w3.org/2000/svg">
<path d="M44.8516 22.7873V21.1525C44.8516 20.2313 44.102 19.4727 43.1718 19.4727H24.7199C23.7987 19.4727 23.04 20.2223 23.04 21.1525V34.0047C23.04 34.926 23.7897 35.6846 24.7199 35.6846H43.1718C44.093 35.6846 44.8516 34.935 44.8516 34.0047V32.4422" stroke="#333333" stroke-width="1.3" stroke-linejoin="round"/>
<path d="M45.7369 22.7603H39.0714C38.385 22.7603 37.825 23.3202 37.825 24.0066V31.1688C37.825 31.8552 38.385 32.4152 39.0714 32.4152H45.7369V22.7603Z" stroke="#333333" stroke-width="1.3" stroke-linejoin="round"/>
<path d="M34.9349 13.5026L34.9258 0.939453" stroke="#333333" stroke-width="1.3" stroke-linecap="round" stroke-linejoin="round"/>
<path d="M33.6525 12.8701L34.9259 13.9359L36.2446 12.8701" stroke="#333333" stroke-width="1.3" stroke-linecap="round" stroke-linejoin="round"/>
<path d="M27.9896 13.5387L21.4957 0.975586" stroke="#333333" stroke-width="1.3" stroke-linecap="round" stroke-linejoin="round"/>
<path d="M26.5987 13.4847L28.1974 13.9363L28.965 12.4189" stroke="#333333" stroke-width="1.3" stroke-linecap="round" stroke-linejoin="round"/>
<path d="M18.7319 14.1081L7.8938 1.54492" stroke="#333333" stroke-width="1.3" stroke-linecap="round" stroke-linejoin="round"/>
<path d="M17.3591 14.4604L19.0209 14.4333L19.328 12.7715" stroke="#333333" stroke-width="1.3" stroke-linecap="round" stroke-linejoin="round"/>
<path d="M17.314 21.5589L1.37292 12.8975" stroke="#333333" stroke-width="1.3" stroke-linecap="round" stroke-linejoin="round"/>
<path d="M16.1669 22.3268L17.7745 21.9023L17.6571 20.2134" stroke="#333333" stroke-width="1.3" stroke-linecap="round" stroke-linejoin="round"/>
<path d="M1.37292 28.0171H17.314" stroke="#333333" stroke-width="1.3" stroke-linecap="round" stroke-linejoin="round"/>
<path d="M16.7992 29.2903L17.883 28.0259L16.8263 26.6982" stroke="#333333" stroke-width="1.3" stroke-linecap="round" stroke-linejoin="round"/>
<path d="M41.8986 13.5392L48.4014 0.976074" stroke="#333333" stroke-width="1.3" stroke-linecap="round" stroke-linejoin="round"/>
<path d="M43.2984 13.4852L41.6908 13.9368L40.9321 12.4194" stroke="#333333" stroke-width="1.3" stroke-linecap="round" stroke-linejoin="round"/>
<path d="M51.1558 14.1076L61.9939 1.54443" stroke="#333333" stroke-width="1.3" stroke-linecap="round" stroke-linejoin="round"/>
<path d="M52.5285 14.4599L50.8667 14.4328L50.5597 12.771" stroke="#333333" stroke-width="1.3" stroke-linecap="round" stroke-linejoin="round"/>
<path d="M52.0591 21.5594L68.0001 12.8979" stroke="#333333" stroke-width="1.3" stroke-linecap="round" stroke-linejoin="round"/>
<path d="M53.2061 22.3273L51.5985 21.9028L51.7159 20.2139" stroke="#333333" stroke-width="1.3" stroke-linecap="round" stroke-linejoin="round"/>
<path d="M68 28.0171H52.0591" stroke="#333333" stroke-width="1.3" stroke-linecap="round" stroke-linejoin="round"/>
<path d="M52.5739 29.2903L51.4901 28.0259L52.5468 26.6982" stroke="#333333" stroke-width="1.3" stroke-linecap="round" stroke-linejoin="round"/>
<path d="M34.9348 42.4858L34.9258 55.049" stroke="#333333" stroke-width="1.3" stroke-linecap="round" stroke-linejoin="round"/>
<path d="M33.6523 43.1177L34.9257 42.043L36.2444 43.1177" stroke="#333333" stroke-width="1.3" stroke-linecap="round" stroke-linejoin="round"/>
<path d="M27.9895 42.4404L21.4956 55.0036" stroke="#333333" stroke-width="1.3" stroke-linecap="round" stroke-linejoin="round"/>
<path d="M26.5985 42.5036L28.1972 42.043L28.9649 43.5603" stroke="#333333" stroke-width="1.3" stroke-linecap="round" stroke-linejoin="round"/>
<path d="M18.7319 41.8809L7.8938 54.444" stroke="#333333" stroke-width="1.3" stroke-linecap="round" stroke-linejoin="round"/>
<path d="M17.359 41.5283L19.0208 41.5464L19.328 43.2173" stroke="#333333" stroke-width="1.3" stroke-linecap="round" stroke-linejoin="round"/>
<path d="M17.314 34.4209L1.37292 43.0914" stroke="#333333" stroke-width="1.3" stroke-linecap="round" stroke-linejoin="round"/>
<path d="M16.1669 33.6528L17.7745 34.0864L17.6571 35.7753" stroke="#333333" stroke-width="1.3" stroke-linecap="round" stroke-linejoin="round"/>
<path d="M41.8985 42.4404L48.4013 55.0036" stroke="#333333" stroke-width="1.3" stroke-linecap="round" stroke-linejoin="round"/>
<path d="M43.2983 42.5036L41.6906 42.043L40.932 43.5603" stroke="#333333" stroke-width="1.3" stroke-linecap="round" stroke-linejoin="round"/>
<path d="M51.1559 41.8804L61.9939 54.4435" stroke="#333333" stroke-width="1.3" stroke-linecap="round" stroke-linejoin="round"/>
<path d="M52.5285 41.5278L50.8667 41.5459L50.5597 43.2168" stroke="#333333" stroke-width="1.3" stroke-linecap="round" stroke-linejoin="round"/>
<path d="M52.0592 34.4209L68.0001 43.0914" stroke="#333333" stroke-width="1.3" stroke-linecap="round" stroke-linejoin="round"/>
<path d="M53.2061 33.6528L51.5985 34.0864L51.7159 35.7753" stroke="#333333" stroke-width="1.3" stroke-linecap="round" stroke-linejoin="round"/>
<path d="M5.08643 78.9097V80H1.69189V78.9097H5.08643ZM2.03564 72.1797V80H0.730469V72.1797H2.03564ZM4.62988 75.4346V76.5088H1.69189V75.4346H4.62988ZM5.0542 72.1797V73.2754H1.69189V72.1797H5.0542ZM10.0895 77.4487H11.3893C11.3642 78.0145 11.2496 78.4961 11.0455 78.8936C10.8414 79.2874 10.5478 79.5882 10.1647 79.7959C9.78513 80.0036 9.32143 80.1074 8.77357 80.1074C8.35821 80.1074 7.98581 80.0322 7.65639 79.8818C7.33054 79.7314 7.05303 79.5148 6.82387 79.2319C6.5947 78.9455 6.41924 78.5964 6.2975 78.1846C6.17934 77.7728 6.12025 77.3055 6.12025 76.7827V75.397C6.12025 74.8742 6.18113 74.4069 6.30287 73.9951C6.4282 73.5833 6.60723 73.2342 6.83998 72.9478C7.07273 72.6613 7.35561 72.4447 7.68861 72.2979C8.0252 72.1475 8.40476 72.0723 8.82729 72.0723C9.36798 72.0723 9.82273 72.1761 10.1915 72.3838C10.5604 72.5915 10.845 72.8958 11.0455 73.2969C11.2461 73.6979 11.3624 74.1867 11.3947 74.7632H10.0949C10.077 74.3729 10.0232 74.0614 9.93373 73.8286C9.84779 73.5923 9.71531 73.4222 9.53627 73.3184C9.36081 73.2145 9.12449 73.1626 8.82729 73.1626C8.58021 73.1626 8.36716 73.2091 8.18813 73.3022C8.01267 73.3953 7.86765 73.535 7.75307 73.7212C7.64206 73.9038 7.55792 74.1348 7.50063 74.4141C7.44691 74.6898 7.42006 75.0138 7.42006 75.3862V76.7827C7.42006 77.1408 7.44333 77.4577 7.48988 77.7334C7.53643 78.0091 7.61163 78.2437 7.71547 78.437C7.81931 78.6268 7.95717 78.7718 8.12904 78.8721C8.30092 78.9688 8.51576 79.0171 8.77357 79.0171C9.08152 79.0171 9.3268 78.9688 9.50941 78.8721C9.69561 78.7754 9.83347 78.6125 9.92299 78.3833C10.0125 78.1541 10.068 77.8426 10.0895 77.4487ZM17.9554 75.4507V76.7827C17.9554 77.3341 17.8909 77.8175 17.762 78.2329C17.6367 78.6483 17.454 78.9956 17.2141 79.2749C16.9778 79.5506 16.6914 79.7583 16.3548 79.8979C16.0218 80.0376 15.6494 80.1074 15.2376 80.1074C14.8294 80.1074 14.457 80.0376 14.1204 79.8979C13.7874 79.7583 13.4991 79.5506 13.2556 79.2749C13.0157 78.9956 12.8295 78.6483 12.6971 78.2329C12.5681 77.8175 12.5037 77.3341 12.5037 76.7827V75.4507C12.5037 74.8921 12.5681 74.4033 12.6971 73.9844C12.826 73.5618 13.0104 73.2091 13.2503 72.9263C13.4938 72.6434 13.782 72.4303 14.115 72.2871C14.4516 72.1439 14.8222 72.0723 15.2268 72.0723C15.6386 72.0723 16.011 72.1439 16.344 72.2871C16.6806 72.4303 16.9689 72.6434 17.2088 72.9263C17.4487 73.2091 17.6331 73.5618 17.762 73.9844C17.8909 74.4033 17.9554 74.8921 17.9554 75.4507ZM16.6609 76.7827V75.4399C16.6609 75.0425 16.6287 74.7023 16.5642 74.4194C16.5034 74.133 16.4121 73.9002 16.2903 73.7212C16.1686 73.5386 16.0182 73.4043 15.8391 73.3184C15.6637 73.2288 15.4596 73.1841 15.2268 73.1841C15.0013 73.1841 14.7989 73.2288 14.6199 73.3184C14.4444 73.4043 14.2941 73.5386 14.1687 73.7212C14.047 73.9002 13.9539 74.133 13.8894 74.4194C13.8286 74.7023 13.7981 75.0425 13.7981 75.4399V76.7827C13.7981 77.173 13.8304 77.5096 13.8948 77.7925C13.9593 78.0718 14.0524 78.3009 14.1741 78.48C14.2994 78.6554 14.4516 78.7861 14.6306 78.8721C14.8097 78.958 15.012 79.001 15.2376 79.001C15.4667 79.001 15.6708 78.958 15.8499 78.8721C16.0289 78.7861 16.1775 78.6554 16.2957 78.48C16.4174 78.3009 16.5087 78.0718 16.5696 77.7925C16.6305 77.5096 16.6609 77.173 16.6609 76.7827ZM24.6879 72.1797V80H23.4096L20.6488 74.5859V80H19.3866V72.1797H20.6488L23.4311 77.6313V72.1797H24.6879ZM31.5816 75.4507V76.7827C31.5816 77.3341 31.5171 77.8175 31.3882 78.2329C31.2629 78.6483 31.0803 78.9956 30.8404 79.2749C30.6041 79.5506 30.3176 79.7583 29.981 79.8979C29.648 80.0376 29.2756 80.1074 28.8638 80.1074C28.4556 80.1074 28.0832 80.0376 27.7466 79.8979C27.4136 79.7583 27.1254 79.5506 26.8819 79.2749C26.642 78.9956 26.4558 78.6483 26.3233 78.2329C26.1944 77.8175 26.1299 77.3341 26.1299 76.7827V75.4507C26.1299 74.8921 26.1944 74.4033 26.3233 73.9844C26.4522 73.5618 26.6366 73.2091 26.8765 72.9263C27.12 72.6434 27.4083 72.4303 27.7413 72.2871C28.0779 72.1439 28.4485 72.0723 28.8531 72.0723C29.2649 72.0723 29.6373 72.1439 29.9703 72.2871C30.3069 72.4303 30.5951 72.6434 30.835 72.9263C31.0749 73.2091 31.2593 73.5618 31.3882 73.9844C31.5171 74.4033 31.5816 74.8921 31.5816 75.4507ZM30.2872 76.7827V75.4399C30.2872 75.0425 30.2549 74.7023 30.1905 74.4194C30.1296 74.133 30.0383 73.9002 29.9166 73.7212C29.7948 73.5386 29.6444 73.4043 29.4654 73.3184C29.2899 73.2288 29.0858 73.1841 28.8531 73.1841C28.6275 73.1841 28.4252 73.2288 28.2462 73.3184C28.0707 73.4043 27.9203 73.5386 27.795 73.7212C27.6732 73.9002 27.5801 74.133 27.5157 74.4194C27.4548 74.7023 27.4244 75.0425 27.4244 75.4399V76.7827C27.4244 77.173 27.4566 77.5096 27.5211 77.7925C27.5855 78.0718 27.6786 78.3009 27.8004 78.48C27.9257 78.6554 28.0779 78.7861 28.2569 78.8721C28.4359 78.958 28.6382 79.001 28.8638 79.001C29.093 79.001 29.2971 78.958 29.4761 78.8721C29.6552 78.7861 29.8038 78.6554 29.9219 78.48C30.0437 78.3009 30.135 78.0718 30.1959 77.7925C30.2567 77.5096 30.2872 77.173 30.2872 76.7827ZM33.4587 72.1797H34.6457L36.445 77.9966L38.239 72.1797H39.34L36.9338 80H35.9509L33.4587 72.1797ZM33.0129 72.1797H34.1086L34.2858 77.1587V80H33.0129V72.1797ZM38.7707 72.1797H39.8718V80H38.5988V77.1587L38.7707 72.1797ZM42.807 72.1797V80H41.5018V72.1797H42.807ZM48.2397 77.4487H49.5395C49.5145 78.0145 49.3999 78.4961 49.1958 78.8936C48.9917 79.2874 48.6981 79.5882 48.3149 79.7959C47.9354 80.0036 47.4717 80.1074 46.9238 80.1074C46.5084 80.1074 46.136 80.0322 45.8066 79.8818C45.4808 79.7314 45.2033 79.5148 44.9741 79.2319C44.7449 78.9455 44.5695 78.5964 44.4477 78.1846C44.3296 77.7728 44.2705 77.3055 44.2705 76.7827V75.397C44.2705 74.8742 44.3314 74.4069 44.4531 73.9951C44.5784 73.5833 44.7575 73.2342 44.9902 72.9478C45.223 72.6613 45.5058 72.4447 45.8388 72.2979C46.1754 72.1475 46.555 72.0723 46.9775 72.0723C47.5182 72.0723 47.973 72.1761 48.3418 72.3838C48.7106 72.5915 48.9953 72.8958 49.1958 73.2969C49.3963 73.6979 49.5127 74.1867 49.5449 74.7632H48.2451C48.2272 74.3729 48.1735 74.0614 48.084 73.8286C47.998 73.5923 47.8655 73.4222 47.6865 73.3184C47.511 73.2145 47.2747 73.1626 46.9775 73.1626C46.7304 73.1626 46.5174 73.2091 46.3384 73.3022C46.1629 73.3953 46.0179 73.535 45.9033 73.7212C45.7923 73.9038 45.7082 74.1348 45.6509 74.4141C45.5971 74.6898 45.5703 75.0138 45.5703 75.3862V76.7827C45.5703 77.1408 45.5936 77.4577 45.6401 77.7334C45.6867 78.0091 45.7619 78.2437 45.8657 78.437C45.9695 78.6268 46.1074 78.7718 46.2793 78.8721C46.4512 78.9688 46.666 79.0171 46.9238 79.0171C47.2318 79.0171 47.477 78.9688 47.6596 78.8721C47.8458 78.7754 47.9837 78.6125 48.0732 78.3833C48.1627 78.1541 48.2182 77.8426 48.2397 77.4487ZM2.64795 96H1.28906L1.2998 94.9097H2.64795C3.06689 94.9097 3.40169 94.8327 3.65234 94.6787C3.90299 94.5212 4.08382 94.2812 4.19482 93.959C4.30583 93.6367 4.36133 93.2249 4.36133 92.7236V91.4507C4.36133 91.064 4.3291 90.7345 4.26465 90.4624C4.20378 90.1867 4.1071 89.9629 3.97461 89.791C3.8457 89.6156 3.67562 89.4867 3.46436 89.4043C3.25309 89.3184 2.99886 89.2754 2.70166 89.2754H1.26221V88.1797H2.70166C3.14925 88.1797 3.55387 88.2513 3.91553 88.3945C4.27718 88.5378 4.58691 88.749 4.84473 89.0283C5.10612 89.304 5.30664 89.646 5.44629 90.0542C5.58594 90.4624 5.65576 90.9315 5.65576 91.4614V92.7236C5.65576 93.2536 5.58594 93.7227 5.44629 94.1309C5.30664 94.5355 5.10612 94.8774 4.84473 95.1567C4.58333 95.4325 4.26823 95.6419 3.89941 95.7852C3.5306 95.9284 3.11344 96 2.64795 96ZM2.03564 88.1797V96H0.730469V88.1797H2.03564ZM11.4484 94.9097V96H8.05385V94.9097H11.4484ZM8.3976 88.1797V96H7.09242V88.1797H8.3976ZM10.9918 91.4346V92.5088H8.05385V91.4346H10.9918ZM11.4162 88.1797V89.2754H8.05385V88.1797H11.4162ZM14.9368 94.5498L16.6018 88.1797H18.0144L15.678 96H14.7112L14.9368 94.5498ZM13.4812 88.1797L15.1355 94.5498L15.3772 96H14.4104L12.074 88.1797H13.4812ZM23.3774 94.9097V96H19.9828V94.9097H23.3774ZM20.3266 88.1797V96H19.0214V88.1797H20.3266ZM22.9208 91.4346V92.5088H19.9828V91.4346H22.9208ZM23.3451 88.1797V89.2754H19.9828V88.1797H23.3451ZM28.7779 94.9097V96H25.5284V94.9097H28.7779ZM25.8721 88.1797V96H24.567V88.1797H25.8721ZM34.882 91.4507V92.7827C34.882 93.3341 34.8176 93.8175 34.6887 94.2329C34.5633 94.6483 34.3807 94.9956 34.1408 95.2749C33.9045 95.5506 33.618 95.7583 33.2814 95.8979C32.9484 96.0376 32.576 96.1074 32.1643 96.1074C31.7561 96.1074 31.3837 96.0376 31.0471 95.8979C30.7141 95.7583 30.4258 95.5506 30.1823 95.2749C29.9424 94.9956 29.7562 94.6483 29.6237 94.2329C29.4948 93.8175 29.4304 93.3341 29.4304 92.7827V91.4507C29.4304 90.8921 29.4948 90.4033 29.6237 89.9844C29.7526 89.5618 29.937 89.2091 30.177 88.9263C30.4204 88.6434 30.7087 88.4303 31.0417 88.2871C31.3783 88.1439 31.7489 88.0723 32.1535 88.0723C32.5653 88.0723 32.9377 88.1439 33.2707 88.2871C33.6073 88.4303 33.8955 88.6434 34.1354 88.9263C34.3754 89.2091 34.5598 89.5618 34.6887 89.9844C34.8176 90.4033 34.882 90.8921 34.882 91.4507ZM33.5876 92.7827V91.4399C33.5876 91.0425 33.5554 90.7023 33.4909 90.4194C33.43 90.133 33.3387 89.9002 33.217 89.7212C33.0952 89.5386 32.9449 89.4043 32.7658 89.3184C32.5904 89.2288 32.3863 89.1841 32.1535 89.1841C31.9279 89.1841 31.7256 89.2288 31.5466 89.3184C31.3711 89.4043 31.2207 89.5386 31.0954 89.7212C30.9737 89.9002 30.8806 90.133 30.8161 90.4194C30.7552 90.7023 30.7248 91.0425 30.7248 91.4399V92.7827C30.7248 93.173 30.757 93.5096 30.8215 93.7925C30.8859 94.0718 30.979 94.3009 31.1008 94.48C31.2261 94.6554 31.3783 94.7861 31.5573 94.8721C31.7364 94.958 31.9387 95.001 32.1643 95.001C32.3934 95.001 32.5975 94.958 32.7766 94.8721C32.9556 94.7861 33.1042 94.6554 33.2224 94.48C33.3441 94.3009 33.4354 94.0718 33.4963 93.7925C33.5572 93.5096 33.5876 93.173 33.5876 92.7827ZM38.8968 93.0996H37.2479V92.0093H38.8968C39.1654 92.0093 39.382 91.952 39.5467 91.8374C39.715 91.7228 39.8368 91.5653 39.912 91.3647C39.9907 91.1642 40.0301 90.9368 40.0301 90.6826C40.0301 90.4391 39.9907 90.21 39.912 89.9951C39.8368 89.7803 39.7168 89.6066 39.5521 89.4741C39.3874 89.3416 39.169 89.2754 38.8968 89.2754H37.6131V96H36.3133V88.1797H38.8968C39.4124 88.1797 39.8529 88.2871 40.2181 88.502C40.5833 88.7168 40.8626 89.0122 41.056 89.3882C41.2494 89.7606 41.346 90.1885 41.346 90.6719C41.346 91.1768 41.2494 91.61 41.056 91.9717C40.8626 92.3333 40.5833 92.6126 40.2181 92.8096C39.8529 93.0029 39.4124 93.0996 38.8968 93.0996ZM43.0566 88.1797H44.2436L46.0429 93.9966L47.8369 88.1797H48.938L46.5317 96H45.5488L43.0566 88.1797ZM42.6108 88.1797H43.7065L43.8838 93.1587V96H42.6108V88.1797ZM48.3686 88.1797H49.4697V96H48.1968V93.1587L48.3686 88.1797ZM55.402 94.9097V96H52.0074V94.9097H55.402ZM52.3512 88.1797V96H51.046V88.1797H52.3512ZM54.9454 91.4346V92.5088H52.0074V91.4346H54.9454ZM55.3697 88.1797V89.2754H52.0074V88.1797H55.3697ZM61.8928 88.1797V96H60.6145L57.8538 90.5859V96H56.5916V88.1797H57.8538L60.636 93.6313V88.1797H61.8928ZM66.1601 88.1797V96H64.8603V88.1797H66.1601ZM68.1527 88.1797V89.2754H62.8891V88.1797H68.1527Z" fill="#333333"/>
</svg>
