<svg xmlns="http://www.w3.org/2000/svg" width="2756.61" height="1014.747" viewBox="0 0 2756.61 1014.747">
  <g id="bg-pattern" transform="translate(-1550 -2223.753)" style="mix-blend-mode: normal;isolation: isolate">
    <path id="Path_207" data-name="Path 207" d="M1305.125,522.346c-42.274,0-80.961-12.608-111.07-35.862l5.012,19.565a6.358,6.358,0,0,1-6.158,7.935h-124.1a6.363,6.363,0,0,1-6.2-4.953l-17.7-78.012H953.979l-17.7,78.012a6.361,6.361,0,0,1-6.2,4.953H706.99a6.353,6.353,0,0,1-6.352-6.358v-78.4c-27.873,54.287-80.411,84.753-148.4,84.753H387.012a6.353,6.353,0,0,1-6.352-6.358V15.419a6.353,6.353,0,0,1,6.352-6.358H552.241c67.911,0,120.448,31.071,148.4,86.434V15.419a6.353,6.353,0,0,1,6.352-6.358H830.4a6.354,6.354,0,0,1,6.353,6.358V364.356L928.116,13.815a6.348,6.348,0,0,1,6.147-4.754h132.462a6.356,6.356,0,0,1,6.158,4.781l83.856,327.075h103.076a6.354,6.354,0,0,1,6.353,6.358c0,28.165,13.1,42.442,38.957,42.442,24.935,0,37.575-9.588,37.575-28.5,0-22.336-29.667-33.426-67.209-47.465l-8.167-3.057c-63.687-23.509-131.684-56.783-131.684-154.447C1135.64,62.792,1203.745,0,1305.125,0c60.381,0,111.3,27,140.727,73.409V15.419a6.353,6.353,0,0,1,6.352-6.358h163.143c71.412,0,126.045,34.912,152.47,96.513C1792.611,39.975,1852.041,0,1926.953,0c65,0,119.486,31.632,148.4,84.342V15.419a6.354,6.354,0,0,1,6.353-6.358h162.441c105.41,0,170.89,73.232,170.89,191.114V213.42c0,68.24-21.661,121.372-62.725,154.036l25.323,60.089,107.83-413.73a6.348,6.348,0,0,1,6.147-4.754h132.461a6.356,6.356,0,0,1,6.159,4.781l126.184,492.207a6.358,6.358,0,0,1-6.158,7.935H2626.165a6.361,6.361,0,0,1-6.2-4.953l-17.707-78.012h-90.933l-17.7,78.012a6.361,6.361,0,0,1-6.2,4.953H2269.942a6.361,6.361,0,0,1-6.028-4.338l-36.192-107.91h-15.568v105.89a6.353,6.353,0,0,1-6.352,6.358H2081.7a6.354,6.354,0,0,1-6.353-6.358v-70.1c-28.931,52.57-83.413,84.127-148.4,84.127-101.024,0-171.581-72.281-171.581-175.767v-7.935c-29.235,45.85-78.066,70.762-140.025,70.762h-32.691v98.917a6.353,6.353,0,0,1-6.352,6.358H1452.2a6.353,6.353,0,0,1-6.352-6.358V461.917c-31.093,38.649-81.221,60.429-140.727,60.429m-122.371-60.694a6.382,6.382,0,0,1,4.527,1.9c29.31,29.715,71.162,46.082,117.844,46.082,63.168,0,114.777-25.971,141.612-71.26a6.353,6.353,0,0,1,11.819,3.241v59.657h111.4V402.352a6.354,6.354,0,0,1,6.353-6.358h39.043c66.237,0,116.149-30.547,140.554-86.018a6.357,6.357,0,0,1,12.175,2.561v33.345c0,96.005,65.34,163.051,158.877,163.051,70.3,0,127.286-39.767,148.72-103.794a6.27,6.27,0,0,1,7.055-4.251,6.349,6.349,0,0,1,5.326,6.271v94.109h111.4V395.378a6.354,6.354,0,0,1,6.353-6.358h26.49a6.362,6.362,0,0,1,6.028,4.338l36.192,107.91h207.837l17.7-78.012a6.363,6.363,0,0,1,6.2-4.953h101.088a6.361,6.361,0,0,1,6.2,4.953l17.707,78.012h110.822L2619.132,21.777H2496.523L2385.2,448.888a6.352,6.352,0,0,1-12,.864l-34.518-81.88a6.345,6.345,0,0,1,2.075-7.573c40.275-29.866,61.569-80.654,61.569-146.879V200.175c0-110.039-60.619-178.4-158.185-178.4H2088.054v93.045a6.353,6.353,0,0,1-12.381,2.01c-21.39-64.222-78.379-104.114-148.72-104.114-75.42,0-133.877,43.641-152.535,113.9a6.367,6.367,0,0,1-5.985,4.721c-2.463.3-5.348-1.723-6.212-4.418-21.337-66.82-74.868-105.14-146.874-105.14H1458.556V99.119a6.354,6.354,0,0,1-12.2,2.5c-23.843-55.67-76.64-88.9-141.234-88.9-93.774,0-156.78,57.68-156.78,143.53,0,89.491,60.975,119.487,123.43,142.536l8.167,3.063c40.492,15.141,75.463,28.218,75.463,59.37,0,26.193-18.323,41.216-50.28,41.216-30.8,0-49.274-17.686-51.446-48.8H1151.8a6.356,6.356,0,0,1-6.158-4.78L1061.787,21.777H939.179L836.545,415.553a6.234,6.234,0,0,1-6.957,4.7,6.355,6.355,0,0,1-5.542-6.3V21.777h-110.7V128.872a6.355,6.355,0,0,1-12.445,1.815C680.3,61.469,626.115,21.777,552.241,21.777H393.365V501.268H552.241c74.036,0,128.226-38.919,148.667-106.776a6.351,6.351,0,0,1,12.434,1.831V501.268H925l17.7-78.012a6.361,6.361,0,0,1,6.2-4.953H1049.99a6.361,6.361,0,0,1,6.2,4.953l17.7,78.012H1184.72l-8.124-31.681a6.358,6.358,0,0,1,6.158-7.935m744.2-58.517c-31.514,0-47.482-17.858-47.482-53.072V172.28c0-48.189,27.1-53.763,47.482-53.763,20.083,0,46.79,5.574,46.79,53.763V350.063c0,35.214-15.741,53.072-46.79,53.072m0-271.9c-17.6,0-34.777,3.165-34.777,41.047V350.063c0,35.565,17.577,40.356,34.777,40.356,16.853,0,34.085-4.791,34.085-40.356V172.28c0-37.877-17.6-41.047-34.085-41.047M536.911,396.858h-25.8a6.354,6.354,0,0,1-6.353-6.358V133.939a6.354,6.354,0,0,1,6.353-6.358h25.8c27.268,0,63.513,7.6,63.513,73.285v123.4c0,48.843-20.775,72.589-63.513,72.589m-19.447-12.716h19.447c23.649,0,50.808-6.806,50.808-59.873v-123.4c0-53.374-25.69-60.569-50.808-60.569H517.464Zm1081.851-92.559H1576.3a6.354,6.354,0,0,1-6.353-6.358V133.939a6.354,6.354,0,0,1,6.353-6.358h23.011c15.881,0,64.216,0,64.216,73.285v18.129c0,48.167-21.607,72.588-64.216,72.588m-16.659-12.715h16.659c23.984,0,51.511-6.807,51.511-59.873V200.866c0-53.374-26.036-60.569-51.511-60.569h-16.659ZM1452.2,289.261a6.363,6.363,0,0,1-5.326-2.89c-23.141-35.538-63.741-52.484-99.976-65.578l-12.91-4.564c-40.588-14.244-75.646-26.55-75.646-59.981,0-29.358,24.168-39.822,46.779-39.822,13.019,0,42.512,4.7,45.2,46.709H1452.2a6.353,6.353,0,0,1,6.352,6.358V282.9a6.351,6.351,0,0,1-4.548,6.093,6.27,6.27,0,0,1-1.8.265M1305.125,129.142c-10.241,0-34.074,2.642-34.074,27.106,0,23.238,25.518,33.372,67.155,47.984l13,4.6h.011c32.8,11.851,69.034,26.782,94.639,55.373V175.851H1344.169a6.353,6.353,0,0,1-6.352-6.358c0-26.776-11-40.351-32.692-40.351M2228.8,284.61h-23a6.354,6.354,0,0,1-6.353-6.358V133.939a6.354,6.354,0,0,1,6.353-6.358h23c27.268,0,63.525,7.6,63.525,73.285v11.16c0,48.843-20.775,72.584-63.525,72.584m-16.648-12.716H2228.8c23.66,0,50.82-6.8,50.82-59.868v-11.16c0-53.374-25.691-60.569-50.82-60.569h-16.648Z" transform="translate(1550 2223.75)" fill="#451087"/>
    <path id="Path_208" data-name="Path 208" d="M1930.734,485.365c-36.656,0-62.033-12.51-63.74-13.374-81.967-39.811-76.176-160.443-75.884-165.558l-2.269-75.263c-1.988-12.845-6.179-21.753-11.743-24.324-5.175-2.4-11.085,1.156-11.149,1.183a7.452,7.452,0,0,1-1.092.551c-6.925,2.679-13.2,22.622-15.265,35.257-17.5,114.3-99.316,125.045-100.138,125.142l-31.286.044c-19.512-2.393-24.449-17.043-24.449-24.465,0-19.111,12.446-27.354,19.036-29.04l30.261-3.554c67.4-18.323,53.012-138.387,52.85-139.6-9.215-81.761-74.868-89.62-77.655-89.917l-74.642.032v332.1c0,22.006-9.733,35.143-26.047,35.143-8.426,0-15.287-2.76-20.386-8.194-9.723-10.345-8.816-26.658-8.772-27.349l2.1-238.709a39.529,39.529,0,0,0-39.5-39.438c-29.223,0-61.882-13.245-79.406-32.2-27.311-29.553-64.27-34.56-64.637-34.609-67.922-8.389-93,50.21-94.034,52.711-25.917,86.19,65.772,118.071,69.694,119.384C1408.321,284,1416.7,348.042,1417,350.743c3.619,27.657-2.226,51.079-17.383,69.483-29.267,35.527-82.463,39.238-84.71,39.378-64.065,3.76-95.525-19.651-125.861-42.225-13.159-9.793-24.47-12.781-33.566-8.94-18.658,7.9-27.128,43.171-28.824,56.1a6.346,6.346,0,0,1-5.942,5.521,6.218,6.218,0,0,1-6.525-4.824l-84.71-344.9c-6.817-28.025-15.7-36.84-20.376-39.606-3.673-2.166-6.19-1.518-6.32-1.5a7.517,7.517,0,0,1-2.3.3c-13.591-.572-23.843,26.026-26.2,35.463L944.365,251.443c-4.948,18.879-10,38.141-2.68,47.638,4.2,5.445,13.083,8.205,26.383,8.205h24.448c.432-.011,20.019-1.172,32.129,10.177,6.094,5.715,9.183,13.369,9.183,22.747,0,8.75-3.014,15.946-8.956,21.374-13.374,12.219-37.088,10.231-38.1,10.139l-65.339.027a21.853,21.853,0,0,0-20.278,14.04c-.778,2.02-4.527,10.214-8.222,18.247-3.414,7.422-6.774,14.7-7.411,16.378-18.409,48.513-38.028,52.046-56.362,51.505l-2.9-.064c-10.274-.071-18.852-3.728-25.507-10.863-16.508-17.718-14.563-51.085-14.477-52.494l-.011-314.674c0-7.443-1.966-13.083-5.844-16.767-6.18-5.861-15.579-5.412-15.7-5.445-14.671.222-17.21,23.7-17.242,23.935l.032,211.819c0,16.551-4.516,29.159-13.439,37.477-11.56,10.793-26.177,9.929-26.825,9.875h-.022c-24.945,0-38.644-24.6-38.644-47.746V252.242c1.945-78.168-9.885-113.923-10-114.274-22.536-77.644-100.548-75.8-103.9-75.667l-126.012.005v380.7c-.076,3.484.832,13.229,5.888,18.393,2.452,2.506,5.671,3.727,9.853,3.727,6.136,0,10.76-1.658,14.141-5.072,6.288-6.353,6.255-16.848,6.255-16.956V104.213a6.354,6.354,0,0,1,6.353-6.358h81.934c.172-.027,64.053-3.625,77.331,61.007,4.851,12.981,5.6,67.808,5.6,100.64V360.347c-.032,1.01-3.889,77.191-85.11,86.634l-1.469-12.63c70.244-8.167,73.756-71.567,73.874-74.263V259.5c0-83.1-4.526-95.605-4.721-96.1-.529-.735-.356-.643-.529-1.523-10.825-54.12-62.466-51.5-64.551-51.328l-76,.011v332.44c.011.518.2,15.676-9.831,25.9-5.823,5.931-13.645,8.94-23.27,8.94-7.7,0-14.1-2.566-19-7.617-9.831-10.123-9.464-26.706-9.442-27.4V55.948a6.353,6.353,0,0,1,6.352-6.358H554.445c.648.011,90.987-2.5,116.256,84.548.422,1.21,12.608,37.58,10.588,118.261v54.574c0,17.415,9.075,35.046,26.4,35.046.507.022,10.382.476,17.836-6.584,6.158-5.829,9.28-15.271,9.28-28.068V94.922c1.286-13.618,8.9-35.706,29.451-36.014.27-.016,14.541-.8,24.794,8.816,6.579,6.185,9.917,14.968,9.917,26.1V408.9c-.032.691-1.674,29.758,11.106,43.44,4.224,4.533,9.551,6.753,16.27,6.8l3.177.07c12.272.346,27.4.783,44.11-43.3.67-1.767,4.17-9.4,7.746-17.183,3.533-7.7,7.152-15.536,7.887-17.469a34.652,34.652,0,0,1,32.162-22.223h65.912c5.877.518,21.326.156,28.986-6.855,3.219-2.96,4.8-6.876,4.8-11.97,0-5.8-1.7-10.21-5.174-13.472-8.006-7.52-22.893-6.747-23.023-6.752L968.068,320c-17.7,0-29.613-4.305-36.441-13.159-11.149-14.439-5.283-36.775.378-58.371L961.9,112.094c1.21-4.862,12.067-45.294,37.909-45.294.108,0,.216,0,.324.006a21.215,21.215,0,0,1,14.4,2.393c11.873,6.336,21.056,22.525,27.29,48.113L1120.3,436.858c5.272-15.536,14.541-33.475,30.195-40.114,13.58-5.774,29.094-2.236,46.131,10.437,29.839,22.2,58.08,43.208,117.51,39.735.464-.027,50.009-3.565,75.711-34.825,12.8-15.568,17.685-35.7,14.53-59.83-.086-.675-8.686-59.128-125.86-98.9-1.048-.345-107.3-37.023-77.58-135.7.5-1.3,30.174-70.52,107.559-61.051,1.729.222,41.972,5.683,72.4,38.59,15.308,16.557,44.121,28.116,70.071,28.116a52.261,52.261,0,0,1,52.2,52.208l-2.106,239.109c-.184,3.532.432,13.007,5.369,18.225,2.647,2.793,6.277,4.149,11.095,4.149,11.02,0,13.343-12.2,13.343-22.428V76.124a6.353,6.353,0,0,1,6.352-6.358h81.642c1.415.113,79.254,8.978,89.637,101.083.669,5.3,15.9,132.175-63.082,153.566l-30.358,3.576c-.032.1-8.632,3.014-8.632,16.567.043,1.648.864,10.339,12.532,11.8l29.764-.048c2.225-.319,72.34-10.069,88.308-114.452,1.048-6.412,6.957-38.153,22.7-44.91,2.528-1.443,12.37-6.3,22.536-1.718,9.939,4.489,16.41,16.2,19.219,34.8l2.323,76.57c-.076,1.712-5.585,117.855,68.84,154,.7.346,63.395,31,132.786-7.984,1.825-1.766,9.809-10.193,8.664-21.332v.011c-.119,0-4.224-11.284-29.818-5.25-6.352,3.333-47.492,23.6-86.125,11.435-20.6-6.476-36.71-20.953-47.9-43.03-14.1-14.45-18.452-94.833-11.927-223.589.043-3.668,1.912-95.768,70.46-108.337.616-.179,99.306-23.093,126.034,78.157.292,1.815,3.7,27.981,2.182,136.9-.086,1.042-4.332,38.9,12.954,58.349,6.806,7.655,15.946,11.377,27.927,11.377a5.89,5.89,0,0,1,1.112.1,26.292,26.292,0,0,0,19.814-6.244c10.145-8.643,15.514-25.923,15.514-49.961V55.657a6.353,6.353,0,0,1,6.352-6.358h116.6c.962-.006,101.035-2.183,127.028,96.74.518,1.388,16.346,46.968.011,110.184-.573,2.172-5.91,21.424-20.127,28.192-6.655,3.165-14.207,3-21.834-.475-2.917-1.345-16.778-10.085-5.78-51.274.076-.464,16.357-87.281-41.68-116.785-.065-.027-30.336-13.348-101.164-10.318V327.429h59.733a50.56,50.56,0,0,1,46.574,30.8l28.251,66.4a77.563,77.563,0,0,0,71.476,47.26h42.382l89.118-347.775c2.6-12.419,14.476-36.424,40.318-36.424,8.189,0,33.092,0,41.054,36.651l35.154,144.07a41.035,41.035,0,0,1-39.638,51.689h-32.9c-.562-.038-14.5-.794-22.569,6.785-3.954,3.721-5.888,8.885-5.888,15.778,0,5.445,7.26,15.6,21.143,15.6h79.913a32.666,32.666,0,0,1,31.4,23.886l17.761,70.563-12.338,3.1-17.717-70.417a19.866,19.866,0,0,0-19.1-14.417h-79.913c-21.8,0-33.848-16.74-33.848-28.311,0-10.485,3.349-18.933,9.961-25.113,12.165-11.354,30.877-10.22,31.633-10.15l32.464-.016a28.319,28.319,0,0,0,27.322-35.792L2580.24,127.2c-5.823-26.792-20.678-26.792-28.662-26.792-21.941,0-27.711,25.523-27.948,26.609l-90.393,352.809a6.357,6.357,0,0,1-6.158,4.781H2379.76a90.238,90.238,0,0,1-83.166-54.995l-28.251-66.4a37.872,37.872,0,0,0-34.884-23.065h-66.085a6.354,6.354,0,0,1-6.353-6.358V99.513a6.354,6.354,0,0,1,6.007-6.347c78.747-4.3,112.043,10.642,113.415,11.279,66.852,33.988,49.275,127.141,48.5,131.09-6.86,25.755-2.852,35.532-.735,37.158,3.652,1.615,7.271,1.794,10.512.249,7.573-3.609,12.241-15.887,13.278-19.906,15.319-59.219.324-102.822.173-103.254-23.606-89.772-113.664-87.714-114.69-87.773l-110.455.005V291.2c0,28.473-6.806,48.61-20.235,59.862a39.155,39.155,0,0,1-29.364,8.951c-15.417-.1-27.862-5.375-37-15.676-21.078-23.757-16.3-65.826-16.086-67.6,1.447-106.619-1.934-133.326-1.967-133.58-23.346-88.27-107.343-69.066-110.941-68.207-58.587,10.754-60.391,95.465-60.4,96.318-9.388,185.134,6.32,211.705,8.092,214.082a6.427,6.427,0,0,1,1.955,2.323c9.6,19.473,23.336,32.146,40.827,37.666,35.943,11.328,76.629-10.625,77.039-10.852a6.564,6.564,0,0,1,1.545-.605c15.179-3.733,27.268-2.949,35.889,2.334,8.157,4.991,10.037,12.159,10.231,12.964,2.118,20.04-12.64,32.9-13.277,33.437a6.269,6.269,0,0,1-.983.7c-29.677,16.854-57.993,22.05-81.61,22.05m-72.869-100.726c.01.005.021.005.021.011s-.011-.006-.021-.011m-.033-.011c.011,0,.022.006.033.006-.011,0-.022-.006-.033-.006m-.032-.016c.011.005.021.005.032.011-.011-.006-.021-.006-.032-.011m-.033-.016a.085.085,0,0,0,.033.011.085.085,0,0,1-.033-.011m-.032-.011.022.011Z" transform="translate(1550 2223.75)" fill="#451087"/>
    <path id="Path_209" data-name="Path 209" d="M2673.215,483.242a21.948,21.948,0,1,1,21.942-21.947,21.969,21.969,0,0,1-21.942,21.947m0-31.179a9.232,9.232,0,1,0,9.237,9.232,9.246,9.246,0,0,0-9.237-9.232" transform="translate(1550 2223.75)" fill="#451087"/>
    <path id="Path_210" data-name="Path 210" d="M924.465,1014.75c-42.274,0-80.961-12.608-111.07-35.862l5.012,19.565a6.358,6.358,0,0,1-6.158,7.935H688.15a6.363,6.363,0,0,1-6.2-4.953l-17.7-78.012H573.319l-17.7,78.012a6.361,6.361,0,0,1-6.2,4.953H326.33a6.353,6.353,0,0,1-6.352-6.358v-78.4c-27.874,54.287-80.411,84.753-148.4,84.753H6.352A6.353,6.353,0,0,1,0,1000.03V507.823a6.353,6.353,0,0,1,6.352-6.358H171.581c67.91,0,120.448,31.071,148.4,86.434V507.823a6.353,6.353,0,0,1,6.352-6.358H449.738a6.354,6.354,0,0,1,6.353,6.358V856.76l91.365-350.541a6.348,6.348,0,0,1,6.147-4.754H686.065a6.356,6.356,0,0,1,6.158,4.781l83.856,327.075H879.155a6.354,6.354,0,0,1,6.353,6.358c0,28.165,13.1,42.442,38.957,42.442,24.935,0,37.575-9.588,37.575-28.5,0-22.336-29.667-33.426-67.209-47.465l-8.167-3.057C822.977,779.59,754.98,746.316,754.98,648.652c0-93.456,68.105-156.245,169.485-156.245,60.381,0,111.3,27,140.727,73.409V507.823a6.353,6.353,0,0,1,6.352-6.358h163.143c71.412,0,126.045,34.912,152.47,96.513,24.794-65.6,84.224-105.571,159.136-105.571,65,0,119.486,31.632,148.4,84.342V507.823a6.354,6.354,0,0,1,6.353-6.358h162.441c105.41,0,170.89,73.232,170.89,191.114v13.245c0,68.24-21.661,121.372-62.725,154.036l25.323,60.089,107.83-413.73a6.348,6.348,0,0,1,6.147-4.754h132.461a6.354,6.354,0,0,1,6.158,4.781l126.185,492.207a6.358,6.358,0,0,1-6.158,7.935H2245.5a6.361,6.361,0,0,1-6.2-4.953L2221.6,923.423h-90.933l-17.7,78.012a6.361,6.361,0,0,1-6.2,4.953H1889.282a6.361,6.361,0,0,1-6.028-4.338l-36.192-107.91h-15.568v105.89a6.353,6.353,0,0,1-6.352,6.358h-124.1a6.354,6.354,0,0,1-6.353-6.358v-70.1c-28.931,52.57-83.413,84.127-148.4,84.127-101.024,0-171.581-72.281-171.581-175.767v-7.935c-29.235,45.85-78.067,70.762-140.025,70.762H1202v98.917a6.353,6.353,0,0,1-6.352,6.358h-124.1a6.353,6.353,0,0,1-6.352-6.358V954.321c-31.093,38.649-81.221,60.429-140.727,60.429M802.094,954.056a6.382,6.382,0,0,1,4.527,1.9c29.31,29.715,71.162,46.082,117.844,46.082,63.168,0,114.777-25.971,141.612-71.26a6.353,6.353,0,0,1,11.819,3.241v59.657h111.4V894.756a6.354,6.354,0,0,1,6.353-6.358h39.043c66.237,0,116.149-30.547,140.554-86.018a6.357,6.357,0,0,1,12.175,2.561v33.345c0,96.005,65.34,163.051,158.877,163.051,70.3,0,127.286-39.767,148.72-103.794a6.271,6.271,0,0,1,7.055-4.251,6.349,6.349,0,0,1,5.326,6.271v94.109h111.395V887.782a6.354,6.354,0,0,1,6.353-6.358h26.49a6.362,6.362,0,0,1,6.028,4.338l36.192,107.91h207.837l17.7-78.012a6.362,6.362,0,0,1,6.2-4.953h101.088a6.361,6.361,0,0,1,6.2,4.953l17.707,78.012h110.822L2238.472,514.181H2115.864l-111.32,427.111a6.352,6.352,0,0,1-12,.864l-34.518-81.88a6.345,6.345,0,0,1,2.075-7.573c40.275-29.866,61.569-80.654,61.569-146.879V692.579c0-110.039-60.619-178.4-158.185-178.4H1707.394v93.045a6.353,6.353,0,0,1-12.381,2.009c-21.39-64.221-78.379-104.113-148.72-104.113-75.42,0-133.877,43.641-152.535,113.9a6.366,6.366,0,0,1-5.985,4.721c-2.463.3-5.348-1.723-6.212-4.418-21.337-66.82-74.868-105.14-146.874-105.14H1077.9v77.342a6.354,6.354,0,0,1-12.2,2.5c-23.843-55.67-76.64-88.9-141.234-88.9-93.774,0-156.78,57.68-156.78,143.53,0,89.491,60.975,119.487,123.43,142.536l8.167,3.063c40.492,15.141,75.463,28.218,75.463,59.37,0,26.193-18.323,41.216-50.28,41.216-30.8,0-49.274-17.686-51.446-48.8H771.142a6.356,6.356,0,0,1-6.158-4.78L681.127,514.181H558.519L455.885,907.957a6.234,6.234,0,0,1-6.957,4.7,6.355,6.355,0,0,1-5.542-6.3V514.181h-110.7V621.276a6.355,6.355,0,0,1-12.445,1.815c-20.592-69.218-74.782-108.91-148.656-108.91H12.7V993.672H171.581c74.036,0,128.226-38.919,148.667-106.776a6.351,6.351,0,0,1,12.434,1.831V993.672H544.344l17.7-78.012a6.361,6.361,0,0,1,6.2-4.953H669.33a6.361,6.361,0,0,1,6.2,4.953l17.7,78.012H804.06l-8.124-31.681a6.358,6.358,0,0,1,6.158-7.935m744.2-58.517c-31.514,0-47.482-17.858-47.482-53.072V664.684c0-48.189,27.095-53.763,47.482-53.763,20.083,0,46.79,5.574,46.79,53.763V842.467c0,35.214-15.741,53.072-46.79,53.072m0-271.9c-17.6,0-34.777,3.165-34.777,41.047V842.467c0,35.565,17.577,40.356,34.777,40.356,16.853,0,34.085-4.791,34.085-40.356V664.684c0-37.877-17.6-41.047-34.085-41.047M156.251,889.262h-25.8A6.354,6.354,0,0,1,124.1,882.9V626.343a6.354,6.354,0,0,1,6.353-6.358h25.8c27.268,0,63.513,7.6,63.513,73.285v123.4c0,48.843-20.775,72.589-63.513,72.589M136.8,876.546h19.447c23.648,0,50.808-6.806,50.808-59.873V693.27c0-53.374-25.69-60.569-50.808-60.569H136.8Zm1081.851-92.559h-23.011a6.353,6.353,0,0,1-6.353-6.357V626.343a6.354,6.354,0,0,1,6.353-6.358h23.011c15.881,0,64.216,0,64.216,73.285V711.4c0,48.167-21.607,72.588-64.216,72.588M1202,771.272h16.659c23.984,0,51.511-6.807,51.511-59.873V693.27c0-53.374-26.036-60.569-51.511-60.569H1202Zm-130.452,10.393a6.363,6.363,0,0,1-5.326-2.89c-23.141-35.538-63.741-52.484-99.976-65.578l-12.91-4.564c-40.588-14.244-75.646-26.55-75.646-59.981,0-29.358,24.168-39.822,46.779-39.822,13.019,0,42.512,4.7,45.2,46.709h101.877a6.353,6.353,0,0,1,6.352,6.358v113.41a6.351,6.351,0,0,1-4.548,6.093,6.27,6.27,0,0,1-1.8.265M924.465,621.546c-10.241,0-34.074,2.642-34.074,27.106,0,23.238,25.518,33.372,67.155,47.984l13,4.6h.011c32.8,11.851,69.034,26.782,94.639,55.373V668.255H963.509a6.353,6.353,0,0,1-6.352-6.358c0-26.776-11-40.351-32.692-40.351m923.677,155.468h-23a6.354,6.354,0,0,1-6.353-6.358V626.343a6.354,6.354,0,0,1,6.353-6.358h23c27.268,0,63.525,7.6,63.525,73.285v11.16c0,48.843-20.775,72.584-63.525,72.584M1831.494,764.3h16.648c23.66,0,50.82-6.8,50.82-59.868V693.27c0-53.374-25.691-60.569-50.82-60.569h-16.648Z" transform="translate(1550 2223.75)" fill="#451087"/>
    <path id="Path_211" data-name="Path 211" d="M1550.074,977.769c-36.656,0-62.033-12.51-63.74-13.374-81.967-39.811-76.176-160.443-75.884-165.558l-2.269-75.263c-1.988-12.845-6.179-21.753-11.743-24.324-5.175-2.4-11.085,1.156-11.149,1.183a7.448,7.448,0,0,1-1.092.551c-6.925,2.679-13.2,22.622-15.265,35.257-17.5,114.3-99.316,125.045-100.138,125.142l-31.286.044c-19.512-2.393-24.449-17.043-24.449-24.465,0-19.111,12.446-27.354,19.036-29.04l30.261-3.554c67.4-18.323,53.012-138.387,52.85-139.6-9.215-81.761-74.868-89.62-77.655-89.917l-74.642.032v332.1c0,22.007-9.733,35.144-26.047,35.144-8.426,0-15.287-2.76-20.386-8.194-9.723-10.345-8.816-26.658-8.772-27.349l2.095-238.709a39.528,39.528,0,0,0-39.5-39.438c-29.224,0-61.882-13.245-79.406-32.2-27.311-29.553-64.27-34.56-64.637-34.609-67.922-8.389-93,50.21-94.034,52.711C806.308,700.525,898,732.406,901.919,733.719c125.742,42.684,134.125,106.727,134.417,109.428,3.619,27.657-2.226,51.079-17.383,69.483-29.267,35.527-82.463,39.238-84.71,39.378-64.065,3.76-95.525-19.651-125.861-42.225-13.159-9.793-24.47-12.781-33.566-8.94-18.658,7.9-27.128,43.171-28.824,56.1a6.346,6.346,0,0,1-5.942,5.521,6.218,6.218,0,0,1-6.525-4.824l-84.71-344.9c-6.817-28.025-15.7-36.84-20.376-39.606-3.673-2.166-6.19-1.518-6.32-1.5a7.516,7.516,0,0,1-2.3.3c-13.591-.572-23.843,26.026-26.2,35.463L563.705,743.847c-4.948,18.879-10,38.142-2.68,47.638,4.2,5.445,13.083,8.205,26.382,8.205h24.449c.432-.011,20.019-1.172,32.129,10.177,6.094,5.715,9.183,13.369,9.183,22.747,0,8.75-3.014,15.946-8.956,21.374-13.374,12.219-37.088,10.231-38.1,10.139l-65.339.027a21.852,21.852,0,0,0-20.278,14.04c-.778,2.02-4.527,10.214-8.222,18.247-3.414,7.422-6.774,14.7-7.411,16.378-18.409,48.513-38.028,52.046-56.362,51.505l-2.895-.064c-10.274-.071-18.852-3.728-25.507-10.863-16.508-17.718-14.563-51.085-14.477-52.494l-.011-314.674c0-7.443-1.966-13.083-5.844-16.767-6.18-5.861-15.579-5.412-15.7-5.445-14.671.222-17.21,23.7-17.242,23.935l.032,211.819c0,16.551-4.516,29.159-13.439,37.477-11.56,10.793-26.177,9.929-26.825,9.875h-.022c-24.945,0-38.644-24.6-38.644-47.746V744.646c1.944-78.168-9.885-113.923-10-114.274-22.536-77.644-100.548-75.8-103.9-75.667l-126.012.005v380.7c-.076,3.484.832,13.229,5.888,18.393,2.452,2.506,5.672,3.727,9.853,3.727,6.136,0,10.76-1.658,14.141-5.072,6.288-6.353,6.255-16.848,6.255-16.956V596.617a6.354,6.354,0,0,1,6.353-6.358h81.934c.172-.027,64.054-3.625,77.331,61.007,4.851,12.981,5.6,67.808,5.6,100.64V852.751c-.032,1.011-3.889,77.191-85.11,86.634l-1.469-12.63c70.244-8.167,73.755-71.567,73.874-74.263V751.906c0-83.1-4.526-95.6-4.721-96.1-.529-.735-.356-.643-.529-1.523-10.825-54.12-62.466-51.5-64.551-51.328l-76,.011v332.44c.011.518.195,15.676-9.831,25.9-5.823,5.931-13.645,8.94-23.27,8.94-7.7,0-14.1-2.566-19-7.617-9.831-10.123-9.464-26.706-9.442-27.4V548.352a6.353,6.353,0,0,1,6.352-6.358H173.785c.648.011,90.987-2.5,116.256,84.548.422,1.21,12.608,37.58,10.588,118.261v54.574c0,17.415,9.075,35.046,26.4,35.046.507.022,10.382.476,17.836-6.584,6.158-5.829,9.28-15.271,9.28-28.068V587.326c1.286-13.618,8.9-35.706,29.451-36.014.27-.016,14.541-.8,24.794,8.816,6.579,6.185,9.917,14.968,9.917,26.1V901.308c-.032.691-1.674,29.758,11.106,43.441,4.224,4.532,9.551,6.752,16.27,6.795l3.177.07c12.272.346,27.4.783,44.11-43.3.67-1.767,4.17-9.405,7.746-17.183,3.533-7.7,7.152-15.536,7.887-17.469a34.652,34.652,0,0,1,32.162-22.223h65.912c5.877.518,21.326.156,28.986-6.855,3.219-2.96,4.8-6.876,4.8-11.97,0-5.8-1.7-10.21-5.174-13.472-8.006-7.52-22.893-6.747-23.023-6.752l-24.859.016c-17.7,0-29.612-4.3-36.44-13.159-11.149-14.439-5.283-36.775.378-58.371L581.239,604.5c1.21-4.862,12.067-45.294,37.909-45.294.108,0,.216,0,.324.006a21.215,21.215,0,0,1,14.4,2.393c11.873,6.336,21.056,22.525,27.29,48.113L739.64,929.262c5.272-15.536,14.541-33.475,30.2-40.114,13.58-5.774,29.094-2.236,46.131,10.437,29.839,22.2,58.08,43.208,117.51,39.735.464-.027,50.009-3.565,75.711-34.825,12.8-15.568,17.685-35.7,14.53-59.83-.086-.675-8.686-59.128-125.86-98.9-1.048-.345-107.3-37.023-77.58-135.7.5-1.3,30.174-70.52,107.559-61.051,1.729.222,41.972,5.683,72.4,38.59,15.308,16.557,44.121,28.116,70.071,28.116a52.261,52.261,0,0,1,52.2,52.208L1120.4,907.034c-.184,3.532.432,13.007,5.369,18.225,2.647,2.793,6.277,4.149,11.1,4.149,11.02,0,13.343-12.2,13.343-22.429V568.528a6.354,6.354,0,0,1,6.352-6.358H1238.2c1.415.113,79.254,8.978,89.637,101.083.669,5.3,15.9,132.175-63.082,153.566L1234.4,820.4c-.032.1-8.632,3.014-8.632,16.567.043,1.648.864,10.339,12.532,11.8l29.764-.048c2.225-.319,72.34-10.069,88.308-114.452,1.048-6.412,6.957-38.153,22.7-44.91,2.528-1.443,12.37-6.3,22.536-1.718,9.939,4.489,16.41,16.2,19.219,34.8l2.323,76.57c-.076,1.712-5.585,117.855,68.84,154,.7.345,63.4,31,132.786-7.984,1.825-1.766,9.809-10.193,8.664-21.332v.011c-.119,0-4.224-11.284-29.818-5.25-6.352,3.333-47.492,23.595-86.125,11.435-20.6-6.476-36.71-20.953-47.9-43.03-14.1-14.45-18.452-94.833-11.927-223.589.043-3.668,1.912-95.768,70.461-108.337.615-.179,99.305-23.093,126.033,78.157.292,1.815,3.695,27.981,2.182,136.9-.086,1.042-4.332,38.9,12.954,58.349,6.806,7.655,15.946,11.377,27.927,11.377a5.89,5.89,0,0,1,1.112.1,26.293,26.293,0,0,0,19.814-6.244c10.145-8.643,15.514-25.923,15.514-49.961V548.061a6.353,6.353,0,0,1,6.352-6.358h116.6c.962-.006,101.035-2.183,127.028,96.74.518,1.388,16.346,46.968.011,110.184-.573,2.172-5.91,21.424-20.127,28.192-6.655,3.165-14.207,3-21.834-.475-2.917-1.345-16.778-10.085-5.78-51.274.076-.464,16.357-87.281-41.68-116.785-.065-.027-30.336-13.348-101.164-10.318V819.833H1852.8a50.561,50.561,0,0,1,46.574,30.8l28.251,66.4a77.563,77.563,0,0,0,71.476,47.26h42.382L2130.6,616.517c2.6-12.419,14.476-36.424,40.318-36.424,8.189,0,33.092,0,41.054,36.651l35.154,144.07a41.035,41.035,0,0,1-39.638,51.689h-32.9c-.562-.038-14.5-.794-22.569,6.785-3.954,3.721-5.888,8.885-5.888,15.778,0,5.445,7.26,15.6,21.143,15.6h79.913a32.665,32.665,0,0,1,31.4,23.886l17.761,70.563-12.338,3.1-17.717-70.417a19.866,19.866,0,0,0-19.1-14.417h-79.913c-21.8,0-33.848-16.74-33.848-28.311,0-10.485,3.349-18.933,9.961-25.113,12.165-11.354,30.877-10.22,31.633-10.15l32.464-.016a28.319,28.319,0,0,0,27.322-35.792L2199.58,619.6c-5.823-26.792-20.678-26.792-28.662-26.792-21.941,0-27.711,25.523-27.948,26.609l-90.393,352.809a6.357,6.357,0,0,1-6.158,4.781H1999.1a90.238,90.238,0,0,1-83.166-54.995l-28.251-66.4a37.871,37.871,0,0,0-34.884-23.065h-66.085a6.354,6.354,0,0,1-6.353-6.358V591.917a6.354,6.354,0,0,1,6.007-6.347c78.747-4.3,112.043,10.642,113.415,11.279,66.852,33.988,49.275,127.141,48.5,131.09-6.86,25.755-2.852,35.532-.735,37.158,3.652,1.615,7.271,1.794,10.512.249,7.573-3.609,12.241-15.887,13.278-19.906,15.319-59.219.324-102.822.173-103.254-23.606-89.772-113.664-87.714-114.69-87.773l-110.455.005V783.609c0,28.473-6.806,48.61-20.235,59.862a39.155,39.155,0,0,1-29.364,8.951c-15.417-.1-27.862-5.375-37-15.676-21.078-23.757-16.3-65.826-16.086-67.6,1.447-106.619-1.934-133.326-1.967-133.58-23.346-88.27-107.343-69.066-110.941-68.207-58.587,10.754-60.391,95.465-60.4,96.318-9.388,185.134,6.32,211.705,8.092,214.082a6.427,6.427,0,0,1,1.955,2.323c9.6,19.473,23.336,32.146,40.827,37.666,35.943,11.328,76.629-10.625,77.039-10.852a6.561,6.561,0,0,1,1.545-.6c15.179-3.733,27.268-2.949,35.889,2.334,8.157,4.991,10.037,12.159,10.231,12.964,2.118,20.04-12.64,32.9-13.277,33.437a6.263,6.263,0,0,1-.983.7c-29.677,16.854-57.993,22.05-81.61,22.05M1477.2,877.043c.01,0,.021,0,.021.011s-.011-.006-.021-.011m-.033-.011c.011,0,.022.006.033.006-.011,0-.022-.006-.033-.006m-.032-.016c.011.005.021.005.032.011-.011-.006-.021-.006-.032-.011m-.033-.016a.086.086,0,0,0,.033.011.086.086,0,0,1-.033-.011m-.032-.011.022.011Z" transform="translate(1550 2223.75)" fill="#451087"/>
  </g>
</svg>
